<svg xmlns="http://www.w3.org/2000/svg" width="88" height="90" viewBox="0 0 88 90">
  <g id="file" transform="translate(-1115 -897)">
    <rect id="Rectangle_14041" data-name="Rectangle 14041" width="88" height="90" rx="6" transform="translate(1115 897)" fill="#ed1c24" opacity="0.1"/>
    <g id="svgexport-10_1_" data-name="svgexport-10 (1)" transform="translate(1135.637 921.309)">
      <g id="Group_55609" data-name="Group 55609" transform="translate(0 0)">
        <path id="Path_11895" data-name="Path 11895" d="M40.324,25.872H21.536l-3.362-3.553A6.541,6.541,0,0,0,13.166,20H5.092A5.1,5.1,0,0,0,0,25.092V56.654a5.1,5.1,0,0,0,5.092,5.092H40.324a5.1,5.1,0,0,0,5.092-5.092V30.964A5.1,5.1,0,0,0,40.324,25.872ZM44.04,56.654a3.72,3.72,0,0,1-3.716,3.716H5.092a3.72,3.72,0,0,1-3.716-3.716V35.368a3.72,3.72,0,0,1,3.716-3.716H40.324a3.72,3.72,0,0,1,3.716,3.716ZM40.324,30.276H5.092a5.078,5.078,0,0,0-3.716,1.616v-6.8a3.72,3.72,0,0,1,3.716-3.716h8.074a5.17,5.17,0,0,1,4,1.878l.007.008,3.569,3.771a.688.688,0,0,0,.5.215H40.324a3.72,3.72,0,0,1,3.716,3.716v.928A5.078,5.078,0,0,0,40.324,30.276Z" transform="translate(0 -20)" fill="#ed1c24"/>
        <path id="Path_11896" data-name="Path 11896" d="M330.23,180h-9.542a.688.688,0,0,0,0,1.376h9.542a.688.688,0,0,0,0-1.376Z" transform="translate(-290.64 -165.32)" fill="#ed1c24"/>
        <path id="Path_11897" data-name="Path 11897" d="M330.23,220h-9.542a.688.688,0,0,0,0,1.376h9.542a.688.688,0,0,0,0-1.376Z" transform="translate(-290.64 -201.65)" fill="#ed1c24"/>
      </g>
    </g>
  </g>
</svg>
