<svg xmlns="http://www.w3.org/2000/svg" width="24" height="24" viewBox="0 0 24 24">
  <g id="Group_10789" data-name="Group 10789" transform="translate(-1866 -224)">
    <rect id="Rectangle_14012" data-name="Rectangle 14012" width="24" height="24" transform="translate(1866 224)" fill="none"/>
    <path id="fi-rr-cloud" d="M17.821,7.222A8.013,8.013,0,0,0,2,9.013a7.928,7.928,0,0,0,.9,3.677,5.5,5.5,0,0,0,2.6,10.346H16.026A8.013,8.013,0,0,0,17.821,7.222Zm-1.795,13.81H5.509a3.5,3.5,0,0,1-.873-6.885,1,1,0,0,0,.555-1.566,5.995,5.995,0,1,1,10.776-4.37,1,1,0,0,0,.859.861,6.01,6.01,0,0,1-.8,11.959Z" transform="translate(1865.997 223.976)" fill="gray"/>
  </g>
</svg>
