<svg xmlns="http://www.w3.org/2000/svg" width="24" height="24" viewBox="0 0 24 24">
  <g id="Group_10794" data-name="Group 10794" transform="translate(-1866 -512)">
    <rect id="Rectangle_14012" data-name="Rectangle 14012" width="24" height="24" transform="translate(1866 512)" fill="none"/>
    <path id="flame" d="M25.95,2.9C26.737,2.231,27.562,1.53,28.4.766A2.953,2.953,0,0,1,30.781.023a2.846,2.846,0,0,1,2.033,1.3,20.379,20.379,0,0,1,2.493,6.451,6.128,6.128,0,0,0,.476-.815,2,2,0,0,1,3.3-.473,9.069,9.069,0,0,1,2.587,6.423,10.984,10.984,0,0,1-8.225,10.736A11.655,11.655,0,0,1,30.669,24c-.03,0-.349,0-.478-.012a11.062,11.062,0,0,1-10.7-11.07C19.491,8.384,22.484,5.843,25.95,2.9ZM30.694,21.99a3.767,3.767,0,0,0,2.036-.806,3.722,3.722,0,0,0,1.583-2.558c.17-1.623-.83-3.744-2.874-6.141h0a1.121,1.121,0,0,0-.857-.392h0a1.089,1.089,0,0,0-.843.39c-1.873,2.223-2.9,4.273-2.9,5.775a3.794,3.794,0,0,0,3.511,3.723A1.9,1.9,0,0,0,30.694,21.99ZM25,20.087c.059.046.124.083.184.127a5.708,5.708,0,0,1-.351-1.959c0-2.528,1.836-5.237,3.374-7.064a3.1,3.1,0,0,1,2.367-1.1h0a3.118,3.118,0,0,1,2.377,1.093h0c2.446,2.865,3.569,5.439,3.339,7.65a5.175,5.175,0,0,1-.389,1.491,9.1,9.1,0,0,0,3.759-7.415,7.064,7.064,0,0,0-2.084-5.082,8.17,8.17,0,0,1-.827,1.361,1.848,1.848,0,0,1-1.907.7A1.9,1.9,0,0,1,33.4,8.415a18.661,18.661,0,0,0-2.27-6.024.842.842,0,0,0-.609-.384.953.953,0,0,0-.77.241c-.858.78-1.7,1.5-2.5,2.178C23.909,7.262,21.5,9.31,21.5,12.916A9.036,9.036,0,0,0,25,20.089Z" transform="translate(1847.512 512.003)" fill="gray"/>
  </g>
</svg>
