<svg xmlns="http://www.w3.org/2000/svg" width="24.002" height="24" viewBox="0 0 24.002 24">
  <g id="Group_10724" data-name="Group 10724" transform="translate(3057 -3873)">
    <rect id="Rectangle_13961" data-name="Rectangle 13961" width="24" height="24" transform="translate(-3057 3873)" fill="none"/>
    <g id="following" transform="translate(-3057 3873)">
      <path id="Path_11733" data-name="Path 11733" d="M9,12A6,6,0,1,0,3,6a6,6,0,0,0,6,6ZM9,2A4,4,0,1,1,5,6,4,4,0,0,1,9,2Z" fill="gray"/>
      <path id="Path_11734" data-name="Path 11734" d="M9,14a9.011,9.011,0,0,0-9,9,1,1,0,0,0,2,0,7,7,0,1,1,14,0,1,1,0,0,0,2,0,9.011,9.011,0,0,0-9-9Z" fill="gray"/>
      <path id="Path_11735" data-name="Path 11735" d="M22,7.875a2.107,2.107,0,0,0-2,2.2,2.107,2.107,0,0,0-2-2.2,2.107,2.107,0,0,0-2,2.2c0,1.73,2.256,3.757,3.38,4.659a.992.992,0,0,0,1.24,0c1.124-.9,3.38-2.929,3.38-4.659a2.107,2.107,0,0,0-2-2.2Z" fill="gray"/>
    </g>
  </g>
</svg>
