<svg xmlns="http://www.w3.org/2000/svg" width="24" height="24" viewBox="0 0 24 24">
  <g id="Group_10791" data-name="Group 10791" transform="translate(-1866 -458)">
    <rect id="Rectangle_14012" data-name="Rectangle 14012" width="24" height="24" transform="translate(1866 458)" fill="none"/>
    <g id="fi-rr-stats" transform="translate(1866 458)">
      <path id="Path_948" data-name="Path 948" d="M23,22H3a1,1,0,0,1-1-1V1A1,1,0,1,0,0,1V21a3,3,0,0,0,3,3H23a1,1,0,0,0,0-2Z" fill="gray"/>
      <path id="Path_949" data-name="Path 949" d="M15,20a1,1,0,0,0,1-1V12a1,1,0,0,0-2,0v7A1,1,0,0,0,15,20Z" fill="gray"/>
      <path id="Path_950" data-name="Path 950" d="M7,20a1,1,0,0,0,1-1V12a1,1,0,0,0-2,0v7A1,1,0,0,0,7,20Z" fill="gray"/>
      <path id="Path_951" data-name="Path 951" d="M19,20a1,1,0,0,0,1-1V7a1,1,0,0,0-2,0V19A1,1,0,0,0,19,20Z" fill="gray"/>
      <path id="Path_952" data-name="Path 952" d="M11,20a1,1,0,0,0,1-1V7a1,1,0,0,0-2,0V19A1,1,0,0,0,11,20Z" fill="gray"/>
    </g>
  </g>
</svg>
