<svg xmlns="http://www.w3.org/2000/svg" width="86" height="90" viewBox="0 0 86 90">
  <g id="donwload" transform="translate(-596 -897)">
    <rect id="Rectangle_14042" data-name="Rectangle 14042" width="86" height="90" rx="6" transform="translate(596 897)" fill="#00db8b" opacity="0.1"/>
    <g id="svgexport-10" transform="translate(618.084 913.441)">
      <g id="Group_55608" data-name="Group 55608" transform="translate(0 0)">
        <g id="Group_55607" data-name="Group 55607" transform="translate(10.042 17.537)">
          <g id="Group_55605" data-name="Group 55605" transform="translate(0 19.706)">
            <g id="Group_55604" data-name="Group 55604">
              <g id="Group_55603" data-name="Group 55603">
                <g id="Group_55602" data-name="Group 55602">
                  <path id="Path_11892" data-name="Path 11892" d="M175.993,340.571h-16.4a2.286,2.286,0,0,1-2.283-2.283v-2.9a.835.835,0,1,1,1.67,0v2.9a.614.614,0,0,0,.613.613h16.4a.614.614,0,0,0,.613-.613v-2.9a.835.835,0,1,1,1.67,0v2.9a2.286,2.286,0,0,1-2.283,2.283Z" transform="translate(-157.305 -334.555)" fill="#00db8b"/>
                </g>
              </g>
            </g>
          </g>
          <g id="Group_55606" data-name="Group 55606" transform="translate(0)">
            <path id="Path_11893" data-name="Path 11893" d="M167.795,177.932a1.419,1.419,0,0,1-1.006-.416l-9.061-9.061a1.423,1.423,0,0,1,1.007-2.43h4.305V164.4a.835.835,0,0,1,1.67,0v1.872a1.425,1.425,0,0,1-1.423,1.423h-3.956l8.465,8.465,8.465-8.465H172.3a1.425,1.425,0,0,1-1.423-1.423v-7.063h-6.171V160.5a.835.835,0,0,1-1.67,0v-1.535a1.425,1.425,0,0,1,1.423-1.423h6.665a1.425,1.425,0,0,1,1.423,1.423v7.063h4.305a1.423,1.423,0,0,1,1.006,2.43l-9.061,9.061A1.421,1.421,0,0,1,167.795,177.932Z" transform="translate(-157.309 -157.538)" fill="#00db8b"/>
          </g>
        </g>
        <path id="Path_11894" data-name="Path 11894" d="M108.089,9.717,99.441,1.07A3.627,3.627,0,0,0,96.858,0h-25.2A4.558,4.558,0,0,0,67.1,4.553V52.444A4.558,4.558,0,0,0,71.654,57h32.951a4.558,4.558,0,0,0,4.553-4.553V12.3a3.629,3.629,0,0,0-1.07-2.582Zm-1.782.58h-4.564A2.886,2.886,0,0,1,98.86,7.415V2.851Zm1.181,42.146a2.886,2.886,0,0,1-2.883,2.883H71.654a2.886,2.886,0,0,1-2.883-2.883V4.553A2.886,2.886,0,0,1,71.654,1.67h25.2a2,2,0,0,1,.332.03V7.415a4.558,4.558,0,0,0,4.553,4.553h5.715a2,2,0,0,1,.03.332Z" transform="translate(-67.101 0)" fill="#00db8b"/>
      </g>
    </g>
  </g>
</svg>
