<svg width="87" height="87" viewBox="0 0 87 87" fill="none" xmlns="http://www.w3.org/2000/svg">
<path opacity="0.16" d="M80.04 0H6.96C3.1161 0 0 3.1161 0 6.96V80.04C0 83.8839 3.1161 87 6.96 87H80.04C83.8839 87 87 83.8839 87 80.04V6.96C87 3.1161 83.8839 0 80.04 0Z" fill="#094E81"/>
<path d="M64.9236 48.3722V50.5472C64.9236 51.1344 64.4669 51.6129 63.8579 51.6347H60.6824C59.5296 51.6347 58.4856 50.7864 58.3986 49.6554C58.3334 48.9812 58.5944 48.3504 59.0294 47.9154C59.4209 47.5022 59.9646 47.2847 60.5519 47.2847H63.8361C64.4669 47.3064 64.9236 47.7849 64.9236 48.3722Z" fill="#094E81"/>
<path d="M57.3981 46.3059C56.3106 47.3717 55.7886 48.9594 56.2236 50.6124C56.7891 52.6352 58.7684 53.9184 60.8564 53.9184H62.7486C63.9449 53.9184 64.9236 54.8972 64.9236 56.0934V56.5067C64.9236 61.0089 61.2479 64.6847 56.7456 64.6847H31.7766C27.2744 64.6847 23.5986 61.0089 23.5986 56.5067V41.8689C23.5986 39.1937 24.8819 36.8229 26.8611 35.3439C28.2314 34.2999 29.9279 33.6909 31.7766 33.6909H56.7456C61.2479 33.6909 64.9236 37.3667 64.9236 41.8689V42.8259C64.9236 44.0222 63.9449 45.0009 62.7486 45.0009H60.5301C59.3121 45.0009 58.2029 45.4794 57.3981 46.3059Z" fill="#094E81"/>
<path d="M53.5048 29.1887C54.092 29.7759 53.5918 30.6894 52.7653 30.6894L36.0613 30.6677C35.1043 30.6677 34.604 29.4932 35.3 28.8189L38.8235 25.2737C41.8033 22.3157 46.6318 22.3157 49.6115 25.2737L53.4178 29.1234C53.4395 29.1452 53.483 29.1669 53.5048 29.1887Z" fill="#094E81"/>
</svg>
