<svg width="87" height="87" viewBox="0 0 87 87" fill="none" xmlns="http://www.w3.org/2000/svg">
<path opacity="0.16" d="M80.04 0H6.96C3.1161 0 0 3.1161 0 6.96V80.04C0 83.8839 3.1161 87 6.96 87H80.04C83.8839 87 87 83.8839 87 80.04V6.96C87 3.1161 83.8839 0 80.04 0Z" fill="#094E81"/>
<path d="M59.9648 33.1471C59.0295 28.4273 55.5278 26.3611 50.6558 26.3611H31.5593C25.8173 26.3611 21.9893 29.2321 21.9893 35.9311V47.1323C21.9893 51.9608 23.9685 54.7883 27.231 56.0063C27.7095 56.1803 28.2315 56.3326 28.7753 56.4196C29.6453 56.6153 30.5805 56.7023 31.5593 56.7023H50.6775C56.4195 56.7023 60.2475 53.8313 60.2475 47.1323V35.9311C60.2475 34.9088 60.1605 33.9953 59.9648 33.1471ZM30.2978 44.8051C30.2978 45.6968 29.5583 46.4363 28.6665 46.4363C27.7748 46.4363 27.0353 45.6968 27.0353 44.8051V38.2801C27.0353 37.3883 27.7748 36.6488 28.6665 36.6488C29.5583 36.6488 30.2978 37.3883 30.2978 38.2801V44.8051ZM41.1075 47.2846C37.932 47.2846 35.3655 44.7181 35.3655 41.5426C35.3655 38.3671 37.932 35.8006 41.1075 35.8006C44.283 35.8006 46.8495 38.3671 46.8495 41.5426C46.8495 44.7181 44.283 47.2846 41.1075 47.2846ZM55.158 44.8051C55.158 45.6968 54.4185 46.4363 53.5268 46.4363C52.635 46.4363 51.8955 45.6968 51.8955 44.8051V38.2801C51.8955 37.3883 52.635 36.6488 53.5268 36.6488C54.4185 36.6488 55.158 37.3883 55.158 38.2801V44.8051Z" fill="#094E81"/>
<path d="M66.7724 42.456V53.6572C66.7724 60.3562 62.9444 63.249 57.1806 63.249H38.0841C36.4529 63.249 34.9956 63.0098 33.7341 62.5312C32.7119 62.1615 31.8201 61.6178 31.1024 60.9217C30.7109 60.552 31.0154 59.9647 31.5591 59.9647H50.6556C58.7031 59.9647 63.4881 55.1797 63.4881 47.154V35.931C63.4881 35.409 64.0754 35.0827 64.4451 35.4742C65.9241 37.0402 66.7724 39.324 66.7724 42.456Z" fill="#094E81"/>
</svg>
