<svg width="87" height="87" viewBox="0 0 87 87" fill="none" xmlns="http://www.w3.org/2000/svg">
<path opacity="0.16" d="M80.04 0H6.96C3.1161 0 0 3.1161 0 6.96V80.04C0 83.8839 3.1161 87 6.96 87H80.04C83.8839 87 87 83.8839 87 80.04V6.96C87 3.1161 83.8839 0 80.04 0Z" fill="#094E81"/>
<path d="M29.1448 51.3301C24.3381 51.3301 20.4448 55.2233 20.4448 60.0301C20.4448 61.6613 20.9016 63.2056 21.7063 64.5106C23.2071 67.0336 25.9693 68.7301 29.1448 68.7301C32.3203 68.7301 35.0826 67.0336 36.5833 64.5106C37.3881 63.2056 37.8448 61.6613 37.8448 60.0301C37.8448 55.2233 33.9516 51.3301 29.1448 51.3301ZM32.3856 61.6178H30.7761V63.3143C30.7761 64.2061 30.0366 64.9456 29.1448 64.9456C28.2531 64.9456 27.5136 64.2061 27.5136 63.3143V61.6178H25.9041C25.0123 61.6178 24.2728 60.8783 24.2728 59.9866C24.2728 59.0948 25.0123 58.3553 25.9041 58.3553H27.5136V56.8111C27.5136 55.9193 28.2531 55.1798 29.1448 55.1798C30.0366 55.1798 30.7761 55.9193 30.7761 56.8111V58.3553H32.3856C33.2773 58.3553 34.0168 59.0948 34.0168 59.9866C34.0168 60.8783 33.2991 61.6178 32.3856 61.6178Z" fill="#094E81"/>
<path d="M65.0326 45.8926H59.5951C57.2026 45.8926 55.2451 47.8501 55.2451 50.2426C55.2451 52.6351 57.2026 54.5926 59.5951 54.5926H65.0326C65.6416 54.5926 66.1201 54.1141 66.1201 53.5051V46.9801C66.1201 46.3711 65.6416 45.8926 65.0326 45.8926Z" fill="#094E81"/>
<path d="M54.2228 30.45C54.8753 31.0807 54.3315 32.0595 53.418 32.0595L35.409 32.0377C34.365 32.0377 33.843 30.7762 34.5825 30.0367L38.3888 26.2087C41.6078 23.0115 46.806 23.0115 50.025 26.2087L54.1358 30.363C54.1575 30.3847 54.201 30.4282 54.2228 30.45Z" fill="#094E81"/>
<path d="M65.8374 59.2907C64.5106 63.7712 60.6826 66.5552 55.4626 66.5552H41.3251C40.4769 66.5552 39.9331 65.6199 40.2811 64.8369C40.9336 63.3144 41.3469 61.5962 41.3469 60.0302C41.3469 53.4399 35.9746 48.0677 29.3844 48.0677C27.7314 48.0677 26.1219 48.4157 24.6429 49.0682C23.8381 49.4162 22.8594 48.8724 22.8594 48.0024V44.8052C22.8594 38.8892 26.4264 34.7567 31.9726 34.0607C32.5164 33.9737 33.1036 33.9302 33.7126 33.9302H55.4626C56.0281 33.9302 56.5719 33.9519 57.0939 34.0389C61.4874 34.5392 64.6629 37.2144 65.8374 41.1947C66.0549 41.9124 65.5329 42.6302 64.7934 42.6302H59.8126C55.0929 42.6302 51.3519 46.9367 52.3741 51.8304C53.0919 55.3974 56.3979 57.8552 60.0301 57.8552H64.7934C65.5546 57.8552 66.0549 58.5947 65.8374 59.2907Z" fill="#094E81"/>
</svg>
