<svg width="24" height="24" viewBox="0 0 24 24" fill="none" xmlns="http://www.w3.org/2000/svg">
<path d="M7 5C7 4.20435 7.31607 3.44129 7.87868 2.87868C8.44129 2.31607 9.20435 2 10 2H14C14.7956 2 15.5587 2.31607 16.1213 2.87868C16.6839 3.44129 17 4.20435 17 5C17 5.26522 16.8946 5.51957 16.7071 5.70711C16.5196 5.89464 16.2652 6 16 6H8C7.73478 6 7.48043 5.89464 7.29289 5.70711C7.10536 5.51957 7 5.26522 7 5Z" fill="#5FAD51"/>
<path d="M17.75 15C17.7487 15.1985 17.6693 15.3885 17.5289 15.5289C17.3885 15.6693 17.1985 15.7487 17 15.75H16V19C16 19.7956 15.6839 20.5587 15.1213 21.1213C14.5587 21.6839 13.7956 22 13 22H11C10.2044 22 9.44129 21.6839 8.87868 21.1213C8.31607 20.5587 8 19.7956 8 19V15.75H7C6.80149 15.7487 6.61149 15.6693 6.47112 15.5289C6.33075 15.3885 6.25131 15.1985 6.25 15C6.25131 14.8015 6.33075 14.6115 6.47112 14.4711C6.61149 14.3307 6.80149 14.2513 7 14.25H17C17.1985 14.2513 17.3885 14.3307 17.5289 14.4711C17.6693 14.6115 17.7487 14.8015 17.75 15Z" fill="#5FAD51"/>
<path d="M18.0002 6.99998H6.00022C5.59272 6.94184 5.17727 6.97935 4.78678 7.10955C4.39628 7.23976 4.04145 7.45907 3.75039 7.75014C3.45932 8.04121 3.24 8.39604 3.1098 8.78653C2.9796 9.17703 2.94208 9.59247 3.00022 9.99998V15C2.94208 15.4075 2.9796 15.8229 3.1098 16.2134C3.24 16.6039 3.45932 16.9587 3.75039 17.2498C4.04145 17.5409 4.39628 17.7602 4.78678 17.8904C5.17727 18.0206 5.59272 18.0581 6.00022 18H7.00022V16.75C6.53609 16.75 6.09097 16.5656 5.76278 16.2374C5.4346 15.9092 5.25022 15.4641 5.25022 15C5.25022 14.5358 5.4346 14.0907 5.76278 13.7625C6.09097 13.4344 6.53609 13.25 7.00022 13.25H17.0002C17.4643 13.25 17.9095 13.4344 18.2377 13.7625C18.5658 14.0907 18.7502 14.5358 18.7502 15C18.7502 15.4641 18.5658 15.9092 18.2377 16.2374C17.9095 16.5656 17.4643 16.75 17.0002 16.75V18H18.0002C18.4077 18.0581 18.8232 18.0206 19.2137 17.8904C19.6042 17.7602 19.959 17.5409 20.2501 17.2498C20.5411 16.9587 20.7604 16.6039 20.8906 16.2134C21.0208 15.8229 21.0584 15.4075 21.0002 15V9.99998C21.0584 9.59247 21.0208 9.17703 20.8906 8.78653C20.7604 8.39604 20.5411 8.04121 20.2501 7.75014C19.959 7.45907 19.6042 7.23976 19.2137 7.10955C18.8232 6.97935 18.4077 6.94184 18.0002 6.99998ZM10.0002 11.75H7.00022C6.80131 11.75 6.61054 11.671 6.46989 11.5303C6.32924 11.3897 6.25022 11.1989 6.25022 11C6.25022 10.8011 6.32924 10.6103 6.46989 10.4696C6.61054 10.329 6.80131 10.25 7.00022 10.25H10.0002C10.1991 10.25 10.3899 10.329 10.5306 10.4696C10.6712 10.6103 10.7502 10.8011 10.7502 11C10.7502 11.1989 10.6712 11.3897 10.5306 11.5303C10.3899 11.671 10.1991 11.75 10.0002 11.75Z" fill="#5FAD51"/>
</svg>
