<svg width="37" height="37" viewBox="0 0 37 37" fill="none" xmlns="http://www.w3.org/2000/svg">
<path d="M32.7749 20.8599V22.3599C32.7749 22.7649 32.4599 23.0949 32.0399 23.1099H29.8499C29.0549 23.1099 28.3349 22.5249 28.2749 21.7449C28.2299 21.2799 28.4099 20.8449 28.7099 20.5449C28.9799 20.2599 29.3549 20.1099 29.7599 20.1099H32.0249C32.4599 20.1249 32.7749 20.4549 32.7749 20.8599Z" fill="#094E81"/>
<path d="M27.5849 19.4349C26.8349 20.1699 26.4749 21.2649 26.7749 22.4049C27.1649 23.7999 28.5299 24.6849 29.9699 24.6849H31.2749C32.0999 24.6849 32.7749 25.3599 32.7749 26.1849V26.4699C32.7749 29.5749 30.2399 32.1099 27.1349 32.1099H9.9149C6.8099 32.1099 4.2749 29.5749 4.2749 26.4699V16.3749C4.2749 14.5299 5.1599 12.8949 6.5249 11.8749C7.4699 11.1549 8.6399 10.7349 9.9149 10.7349H27.1349C30.2399 10.7349 32.7749 13.2699 32.7749 16.3749V17.0349C32.7749 17.8599 32.0999 18.5349 31.2749 18.5349H29.7449C28.9049 18.5349 28.1399 18.8649 27.5849 19.4349Z" fill="#094E81"/>
<path d="M24.9002 7.6299C25.3052 8.0349 24.9602 8.6649 24.3902 8.6649L12.8702 8.6499C12.2102 8.6499 11.8652 7.8399 12.3452 7.3749L14.7752 4.9299C16.8302 2.8899 20.1602 2.8899 22.2152 4.9299L24.8402 7.5849C24.8552 7.5999 24.8852 7.6149 24.9002 7.6299Z" fill="#094E81"/>
</svg>
