<svg width="37" height="37" viewBox="0 0 37 37" fill="none" xmlns="http://www.w3.org/2000/svg">
<path d="M13.0352 9.8349C12.4052 9.8349 11.9102 9.3249 11.9102 8.7099V4.5249C11.9102 3.9099 12.4052 3.3999 13.0352 3.3999C13.6652 3.3999 14.1602 3.9099 14.1602 4.5249V8.6949C14.1602 9.3249 13.6652 9.8349 13.0352 9.8349Z" fill="#094E81"/>
<path d="M24.165 9.8349C23.535 9.8349 23.04 9.3249 23.04 8.7099V4.5249C23.04 3.8949 23.55 3.3999 24.165 3.3999C24.795 3.3999 25.29 3.9099 25.29 4.5249V8.6949C25.29 9.3249 24.795 9.8349 24.165 9.8349Z" fill="#094E81"/>
<path d="M29.9551 7.1499C28.9651 6.4149 27.5401 7.1199 27.5401 8.3649V8.5149C27.5401 10.2699 26.2801 11.8899 24.5251 12.0699C22.5001 12.2799 20.7901 10.6899 20.7901 8.7099V7.1499C20.7901 6.3249 20.1151 5.6499 19.2901 5.6499H17.9101C17.0851 5.6499 16.4101 6.3249 16.4101 7.1499V8.7099C16.4101 9.8949 15.7951 10.9449 14.8651 11.5299C14.7301 11.6199 14.5801 11.6949 14.4301 11.7699C14.2951 11.8449 14.1451 11.9049 13.9801 11.9499C13.8001 12.0099 13.6051 12.0549 13.3951 12.0699C13.1551 12.0999 12.9151 12.0999 12.6751 12.0699C12.4651 12.0549 12.2701 12.0099 12.0901 11.9499C11.9401 11.9049 11.7901 11.8449 11.6401 11.7699C11.4901 11.6949 11.3401 11.6199 11.2051 11.5299C10.2601 10.8699 9.6601 9.7299 9.6601 8.5149V8.3649C9.6601 7.2099 8.4301 6.5199 7.4551 7.0149C7.4401 7.0299 7.4251 7.0299 7.4101 7.0449C7.3501 7.0749 7.3051 7.1049 7.2451 7.1499C7.2001 7.1949 7.1401 7.2249 7.0951 7.2699C6.6751 7.5999 6.3001 7.9749 5.9851 8.3799C5.8201 8.5599 5.6851 8.7549 5.5651 8.9499C5.5501 8.9649 5.5351 8.9799 5.5201 9.0099C5.3851 9.2049 5.2651 9.4299 5.1601 9.6399C5.1301 9.6699 5.1151 9.6849 5.1151 9.7149C5.0251 9.8949 4.9351 10.0749 4.8751 10.2699C4.8301 10.3449 4.8151 10.4049 4.7851 10.4799C4.6951 10.7049 4.6351 10.9299 4.5751 11.1549C4.5151 11.3649 4.4701 11.5899 4.4401 11.8149C4.4101 11.9799 4.3951 12.1449 4.3801 12.3249C4.3651 12.5349 4.3501 12.7449 4.3501 12.9549V26.0949C4.3501 30.1299 7.6201 33.3999 11.6551 33.3999H25.5451C29.5801 33.3999 32.8501 30.1299 32.8501 26.0949V12.9549C32.8501 10.5699 31.7101 8.4849 29.9551 7.1499ZM18.6001 26.5299H11.6401C11.0251 26.5299 10.5151 26.0199 10.5151 25.4049C10.5151 24.7749 11.0251 24.2649 11.6401 24.2649H18.6001C19.2301 24.2649 19.7251 24.7749 19.7251 25.4049C19.7251 26.0199 19.2301 26.5299 18.6001 26.5299ZM22.7701 20.9649H11.6401C11.0251 20.9649 10.5151 20.4549 10.5151 19.8399C10.5151 19.2099 11.0251 18.6999 11.6401 18.6999H22.7701C23.4001 18.6999 23.9101 19.2099 23.9101 19.8399C23.9101 20.4549 23.4001 20.9649 22.7701 20.9649Z" fill="#094E81"/>
</svg>
