<svg width="37" height="37" viewBox="0 0 37 37" fill="none" xmlns="http://www.w3.org/2000/svg">
<path d="M11.1001 3.3999H9.6001C5.1001 3.3999 3.6001 6.0849 3.6001 9.3999V10.8999V31.8999C3.6001 33.1449 5.0101 33.8499 6.0001 33.0999L8.5651 31.1799C9.1651 30.7299 10.0051 30.7899 10.5451 31.3299L13.0351 33.8349C13.6201 34.4199 14.5801 34.4199 15.1651 33.8349L17.6851 31.3149C18.2101 30.7899 19.0501 30.7299 19.6351 31.1799L22.2001 33.0999C23.1901 33.8349 24.6001 33.1299 24.6001 31.8999V6.3999C24.6001 4.7499 25.9501 3.3999 27.6001 3.3999H11.1001ZM17.4751 21.0249H10.7251C10.1101 21.0249 9.6001 20.5149 9.6001 19.8999C9.6001 19.2849 10.1101 18.7749 10.7251 18.7749H17.4751C18.0901 18.7749 18.6001 19.2849 18.6001 19.8999C18.6001 20.5149 18.0901 21.0249 17.4751 21.0249ZM18.6001 15.0249H9.6001C8.9851 15.0249 8.4751 14.5149 8.4751 13.8999C8.4751 13.2849 8.9851 12.7749 9.6001 12.7749H18.6001C19.2151 12.7749 19.7251 13.2849 19.7251 13.8999C19.7251 14.5149 19.2151 15.0249 18.6001 15.0249Z" fill="#094E81"/>
<path d="M27.6151 3.3999V5.6499C28.6051 5.6499 29.5501 6.0549 30.2401 6.7299C30.9601 7.4649 31.3501 8.4099 31.3501 9.3999V13.0299C31.3501 14.1399 30.8551 14.6499 29.7301 14.6499H26.8501V6.4149C26.8501 5.9949 27.1951 5.6499 27.6151 5.6499V3.3999ZM27.6151 3.3999C25.9501 3.3999 24.6001 4.7499 24.6001 6.4149V16.8999H29.7301C32.1001 16.8999 33.6001 15.3999 33.6001 13.0299V9.3999C33.6001 7.7499 32.9251 6.2499 31.8451 5.1549C30.7501 4.0749 29.2651 3.4149 27.6151 3.3999C27.6151 3.3999 27.6301 3.3999 27.6151 3.3999Z" fill="#094E81"/>
</svg>
