<svg width="87" height="87" viewBox="0 0 87 87" fill="none" xmlns="http://www.w3.org/2000/svg">
<path opacity="0.16" d="M80.04 0H6.96C3.1161 0 0 3.1161 0 6.96V80.04C0 83.8839 3.1161 87 6.96 87H80.04C83.8839 87 87 83.8839 87 80.04V6.96C87 3.1161 83.8839 0 80.04 0Z" fill="#094E81"/>
<path d="M56.3978 35.6047C56.2455 35.5829 56.0933 35.5829 55.941 35.6047C52.5698 35.4959 49.8945 32.7337 49.8945 29.3407C49.8945 25.8824 52.7003 23.0549 56.1803 23.0549C59.6385 23.0549 62.466 25.8607 62.466 29.3407C62.4443 32.7337 59.769 35.4959 56.3978 35.6047Z" fill="#094E81"/>
<path d="M63.4883 50.6775C61.0523 52.3087 57.6375 52.9177 54.4837 52.5045C55.3102 50.721 55.7452 48.7417 55.767 46.6537C55.767 44.4787 55.2885 42.4125 54.375 40.6072C57.594 40.1722 61.0088 40.7812 63.4665 42.4125C66.903 44.6745 66.903 48.3937 63.4883 50.6775Z" fill="#094E81"/>
<path d="M32.277 35.6047C32.4292 35.5829 32.5815 35.5829 32.7337 35.6047C36.105 35.4959 38.7802 32.7337 38.7802 29.3407C38.7802 25.8607 35.9745 23.0549 32.4945 23.0549C29.0362 23.0549 26.2305 25.8607 26.2305 29.3407C26.2305 32.7337 28.9057 35.4959 32.277 35.6047Z" fill="#094E81"/>
<path d="M32.5165 46.6537C32.5165 48.7635 32.9732 50.7645 33.7997 52.5697C30.733 52.896 27.5357 52.2435 25.1868 50.6992C21.7503 48.4155 21.7503 44.6962 25.1868 42.4125C27.514 40.8465 30.7983 40.2157 33.8867 40.5637C32.995 42.3907 32.5165 44.457 32.5165 46.6537Z" fill="#094E81"/>
<path d="M44.631 53.2222C44.457 53.2004 44.2612 53.2004 44.0655 53.2222C40.0635 53.0917 36.8662 49.8074 36.8662 45.7619C36.888 41.6294 40.2157 38.2799 44.37 38.2799C48.5025 38.2799 51.852 41.6294 51.852 45.7619C51.8302 49.8074 48.6547 53.0917 44.631 53.2222Z" fill="#094E81"/>
<path d="M37.5623 57.7244C34.2781 59.9212 34.2781 63.5317 37.5623 65.7067C41.3033 68.2079 47.4368 68.2079 51.1778 65.7067C54.4621 63.5099 54.4621 59.8994 51.1778 57.7244C47.4586 55.2232 41.3251 55.2232 37.5623 57.7244Z" fill="#094E81"/>
</svg>
