<svg width="87" height="87" viewBox="0 0 87 87" fill="none" xmlns="http://www.w3.org/2000/svg">
<path opacity="0.16" d="M80.04 0H6.96C3.1161 0 0 3.1161 0 6.96V80.04C0 83.8839 3.1161 87 6.96 87H80.04C83.8839 87 87 83.8839 87 80.04V6.96C87 3.1161 83.8839 0 80.04 0Z" fill="#094E81"/>
<path d="M41.3251 27.7312C41.3251 28.1444 40.9771 28.4924 40.5639 28.4924H38.1061C33.4081 28.4924 29.5801 32.3204 29.5801 37.0184V57.0937C29.5801 57.5069 29.2321 57.8549 28.8189 57.8549H27.2964C24.7081 57.8549 22.6201 55.7669 22.6201 53.1787V27.7312C22.6201 25.1429 24.7081 23.0549 27.2964 23.0549H36.6489C39.2371 23.0549 41.3251 25.1429 41.3251 27.7312Z" fill="#094E81"/>
<path d="M66.12 27.7312V53.1787C66.12 55.7669 64.032 57.8549 61.4438 57.8549H60.0735C59.6603 57.8549 59.3123 57.5069 59.3123 57.0937V37.0184C59.3123 32.3204 55.4843 28.4924 50.7863 28.4924H48.1763C47.763 28.4924 47.415 28.1444 47.415 27.7312C47.415 25.1429 49.503 23.0549 52.0913 23.0549H61.4438C64.032 23.0549 66.12 25.1429 66.12 27.7312Z" fill="#094E81"/>
<path d="M50.786 31.755H38.1058C35.1913 31.755 32.8423 34.104 32.8423 37.0185V61.2915C32.8423 64.206 35.1913 66.555 38.1058 66.555H41.651C42.26 66.555 42.7385 66.0765 42.7385 65.4675V60.03C42.7385 59.1383 43.478 58.3988 44.3698 58.3988C45.2615 58.3988 46.001 59.1383 46.001 60.03V65.4675C46.001 66.0765 46.4795 66.555 47.0885 66.555H50.8078C53.7005 66.555 56.0495 64.206 56.0495 61.3133V37.0185C56.0495 34.104 53.7005 31.755 50.786 31.755ZM48.7198 50.7863H40.0198C39.128 50.7863 38.3885 50.0468 38.3885 49.155C38.3885 48.2633 39.128 47.5238 40.0198 47.5238H48.7198C49.6115 47.5238 50.351 48.2633 50.351 49.155C50.351 50.0468 49.6115 50.7863 48.7198 50.7863ZM48.7198 44.2613H40.0198C39.128 44.2613 38.3885 43.5218 38.3885 42.63C38.3885 41.7383 39.128 40.9988 40.0198 40.9988H48.7198C49.6115 40.9988 50.351 41.7383 50.351 42.63C50.351 43.5218 49.6115 44.2613 48.7198 44.2613Z" fill="#094E81"/>
</svg>
