<svg xmlns="http://www.w3.org/2000/svg" width="24" height="24" viewBox="0 0 24 24">
  <g id="Group_10793" data-name="Group 10793" transform="translate(-1866 -674)">
    <rect id="Rectangle_14012" data-name="Rectangle 14012" width="24" height="24" transform="translate(1866 674)" fill="none"/>
    <path id="headset" d="M21,12.424V11A9,9,0,0,0,3,11v1.424A5,5,0,0,0,5,22a2,2,0,0,0,2-2V14a2,2,0,0,0-2-2V11a7,7,0,0,1,14,0v1a2,2,0,0,0-2,2v6H14a1,1,0,0,0,0,2h5a5,5,0,0,0,2-9.576ZM5,20H5a3,3,0,0,1,0-6Zm14,0V14a3,3,0,0,1,0,6Z" transform="translate(1865.986 674)" fill="gray"/>
  </g>
</svg>
