<svg xmlns="http://www.w3.org/2000/svg" width="86" height="90" viewBox="0 0 86 90">
  <g id="earn" transform="translate(-76 -897)">
    <rect id="Rectangle_14043" data-name="Rectangle 14043" width="86" height="90" rx="6" transform="translate(76 897)" fill="#1c92ed" opacity="0.1"/>
    <g id="svgexport-6" transform="translate(94.352 918.26)">
      <path id="Path_11898" data-name="Path 11898" d="M2.111,325.383h9.567a2.113,2.113,0,0,0,2.111-2.111v-1.293a2.105,2.105,0,0,1,0-2.768v-1.293a2.105,2.105,0,0,1,0-2.768v-1.293a2.106,2.106,0,0,1,0-2.768v-1.293a2.113,2.113,0,0,0-2.111-2.111H8.591a.727.727,0,1,0,0,1.454h3.086a.658.658,0,0,1,.657.657v1.293a.658.658,0,0,1-.657.657H2.111a.658.658,0,0,1-.657-.657v-1.293a.658.658,0,0,1,.657-.657H5.2a.727.727,0,1,0,0-1.454H2.111A2.113,2.113,0,0,0,0,309.795v1.293a2.105,2.105,0,0,1,0,2.768v1.293a2.106,2.106,0,0,1,0,2.768v1.293a2.105,2.105,0,0,1,0,2.768v1.293a2.114,2.114,0,0,0,2.111,2.111Zm-.657-11.527a.657.657,0,0,1,.657-.657h9.567a.657.657,0,0,1,.657.657v1.293a.658.658,0,0,1-.657.657H2.111a.658.658,0,0,1-.657-.657Zm0,4.062a.658.658,0,0,1,.657-.657h9.567a.658.658,0,0,1,.657.657v1.293a.657.657,0,0,1-.657.657H2.111a.657.657,0,0,1-.657-.657Zm0,4.061a.657.657,0,0,1,.657-.657h9.567a.657.657,0,0,1,.657.657v1.293a.658.658,0,0,1-.657.657H2.111a.658.658,0,0,1-.657-.657Zm0,0" transform="translate(0 -277.903)" fill="#1c92ed"/>
      <path id="Path_11899" data-name="Path 11899" d="M196.564,223.9H187a2.114,2.114,0,0,0-2.111,2.111V227.3a2.1,2.1,0,0,0,.519,1.384,2.1,2.1,0,0,0-.519,1.384v1.293a2.1,2.1,0,0,0,.519,1.384,2.1,2.1,0,0,0-.519,1.384v1.293a2.1,2.1,0,0,0,.519,1.384,2.1,2.1,0,0,0-.519,1.384v1.293a2.1,2.1,0,0,0,.519,1.384,2.1,2.1,0,0,0-.519,1.384v1.293a2.1,2.1,0,0,0,.519,1.384,2.1,2.1,0,0,0-.519,1.384v1.293A2.113,2.113,0,0,0,187,249.72h9.566a2.113,2.113,0,0,0,2.111-2.111v-1.293a2.1,2.1,0,0,0-.519-1.384,2.1,2.1,0,0,0,.519-1.384v-1.293a2.1,2.1,0,0,0-.519-1.384,2.1,2.1,0,0,0,.519-1.384v-1.293a2.1,2.1,0,0,0-.519-1.384,2.1,2.1,0,0,0,.519-1.384v-1.293a2.1,2.1,0,0,0-.519-1.384,2.1,2.1,0,0,0,.519-1.384v-1.293a2.1,2.1,0,0,0-.519-1.384,2.1,2.1,0,0,0,.519-1.384v-1.293A2.114,2.114,0,0,0,196.564,223.9Zm.657,23.711a.658.658,0,0,1-.657.657H187a.658.658,0,0,1-.657-.657v-1.293a.657.657,0,0,1,.657-.657h9.566a.658.658,0,0,1,.657.657Zm0-4.061a.658.658,0,0,1-.657.657H187a.657.657,0,0,1-.657-.657v-1.293A.658.658,0,0,1,187,241.6h9.566a.658.658,0,0,1,.657.657Zm0-4.062a.658.658,0,0,1-.657.657H187a.658.658,0,0,1-.657-.657v-1.293a.657.657,0,0,1,.657-.657h9.566a.658.658,0,0,1,.657.657Zm0-4.061a.658.658,0,0,1-.657.657H187a.658.658,0,0,1-.657-.657v-1.293a.657.657,0,0,1,.657-.657h9.566a.658.658,0,0,1,.657.657Zm0-4.061a.658.658,0,0,1-.657.657H187a.657.657,0,0,1-.657-.657v-1.293a.658.658,0,0,1,.657-.657h9.566a.658.658,0,0,1,.657.657Zm0-4.061a.658.658,0,0,1-.657.657H187a.657.657,0,0,1-.657-.657v-1.293a.658.658,0,0,1,.657-.657h9.566a.658.658,0,0,1,.657.657Zm0,0" transform="translate(-166.962 -202.24)" fill="#1c92ed"/>
      <path id="Path_11900" data-name="Path 11900" d="M381.451,140.113h-9.566a2.114,2.114,0,0,0-2.111,2.111v1.293a2.1,2.1,0,0,0,.519,1.384,2.1,2.1,0,0,0-.519,1.384v1.293a2.1,2.1,0,0,0,.519,1.384,2.1,2.1,0,0,0-.519,1.384v1.293a2.1,2.1,0,0,0,.519,1.384,2.1,2.1,0,0,0-.519,1.384V155.7a2.1,2.1,0,0,0,.519,1.384,2.1,2.1,0,0,0-.519,1.384v1.293a2.1,2.1,0,0,0,.519,1.384,2.1,2.1,0,0,0-.519,1.384v1.293a2.1,2.1,0,0,0,.519,1.384,2.1,2.1,0,0,0-.519,1.384v1.293a2.1,2.1,0,0,0,.519,1.384,2.1,2.1,0,0,0-.519,1.384v1.293a2.113,2.113,0,0,0,2.111,2.111h3.086a.727.727,0,1,0,0-1.454h-3.086a.657.657,0,0,1-.657-.657v-1.293a.657.657,0,0,1,.657-.657h9.566a.658.658,0,0,1,.657.657v1.293a.658.658,0,0,1-.657.657h-3.086a.727.727,0,0,0,0,1.454h3.086a2.114,2.114,0,0,0,2.111-2.111v-1.293a2.1,2.1,0,0,0-.519-1.384,2.1,2.1,0,0,0,.519-1.384v-1.293a2.1,2.1,0,0,0-.519-1.384,2.1,2.1,0,0,0,.519-1.384v-1.293a2.1,2.1,0,0,0-.519-1.384,2.1,2.1,0,0,0,.519-1.384V158.47a2.1,2.1,0,0,0-.519-1.384,2.1,2.1,0,0,0,.519-1.384v-1.293a2.1,2.1,0,0,0-.519-1.384,2.1,2.1,0,0,0,.519-1.384v-1.293a2.1,2.1,0,0,0-.519-1.384,2.1,2.1,0,0,0,.519-1.384v-1.293a2.1,2.1,0,0,0-.519-1.384,2.1,2.1,0,0,0,.519-1.384v-1.293A2.114,2.114,0,0,0,381.451,140.113Zm.657,27.773a.658.658,0,0,1-.657.657h-9.566a.657.657,0,0,1-.657-.657v-1.293a.658.658,0,0,1,.657-.657h9.566a.658.658,0,0,1,.657.657Zm0-4.062a.658.658,0,0,1-.657.657h-9.566a.658.658,0,0,1-.657-.657v-1.293a.657.657,0,0,1,.657-.657h9.566a.658.658,0,0,1,.657.657Zm0-4.061a.658.658,0,0,1-.657.657h-9.566a.658.658,0,0,1-.657-.657V158.47a.657.657,0,0,1,.657-.657h9.566a.658.658,0,0,1,.657.657Zm0-4.061a.658.658,0,0,1-.657.657h-9.566a.657.657,0,0,1-.657-.657v-1.293a.658.658,0,0,1,.657-.657h9.566a.658.658,0,0,1,.657.657Zm0-4.061a.658.658,0,0,1-.657.657h-9.566a.657.657,0,0,1-.657-.657v-1.293a.658.658,0,0,1,.657-.657h9.566a.658.658,0,0,1,.657.657Zm0-4.062a.658.658,0,0,1-.657.657h-9.566a.658.658,0,0,1-.657-.657v-1.293a.657.657,0,0,1,.657-.657h9.566a.658.658,0,0,1,.657.657Zm0-4.061a.658.658,0,0,1-.657.657h-9.566a.658.658,0,0,1-.657-.657v-1.293a.657.657,0,0,1,.657-.657h9.566a.658.658,0,0,1,.657.657Zm0,0" transform="translate(-333.925 -126.578)" fill="#1c92ed"/>
      <path id="Path_11901" data-name="Path 11901" d="M64.685,23.514,97.8,5.57l1.034,1.909a1.13,1.13,0,0,0,1.919.109l3.715-5.31A1.13,1.13,0,0,0,103.5.5L97.026.715a1.129,1.129,0,0,0-.956,1.667L97.1,4.291,63.992,22.235a.727.727,0,0,0,.693,1.279ZM102.9,1.977,99.86,6.324,97.6,2.151Zm0,0" transform="translate(-57.444 -0.501)" fill="#1c92ed"/>
    </g>
  </g>
</svg>
