<svg id="vuesax_bold_brush" data-name="vuesax/bold/brush" xmlns="http://www.w3.org/2000/svg"
  width="24" height="24" viewBox="0 0 24 24">
  <g id="brush">
    <path id="Vector"
      d="M14.19,0H5.81C2.17,0,0,2.17,0,5.81v8.37C0,17.83,2.17,20,5.81,20h8.37c3.64,0,5.81-2.17,5.81-5.81V5.81C20,2.17,17.83,0,14.19,0ZM8.49,14.72a2.26,2.26,0,0,1-1.34.64l-1.35.15a1.177,1.177,0,0,1-1.29-1.3l.15-1.36a2.24,2.24,0,0,1,2.21-2,1.848,1.848,0,0,1,.33.01,2.275,2.275,0,0,1,1.3.65,2.185,2.185,0,0,1,.64,1.26c.01.11.02.22.02.32A2.267,2.267,0,0,1,8.49,14.72Zm6.95-9.17a19.037,19.037,0,0,1-3.94,5.7A3.3,3.3,0,0,0,8.7,8.51a19.184,19.184,0,0,1,5.73-3.98.778.778,0,0,1,1.01,1.02Z"
      transform="translate(2 2)" fill="#6a6e83" />
    <path id="Vector-2" data-name="Vector" d="M0,0H24V24H0Z" fill="none" opacity="0" />
  </g>
</svg>