<svg id="vuesax_bold_receipt-disscount" data-name="vuesax/bold/receipt-disscount" xmlns="http://www.w3.org/2000/svg" width="24" height="24" viewBox="0 0 24 24">
  <g id="receipt-disscount">
    <path id="Vector" d="M12.28,0H4.72C.94,0,0,1.01,0,5.04V16.3c0,2.66,1.46,3.29,3.23,1.39l.01-.01a1.759,1.759,0,0,1,2.78.15l1.01,1.35a1.738,1.738,0,0,0,2.93,0l1.01-1.35a1.758,1.758,0,0,1,2.79-.15c1.78,1.9,3.23,1.27,3.23-1.39V5.04C17,1.01,16.06,0,12.28,0ZM5.5,5a1,1,0,1,1-1,1A1,1,0,0,1,5.5,5Zm6,7a1,1,0,1,1,1-1A1,1,0,0,1,11.5,12Zm.9-6.41L5.67,12.32a.748.748,0,0,1-1.06,0,.754.754,0,0,1,0-1.06l6.73-6.73A.75.75,0,0,1,12.4,5.59Z" transform="translate(3.5 2)" fill="#6a6e83"/>
    <path id="Vector-2" data-name="Vector" d="M0,0H24V24H0Z" fill="none" opacity="0"/>
  </g>
</svg>
