<svg id="vuesax_bold_global" data-name="vuesax/bold/global" xmlns="http://www.w3.org/2000/svg" width="26" height="26" viewBox="0 0 26 26">
  <path id="Vector" d="M4.972,4.951c-.032,0-.076.022-.108.022A10.84,10.84,0,0,1,0,.108C0,.076.022.032.022,0A34.55,34.55,0,0,0,4.063.91,36.344,36.344,0,0,0,4.972,4.951Z" transform="translate(3.315 17.702)" fill="#1f1f1f"/>
  <path id="Vector-2" data-name="Vector" d="M5.037.119A10.935,10.935,0,0,1,0,5.07,33.11,33.11,0,0,0,.986.91,33.888,33.888,0,0,0,5.016,0C5,.043,5.037.087,5.037.119Z" transform="translate(17.647 17.702)" fill="#1f1f1f"/>
  <path id="Vector-3" data-name="Vector" d="M5.124,5.124A34.28,34.28,0,0,0,.986,4.138,30.24,30.24,0,0,0,0,0,10.889,10.889,0,0,1,5.124,5.124Z" transform="translate(17.647 3.228)" fill="#1f1f1f"/>
  <path id="Vector-4" data-name="Vector" d="M5.059.032a33.852,33.852,0,0,0-.9,4.03A31.275,31.275,0,0,0,0,5.037,10.935,10.935,0,0,1,4.951,0C4.983,0,5.027.032,5.059.032Z" transform="translate(3.228 3.315)" fill="#1f1f1f"/>
  <path id="Vector-5" data-name="Vector" d="M7.562,4.972A33.939,33.939,0,0,0,0,4.972,30.738,30.738,0,0,1,1.1.574,1.772,1.772,0,0,0,1.127.336,11.273,11.273,0,0,1,3.781,0,11.182,11.182,0,0,1,6.424.336a1.8,1.8,0,0,0,.033.238A31.1,31.1,0,0,1,7.562,4.972Z" transform="translate(9.219 2.167)" fill="#1f1f1f"/>
  <path id="Vector-6" data-name="Vector" d="M4.972,7.562a30.38,30.38,0,0,1-4.4-1.1,1.771,1.771,0,0,0-.238-.022A11.273,11.273,0,0,1,0,3.781,11.182,11.182,0,0,1,.336,1.138,1.8,1.8,0,0,0,.574,1.1,32.251,32.251,0,0,1,4.972,0,35.289,35.289,0,0,0,4.972,7.562Z" transform="translate(2.167 9.219)" fill="#1f1f1f"/>
  <path id="Vector-7" data-name="Vector" d="M4.972,3.781a11.273,11.273,0,0,1-.336,2.654,1.771,1.771,0,0,0-.238.022A32.655,32.655,0,0,1,0,7.562,33.939,33.939,0,0,0,0,0,30.738,30.738,0,0,1,4.4,1.1a.9.9,0,0,0,.238.033A11.254,11.254,0,0,1,4.972,3.781Z" transform="translate(18.861 9.219)" fill="#1f1f1f"/>
  <path id="Vector-8" data-name="Vector" d="M7.562,0a30.38,30.38,0,0,1-1.1,4.4,1.8,1.8,0,0,0-.033.238,11.182,11.182,0,0,1-2.643.336,11.273,11.273,0,0,1-2.654-.336A1.772,1.772,0,0,0,1.1,4.4,32.251,32.251,0,0,1,0,0,33.9,33.9,0,0,0,3.781.238,33.735,33.735,0,0,0,7.562,0Z" transform="translate(9.219 18.861)" fill="#1f1f1f"/>
  <path id="Vector-9" data-name="Vector" d="M8.41,8.41a32.542,32.542,0,0,1-8.154,0,32.542,32.542,0,0,1,0-8.154,32.542,32.542,0,0,1,8.154,0A32.542,32.542,0,0,1,8.41,8.41Z" transform="translate(8.667 8.667)" fill="#1f1f1f"/>
  <path id="Vector-10" data-name="Vector" d="M0,0H26V26H0Z" fill="none" opacity="0"/>
  <path id="Vector-11" data-name="Vector" d="M0,0H26V26H0Z" transform="translate(26 26) rotate(180)" fill="none" opacity="0"/>
</svg>
