<svg id="vuesax_bold_maximize-3" data-name="vuesax/bold/maximize-3" xmlns="http://www.w3.org/2000/svg" width="26" height="26" viewBox="0 0 26 26">
  <g id="maximize-3">
    <path id="Vector" d="M15.61,0H6.391C2.387,0,0,2.387,0,6.391V15.6C0,19.613,2.387,22,6.391,22H15.6c4,0,6.391-2.387,6.391-6.391V6.391C22,2.387,19.614,0,15.61,0Zm2.816,8.8a.825.825,0,0,1-1.65,0V6.391L6.391,16.775H8.8a.825.825,0,1,1,0,1.65H4.4a.789.789,0,0,1-.319-.066.861.861,0,0,1-.451-.451.954.954,0,0,1-.055-.308V13.2a.825.825,0,0,1,1.65,0v2.409L15.61,5.225H13.2a.825.825,0,1,1,0-1.65h4.4a.829.829,0,0,1,.319.066.861.861,0,0,1,.451.451.954.954,0,0,1,.055.308Z" transform="translate(2 2)" fill="#1f1f1f"/>
    <path id="Vector-2" data-name="Vector" d="M0,0H26V26H0Z" transform="translate(26 26) rotate(180)" fill="none" opacity="0"/>
  </g>
</svg>
