<svg xmlns="http://www.w3.org/2000/svg" width="33.494" height="23.52" viewBox="0 0 33.494 23.52">
  <g id="cloud-upload" transform="translate(-10.709 -16.454)">
    <path id="Path_11742" data-name="Path 11742" d="M37.076,23.032a6.789,6.789,0,0,0-1.259.121,9.381,9.381,0,0,0-18.335,1.862c-.208-.02-.415-.033-.616-.033a6.156,6.156,0,0,0,0,12.313h6.846v-.375a2.006,2.006,0,0,1-1.172-2.9l3.175-5.473a2.006,2.006,0,0,1,3.477,0l3.169,5.439a2.015,2.015,0,0,1-1.152,2.934v.375h5.868a7.131,7.131,0,0,0,0-14.262Z" fill="#2183d9"/>
    <path id="Path_11743" data-name="Path 11743" d="M27.683,41.861H31.16a.672.672,0,0,0,.67-.67V37.554h.757a.67.67,0,0,0,.576-1L29.994,31.1a.669.669,0,0,0-1.159,0l-3.162,5.446a.682.682,0,0,0,0,.67.672.672,0,0,0,.583.335h.757v3.637a.672.672,0,0,0,.67.67Z" transform="translate(-1.961 -1.887)" fill="#2183d9"/>
  </g>
</svg>
