<svg xmlns="http://www.w3.org/2000/svg" width="20" height="20" viewBox="0 0 20 20">
  <g id="edit" transform="translate(-442 -416)">
    <rect id="Rectangle_14080" data-name="Rectangle 14080" width="20" height="20" transform="translate(442 416)" fill="none"/>
    <g id="edit-2" data-name="edit" transform="translate(442 416)">
      <path id="Path_11920" data-name="Path 11920" d="M16.358.781,6.218,10.922A4.13,4.13,0,0,0,5,13.862v1.117a.832.832,0,0,0,.832.832H6.949a4.13,4.13,0,0,0,2.94-1.218L20.03,4.452a2.6,2.6,0,0,0,0-3.671,2.657,2.657,0,0,0-3.671,0Zm2.5,2.5L8.713,13.417a2.512,2.512,0,0,1-1.764.73H6.663v-.285a2.512,2.512,0,0,1,.73-1.764L17.534,1.957a.955.955,0,0,1,1.319,0,.934.934,0,0,1,0,1.319Z" transform="translate(-0.841 -0.008)" fill="#fff"/>
      <path id="Path_11921" data-name="Path 11921" d="M19.13,7.468A.832.832,0,0,0,18.3,8.3v4.176H14.971a2.5,2.5,0,0,0-2.5,2.5V18.3H4.159a2.5,2.5,0,0,1-2.5-2.5V4.159a2.5,2.5,0,0,1,2.5-2.5h7.521a.832.832,0,0,0,0-1.663H4.159A4.164,4.164,0,0,0,0,4.159V15.8a4.164,4.164,0,0,0,4.159,4.159h9.434a4.132,4.132,0,0,0,2.941-1.218l2.209-2.211a4.132,4.132,0,0,0,1.219-2.94V8.3A.832.832,0,0,0,19.13,7.468Zm-3.772,10.1a2.474,2.474,0,0,1-1.219.665V14.971a.832.832,0,0,1,.832-.832h3.265a2.509,2.509,0,0,1-.665,1.218Z" fill="#fff"/>
    </g>
  </g>
</svg>
