<svg xmlns="http://www.w3.org/2000/svg" width="33.096" height="26.201" viewBox="0 0 33.096 26.201">
  <g id="file" transform="translate(-6 -11)">
    <path id="Path_11741" data-name="Path 11741" d="M35.648,15.137H22.141L18.211,11.2a.712.712,0,0,0-.49-.2H9.447A3.449,3.449,0,0,0,6,14.447V33.753A3.449,3.449,0,0,0,9.447,37.2h26.2A3.449,3.449,0,0,0,39.1,33.753V18.584a3.449,3.449,0,0,0-3.447-3.447ZM28.064,26.858H23.237v4.826a.689.689,0,1,1-1.379,0V26.858H17.032a.689.689,0,1,1,0-1.379h4.826V20.653a.689.689,0,1,1,1.379,0v4.826h4.826a.689.689,0,0,1,0,1.379Z" transform="translate(0)" fill="#05db85"/>
  </g>
</svg>
