<svg xmlns="http://www.w3.org/2000/svg" width="24" height="24" viewBox="0 0 24 24">
  <g id="psd" transform="translate(-5081 -942)">
    <g id="file-psd" transform="translate(5081 942)">
      <path id="Path_10" data-name="Path 10" d="M318.859,104.337a.625.625,0,0,0,.625.623h0s1.072,0,1.486-.012c1.532-.026,2.632-1.358,2.632-3.166,0-1.9-1.08-3.178-2.686-3.178h-1.443a.627.627,0,0,0-.625.627h0Zm2.061-4.483c1.059,0,1.436,1,1.436,1.928s-.434,1.9-1.4,1.916c-.2,0-.538.007-.844.009l-.005-3.853Z" transform="translate(-303.902 -93.982)" fill="#111"/>
      <path id="Path_11" data-name="Path 11" d="M194.936,100.512c-.273-.093-.556-.144-.835-.217a1.254,1.254,0,0,1-.594-.3.589.589,0,0,1-.152-.618.6.6,0,0,1,.491-.328,1.487,1.487,0,0,1,.607.089,7.575,7.575,0,0,1,.82.309c.294.129.641.206.878-.074a.608.608,0,0,0,.032-.737,1.082,1.082,0,0,0-.407-.355,3.179,3.179,0,0,0-2.426-.331,1.815,1.815,0,0,0-1.026.826,1.719,1.719,0,0,0-.207.6,1.621,1.621,0,0,0,.234,1.1,1.931,1.931,0,0,0,.961.735c.409.168.818.331,1.233.483a1.317,1.317,0,0,1,.482.276.566.566,0,0,1,.149.579.723.723,0,0,1-.457.408,1.532,1.532,0,0,1-.974.035,2.668,2.668,0,0,1-.848-.5c-.026-.021-.111-.085-.127-.1a.6.6,0,0,0-.76.051.625.625,0,0,0-.043.883h0a3.133,3.133,0,0,0,2.3.985,2.138,2.138,0,0,0,2.178-1.659,1.767,1.767,0,0,0-.6-1.624A2.663,2.663,0,0,0,194.936,100.512Z" transform="translate(-182.814 -93.257)" fill="#111"/>
      <path id="Path_12" data-name="Path 12" d="M87.915,97.565v5.262a.625.625,0,0,0,1.25,0v-1.663H90a2.11,2.11,0,0,0,0-4.22l-.006,0H88.534a.629.629,0,0,0-.619.625ZM90,99.91h-.832l-.006-1.72H90a.86.86,0,0,1,0,1.72Z" transform="translate(-83.794 -92.396)" fill="#111"/>
      <path id="Path_13" data-name="Path 13" d="M19,0H5A5.006,5.006,0,0,0,0,5V19a5.006,5.006,0,0,0,5,5H16.343a4.968,4.968,0,0,0,3.536-1.464l2.656-2.658A4.968,4.968,0,0,0,24,16.343V5A5.006,5.006,0,0,0,19,0ZM2,19V5A3,3,0,0,1,5,2H19a3,3,0,0,1,3,3V15H18a3,3,0,0,0-3,3v4H5A3,3,0,0,1,2,19Zm16.465,2.122a2.975,2.975,0,0,1-1.465.8V18a1,1,0,0,1,1-1h3.925a3.016,3.016,0,0,1-.8,1.464Z" fill="#111"/>
    </g>
    <rect id="Rectangle_9" data-name="Rectangle 9" width="24" height="24" transform="translate(5081 942)" fill="none"/>
  </g>
</svg>
