<svg xmlns="http://www.w3.org/2000/svg" width="135" height="135" viewBox="0 0 135 135">
  <g id="upload" transform="translate(-867 -358)">
    <path id="Path_2708" data-name="Path 2708" d="M67.5,0A67.5,67.5,0,1,1,0,67.5,67.5,67.5,0,0,1,67.5,0Z" transform="translate(867 358)" fill="#f5f6fa"/>
    <g id="svgexport-6" transform="translate(898.368 391.959)">
      <g id="Layer_41" data-name="Layer 41" transform="translate(0 0)">
        <path id="Path_11917" data-name="Path 11917" d="M74.164,38.6a2.631,2.631,0,0,0-2.631,2.631v8.984A7.984,7.984,0,0,1,63.55,58.2H17.776a7.984,7.984,0,0,1-7.984-7.984V41.231a2.631,2.631,0,1,0-5.261,0v8.984A13.259,13.259,0,0,0,17.776,63.46H63.55A13.259,13.259,0,0,0,76.8,50.214V41.231A2.631,2.631,0,0,0,74.164,38.6Z" transform="translate(-4.53 3.623)" fill="#c5c8d2"/>
        <path id="Path_11918" data-name="Path 11918" d="M34.363,7.278a2.631,2.631,0,0,1,3.736,0L53.067,22.247a2.631,2.631,0,0,1-3.683,3.722L38.861,15.446V54.552a2.631,2.631,0,1,1-5.261,0V15.486L23.077,26.009a2.632,2.632,0,1,1-3.722-3.722Z" transform="translate(-0.098 -6.5)" fill="#c5c8d2"/>
      </g>
    </g>
  </g>
</svg>
