<svg xmlns="http://www.w3.org/2000/svg" width="24" height="24" viewBox="0 0 24 24">
  <g id="video" transform="translate(-5111 -942)">
    <rect id="Rectangle_9" data-name="Rectangle 9" width="24" height="24" transform="translate(5111 942)" fill="none"/>
    <path id="video-camera" d="M22.9,29.286a1.987,1.987,0,0,0-2.092.184l-1.833,1.361A5.006,5.006,0,0,0,14,26.332h-.085l-4.121-4.12a2.975,2.975,0,0,0-2.121-.879H1a1,1,0,0,0,0,2H7.67a1.006,1.006,0,0,1,.707.293l2.706,2.706H5a5.005,5.005,0,0,0-5,5v8a5,5,0,0,0,5,5h9a5.006,5.006,0,0,0,4.974-4.5l1.83,1.364a2,2,0,0,0,3.2-1.6V31.074A1.988,1.988,0,0,0,22.9,29.286ZM17,39.329a3,3,0,0,1-3,3H5a3,3,0,0,1-3-3v-8a3,3,0,0,1,3-3h9a3,3,0,0,1,3,3Zm5,.257L19,37.35V33.309l3-2.236Z" transform="translate(5111 921.17)" fill="#111"/>
  </g>
</svg>
