<svg xmlns="http://www.w3.org/2000/svg" width="27.566" height="34.819" viewBox="0 0 27.566 34.819">
  <g id="profits" transform="translate(-10.999 -6)">
    <g id="Group_10742" data-name="Group 10742" transform="translate(10.998 6)">
      <path id="Path_11744" data-name="Path 11744" d="M28.892,30.9a1.455,1.455,0,0,1,1.451,1.451.725.725,0,0,0,1.451,0,2.9,2.9,0,0,0-2.176-2.8v-.827a.725.725,0,1,0-1.451,0v.827a2.9,2.9,0,0,0,.725,5.7A1.451,1.451,0,1,1,27.441,36.7a.725.725,0,0,0-1.451,0,2.9,2.9,0,0,0,2.176,2.8v.827a.725.725,0,1,0,1.451,0V39.5a2.9,2.9,0,0,0-.725-5.7,1.451,1.451,0,1,1,0-2.9Z" transform="translate(-15.115 -12.041)" fill="#d94721"/>
      <path id="Path_11745" data-name="Path 11745" d="M23.019,12.529l9.3.007,1.429-4.577A1.448,1.448,0,0,0,31.97,6.065l-3.62,1.3a2.9,2.9,0,0,1-1.342.022L23.237,6.043A1.453,1.453,0,0,0,21.517,7.93Z" transform="translate(-13.863 -6)" fill="#d94721"/>
      <path id="Path_11746" data-name="Path 11746" d="M36.81,16.386l4.49.015a.725.725,0,0,0,0-1.451H36.81Z" transform="translate(-18.086 -8.458)" fill="#d94721"/>
      <path id="Path_11747" data-name="Path 11747" d="M37.186,28.954l-7.464-11.9-9.88-.007L12.363,28.968a9.9,9.9,0,0,0-.2,9.684,9.69,9.69,0,0,0,7.965,5.179q.37.022.74.022h7.82q.37,0,.74-.022A9.69,9.69,0,0,0,37.4,38.652a9.893,9.893,0,0,0-.21-9.7ZM24.775,40.226a8.7,8.7,0,1,1,8.7-8.7A8.712,8.712,0,0,1,24.775,40.226Z" transform="translate(-10.998 -9.034)" fill="#d94721"/>
    </g>
  </g>
</svg>
