<svg xmlns="http://www.w3.org/2000/svg" width="20" height="20" viewBox="0 0 20 20">
  <g id="remove" transform="translate(-440 -421)">
    <rect id="Rectangle_14080" data-name="Rectangle 14080" width="20" height="20" transform="translate(440 421)" fill="none"/>
    <g id="fi-rr-trash" transform="translate(440 421)">
      <path id="Path_984" data-name="Path 984" d="M17.833,3.333H15.25A4.174,4.174,0,0,0,11.167,0H9.5A4.174,4.174,0,0,0,5.417,3.333H2.833A.833.833,0,1,0,2.833,5h.833V15.833A4.172,4.172,0,0,0,7.833,20h5A4.172,4.172,0,0,0,17,15.833V5h.833a.833.833,0,0,0,0-1.667ZM9.5,1.667h1.667a2.5,2.5,0,0,1,2.357,1.667H7.142A2.5,2.5,0,0,1,9.5,1.667Zm5.833,14.167a2.5,2.5,0,0,1-2.5,2.5h-5a2.5,2.5,0,0,1-2.5-2.5V5h10Z" fill="#fff"/>
      <path id="Path_985" data-name="Path 985" d="M9.833,16.667a.833.833,0,0,0,.833-.833v-5a.833.833,0,0,0-1.667,0v5A.833.833,0,0,0,9.833,16.667Z" transform="translate(-1.167 -1.667)" fill="#fff"/>
      <path id="Path_986" data-name="Path 986" d="M13.833,16.667a.833.833,0,0,0,.833-.833v-5a.833.833,0,1,0-1.667,0v5A.833.833,0,0,0,13.833,16.667Z" transform="translate(-1.833 -1.667)" fill="#fff"/>
    </g>
  </g>
</svg>
