<svg xmlns="http://www.w3.org/2000/svg" width="20" height="20" viewBox="0 0 20 20">
  <g id="send" transform="translate(-1214 -214.729)">
    <rect id="Rectangle_14081" data-name="Rectangle 14081" width="20" height="20" transform="translate(1214 214.729)" fill="none"/>
    <path id="paper-plane" d="M19,.725A2.438,2.438,0,0,0,16.7.068L3.551,2.838A4.106,4.106,0,0,0,1.206,9.809l1.412,1.411a.822.822,0,0,1,.241.582v2.6a2.437,2.437,0,0,0,.247,1.056l-.007.006.021.021A2.466,2.466,0,0,0,4.24,16.6l.021.021.006-.007a2.437,2.437,0,0,0,1.056.247h2.6a.822.822,0,0,1,.581.24L9.92,18.518a4.08,4.08,0,0,0,2.894,1.211,4.15,4.15,0,0,0,1.319-.217,4.055,4.055,0,0,0,2.749-3.277L19.656,3.054A2.446,2.446,0,0,0,19,.725ZM3.782,10.06,2.369,8.649a2.417,2.417,0,0,1-.594-2.527A2.448,2.448,0,0,1,3.83,4.456L16.852,1.715,4.5,14.067V11.8A2.448,2.448,0,0,0,3.782,10.06Zm11.484,5.894a2.466,2.466,0,0,1-4.183,1.407L9.669,15.947a2.448,2.448,0,0,0-1.742-.722H5.663L18.015,2.877Z" transform="translate(1213.998 214.999)" fill="#fff"/>
  </g>
</svg>
