<svg xmlns="http://www.w3.org/2000/svg" width="24" height="24" viewBox="0 0 24 24">
  <g id="vector" transform="translate(-5171 -942)">
    <rect id="Rectangle_9" data-name="Rectangle 9" width="24" height="24" transform="translate(5171 942)" fill="none"/>
    <g id="vector-2" data-name="vector" transform="translate(5171 942)">
      <path id="Path_16" data-name="Path 16" d="M10.007,3,8,2.986A3,3,0,0,0,5,0H3A3,3,0,0,0,0,3V5A3,3,0,0,0,2.993,8L2.979,9.993A1,1,0,0,0,3.973,11h.006a1,1,0,0,0,1-.993L4.993,8H5A3,3,0,0,0,8,5V4.986L9.993,5H10a1,1,0,1,0,.007-2ZM6,5A1,1,0,0,1,5,6H3A1,1,0,0,1,2,5V3A1,1,0,0,1,3,2H5A1,1,0,0,1,6,3Z" fill="#111"/>
      <path id="Path_17" data-name="Path 17" d="M21,0H19a3,3,0,0,0-3,2.993l-1.994-.014H14a1,1,0,1,0-.007,2L16,4.993V5a3,3,0,0,0,3,3h.014L19,9.993A1,1,0,0,0,19.993,11H20a1,1,0,0,0,1-.993L21.014,8A3,3,0,0,0,24,5V3A3,3,0,0,0,21,0Zm1,5a1,1,0,0,1-1,1H19a1,1,0,0,1-1-1V3a1,1,0,0,1,1-1h2a1,1,0,0,1,1,1Z" fill="#111"/>
      <path id="Path_18" data-name="Path 18" d="M21.007,16l.014-1.994A1,1,0,0,0,20.027,13h-.006a1,1,0,0,0-1,.993L19.007,16H19a3,3,0,0,0-3,3v.014L14.007,19H14a1,1,0,1,0-.007,2L16,21.014A3,3,0,0,0,19,24h2a3,3,0,0,0,3-3V19a3,3,0,0,0-2.993-3ZM22,21a1,1,0,0,1-1,1H19a1,1,0,0,1-1-1V19a1,1,0,0,1,1-1h2a1,1,0,0,1,1,1Z" fill="#111"/>
      <path id="Path_19" data-name="Path 19" d="M10.007,19.021,8,19.007V19a3,3,0,0,0-3-3H4.986L5,14.007A1,1,0,0,0,4.007,13H4a1,1,0,0,0-1,.993L2.986,16A3,3,0,0,0,0,19v2a3,3,0,0,0,3,3H5a3,3,0,0,0,3-2.993l1.994.014H10a1,1,0,0,0,.007-2ZM6,21a1,1,0,0,1-1,1H3a1,1,0,0,1-1-1V19a1,1,0,0,1,1-1H5a1,1,0,0,1,1,1Z" fill="#111"/>
    </g>
  </g>
</svg>
