<svg xmlns="http://www.w3.org/2000/svg" width="203" height="15.98" viewBox="0 0 203 15.98">
  <g id="Group_55928" data-name="Group 55928" transform="translate(-173.107 -2613)">
    <g id="Group_10498" data-name="Group 10498" transform="translate(173.107 2615.365)">
      <path id="Path_63" data-name="Path 63" d="M14.923,19l-2.53,7.539s-.639-3.188-.7-3.591c-1.44-3.282-3.564-3.1-3.564-3.1l2.5,9.738v0h3.042L17.878,19Z" transform="translate(-5.344 -19)" fill="#fff"/>
      <path id="Path_64" data-name="Path 64" d="M17.688,29.588h2.764L22.124,19h-2.8Z" transform="translate(-5.7 -19)" fill="#fff"/>
      <path id="Path_65" data-name="Path 65" d="M37.718,19H34.812L30.277,29.588h2.745l.568-1.511h3.459l.293,1.511h2.515Zm-3.365,7.054,1.5-4,.79,4Z" transform="translate(-6.172 -19)" fill="#fff"/>
      <path id="Path_66" data-name="Path 66" d="M26.216,22.087c0-.583.481-1.019,1.857-1.019a4.349,4.349,0,0,1,1.914.65l.451-2.222a8.44,8.44,0,0,0-2.591-.5c-2.906,0-4.407,1.387-4.407,3.147,0,3.185,3.831,2.749,3.831,4.38,0,.282-.222.929-1.82.929A5.915,5.915,0,0,1,22.8,26.87l-.478,2.136a6.514,6.514,0,0,0,3,.583c1.981,0,4.734-1.481,4.734-3.613C30.055,23.414,26.216,23.23,26.216,22.087Z" transform="translate(-5.875 -19)" fill="#fff"/>
      <path id="Path_67" data-name="Path 67" d="M11.95,24.729l-.929-4.572a1.709,1.709,0,0,0-1.515-.989H5.234S10.683,20.777,11.95,24.729Z" transform="translate(-5.234 -19.006)" fill="#ffc107"/>
    </g>
    <g id="Group_10490" data-name="Group 10490" transform="translate(217.796 2613)">
      <rect id="Rectangle_13910" data-name="Rectangle 13910" width="6.991" height="12.563" transform="translate(9.432 1.708)" fill="#ff5f00"/>
      <path id="Path_11740" data-name="Path 11740" d="M200.527,277.989a7.976,7.976,0,0,1,3.052-6.282,7.99,7.99,0,1,0,0,12.563A7.976,7.976,0,0,1,200.527,277.989Z" transform="translate(-190.651 -269.999)" fill="#eb001b"/>
      <path id="Path_11741" data-name="Path 11741" d="M261.825,277.99a7.989,7.989,0,0,1-12.927,6.282,7.991,7.991,0,0,0,0-12.563,7.989,7.989,0,0,1,12.927,6.282Z" transform="translate(-235.97 -270)" fill="#f79e1b"/>
      <path id="Path_11742" data-name="Path 11742" d="M303.146,327.221v-.257h.1v-.052h-.264v.052h.1v.257Zm.513,0v-.31h-.081l-.093.213-.093-.213h-.081v.31h.057v-.234l.087.2h.059l.087-.2v.234Z" transform="translate(-278.054 -314.28)" fill="#f79e1b"/>
    </g>
    <g id="Mada_Logo" transform="translate(254.652 2613)">
      <rect id="Rectangle_14046" data-name="Rectangle 14046" width="20.272" height="6.753" transform="translate(0 9.215)" fill="#84b740"/>
      <rect id="Rectangle_14047" data-name="Rectangle 14047" width="20.272" height="6.759" fill="#259bd6"/>
      <g id="Group_55390" data-name="Group 55390" transform="translate(22.734)">
        <path id="Path_11809" data-name="Path 11809" d="M619.373,139.309l-.09.018a2.957,2.957,0,0,1-.656.084c-.53,0-1.156-.271-1.156-1.547,0-.656.108-1.529,1.1-1.529h.006a2.964,2.964,0,0,1,.722.138l.078.024v2.811Zm.162-6.362-.162.03v2.359l-.144-.042-.042-.012a3.322,3.322,0,0,0-.9-.156c-1.974,0-2.39,1.493-2.39,2.745a2.434,2.434,0,0,0,2.642,2.7,5.357,5.357,0,0,0,1.763-.247.779.779,0,0,0,.662-.855V132.7c-.469.084-.957.169-1.432.247" transform="translate(-601.563 -124.713)" fill="#fff"/>
        <path id="Path_11810" data-name="Path 11810" d="M718,176.755l-.084.024-.3.078a3.136,3.136,0,0,1-.728.114c-.463,0-.74-.229-.74-.62,0-.253.114-.68.873-.68H718Zm-.692-4.255a6.662,6.662,0,0,0-2.01.349l-.505.15.168,1.144.494-.162a5.8,5.8,0,0,1,1.643-.277c.217,0,.879,0,.879.716v.313h-.921c-1.679,0-2.456.536-2.456,1.685,0,.981.716,1.571,1.92,1.571a6.207,6.207,0,0,0,1.336-.181l.024-.006.024.006.151.024c.47.084.957.169,1.432.259v-3.756c0-1.216-.734-1.836-2.179-1.836" transform="translate(-694.322 -162.118)" fill="#fff"/>
        <path id="Path_11811" data-name="Path 11811" d="M523.7,176.755l-.084.024-.3.078a3.089,3.089,0,0,1-.728.114c-.463,0-.74-.229-.74-.62,0-.253.114-.68.867-.68h.981l.006,1.083Zm-.686-4.255a6.629,6.629,0,0,0-2.01.349l-.505.15.168,1.144.494-.162a5.8,5.8,0,0,1,1.643-.277c.217,0,.879,0,.879.716v.313h-.921c-1.679,0-2.462.536-2.462,1.685,0,.981.716,1.571,1.926,1.571a6.2,6.2,0,0,0,1.336-.181l.024-.006.024.006.145.024c.475.084.957.169,1.432.265v-3.756c.006-1.228-.728-1.842-2.173-1.842" transform="translate(-511.718 -162.118)" fill="#fff"/>
        <path id="Path_11812" data-name="Path 11812" d="M383.346,172.606a4.061,4.061,0,0,0-1.631.361l-.06.03-.054-.042a2.469,2.469,0,0,0-1.463-.355,5.984,5.984,0,0,0-1.727.259c-.512.156-.71.4-.71.867v4.291h1.6v-3.966l.078-.024a2.038,2.038,0,0,1,.7-.126.633.633,0,0,1,.7.728v3.395h1.577v-3.461a1.166,1.166,0,0,0-.048-.349l-.054-.1.108-.048a1.9,1.9,0,0,1,.782-.163.638.638,0,0,1,.7.728v3.395h1.571v-3.551c0-1.258-.674-1.866-2.07-1.866" transform="translate(-377.7 -162.211)" fill="#fff"/>
        <path id="Path_11813" data-name="Path 11813" d="M591.168,4.406a5.461,5.461,0,0,1-.933-.084l-.09-.018V1.986a1.128,1.128,0,0,0-.042-.331l-.048-.1.1-.042c.024-.012.048-.018.078-.03l.018-.012.108-.036a.152.152,0,0,1,.042-.012,3.737,3.737,0,0,1,.825-.1h.006c.981,0,1.1.873,1.1,1.529-.006,1.276-.638,1.547-1.161,1.547M591.162,0h-.042a2.836,2.836,0,0,0-2.2.746,1.5,1.5,0,0,0-.289.9h0V4.033a.706.706,0,0,1-.048.3l-.054.1h-2.907V2.775h-.006A2.476,2.476,0,0,0,583.043.06H581.58c-.06.427-.108.728-.168,1.156h1.457c.764,0,1.168.65,1.168,1.649V4.538l-.1-.054a1.105,1.105,0,0,0-.343-.048h-2.516c-.048.319-.108.734-.175,1.15h7.734c.265-.054.572-.1.837-.144a4.356,4.356,0,0,0,1.619.295,2.641,2.641,0,0,0,2.769-2.859A2.654,2.654,0,0,0,591.162,0" transform="translate(-568.67)" fill="#fff"/>
        <path id="Path_11814" data-name="Path 11814" d="M386.632,7.324h.072c1.679,0,2.462-.554,2.462-1.92a1.758,1.758,0,0,0-1.92-1.764H385.7a.667.667,0,0,1-.74-.71c0-.3.114-.674.873-.674h3.383c.072-.439.108-.716.175-1.156h-3.515c-1.637,0-2.462.686-2.462,1.83s.716,1.721,1.92,1.721h1.547a.73.73,0,0,1,.74.752.756.756,0,0,1-.867.776h-.259l-4.954-.012h-.9c-.764,0-1.3-.433-1.3-1.439V4.037c0-1.047.415-1.7,1.3-1.7h1.469c.066-.445.108-.728.169-1.15h-2a2.511,2.511,0,0,0-2.57,2.757h0v.782a2.375,2.375,0,0,0,2.57,2.588h1.463l2.684.006h2.215Z" transform="translate(-377.7 -1.034)" fill="#fff"/>
      </g>
    </g>
    <g id="svgexport-10_1_" data-name="svgexport-10 (1)" transform="translate(313.577 2613)">
      <path id="Path_11939" data-name="Path 11939" d="M352.46,221.2h-3.375a.659.659,0,0,0-.5.4l-1.39,8.734a.263.263,0,0,0,.3.3h1.787a.263.263,0,0,0,.3-.3l.4-2.481a.454.454,0,0,1,.5-.4h1.092q3.424,0,3.871-3.275a2.6,2.6,0,0,0-.4-2.184,4,4,0,0,0-2.581-.794m.4,3.275c-.2,1.191-1.092,1.191-1.985,1.191h-.6l.4-2.283c0-.1.1-.2.3-.2h.2c.6,0,1.191,0,1.489.4.2.1.2.4.2.893" transform="translate(-304.123 -217.031)" fill="#139ad6"/>
      <g id="Group_55927" data-name="Group 55927" transform="translate(18.759 4.169)">
        <path id="Path_11940" data-name="Path 11940" d="M156.461,221.2h-3.375a.659.659,0,0,0-.5.4l-1.39,8.734a.263.263,0,0,0,.3.3h1.588a.659.659,0,0,0,.5-.4l.4-2.382a.454.454,0,0,1,.5-.4h1.092q3.424,0,3.871-3.275a2.6,2.6,0,0,0-.4-2.184,3.815,3.815,0,0,0-2.581-.794m.4,3.275c-.2,1.191-1.092,1.191-1.985,1.191h-.5l.4-2.283c0-.1.1-.2.3-.2h.2c.6,0,1.191,0,1.489.4a1.063,1.063,0,0,1,.1.893" transform="translate(-151.2 -221.2)" fill="#fff"/>
        <path id="Path_11941" data-name="Path 11941" d="M221.6,245.4h-1.588c-.1,0-.3.1-.3.2l-.1.5-.1-.2a2.335,2.335,0,0,0-1.886-.695,3.814,3.814,0,0,0-3.672,3.275,2.958,2.958,0,0,0,.6,2.481,2.5,2.5,0,0,0,2.084.794,3.173,3.173,0,0,0,2.283-.893l-.1.5a.263.263,0,0,0,.3.3h1.489a.659.659,0,0,0,.5-.4L222,245.7c-.1-.1-.3-.3-.4-.3m-2.283,3.176a1.92,1.92,0,0,1-1.886,1.588,1.587,1.587,0,0,1-1.092-.4,2.117,2.117,0,0,1-.3-1.191,1.77,1.77,0,0,1,2.878-1.191,1.733,1.733,0,0,1,.4,1.191" transform="translate(-206.12 -242.222)" fill="#fff"/>
      </g>
      <path id="Path_11942" data-name="Path 11942" d="M416.8,245.4h-1.588c-.1,0-.3.1-.3.2l-.1.5-.1-.2a2.335,2.335,0,0,0-1.886-.695,3.814,3.814,0,0,0-3.672,3.275,2.958,2.958,0,0,0,.6,2.481,2.5,2.5,0,0,0,2.084.794,3.173,3.173,0,0,0,2.283-.893l-.1.5a.263.263,0,0,0,.3.3h1.489a.659.659,0,0,0,.5-.4l.893-5.558c-.1-.1-.2-.3-.4-.3m-2.283,3.176a1.92,1.92,0,0,1-1.886,1.588,1.587,1.587,0,0,1-1.092-.4,2.117,2.117,0,0,1-.3-1.191,1.77,1.77,0,0,1,2.878-1.191,1.139,1.139,0,0,1,.4,1.191" transform="translate(-358.342 -238.054)" fill="#139ad6"/>
      <path id="Path_11943" data-name="Path 11943" d="M291.643,246.8h-1.687a.516.516,0,0,0-.4.2l-2.184,3.375-.993-3.176a.458.458,0,0,0-.5-.3H284.3c-.2,0-.3.2-.3.4l1.787,5.26-1.687,2.382c-.1.2,0,.5.2.5h1.588a.516.516,0,0,0,.4-.2l5.459-7.841c.3-.3.1-.6-.1-.6" transform="translate(-248.764 -239.455)" fill="#fff"/>
      <path id="Path_11944" data-name="Path 11944" d="M476.59,221.924l-1.39,8.933a.263.263,0,0,0,.3.3h1.39a.659.659,0,0,0,.5-.4l1.39-8.734a.263.263,0,0,0-.3-.3h-1.588c-.1-.1-.2,0-.3.2" transform="translate(-416.242 -217.457)" fill="#139ad6"/>
      <path id="Path_11945" data-name="Path 11945" d="M11.414,188.791C10.72,188,9.429,187.6,7.643,187.6H2.68a.851.851,0,0,0-.695.6L0,201.2a.454.454,0,0,0,.4.5H3.474l.794-4.863v.2a.851.851,0,0,1,.695-.6H6.452c2.878,0,5.062-1.191,5.757-4.466v-.3h0a3.466,3.466,0,0,0-.794-2.878" transform="translate(0 -187.6)" fill="#fff"/>
      <path id="Path_11946" data-name="Path 11946" d="M34.533,220.4h0v.3c-.695,3.375-2.878,4.466-5.757,4.466H27.287a.851.851,0,0,0-.695.6l-.993,6.055a.364.364,0,0,0,.4.4h2.581a.556.556,0,0,0,.6-.5v-.1l.5-3.077v-.2a.556.556,0,0,1,.6-.5h.4c2.481,0,4.466-.993,4.963-3.97a3.649,3.649,0,0,0-.5-2.978,1.016,1.016,0,0,0-.6-.5" transform="translate(-22.424 -216.331)" fill="#139ad6"/>
      <path id="Path_11947" data-name="Path 11947" d="M41.546,215.9c-.1,0-.2-.1-.3-.1a.365.365,0,0,1-.3-.1,5.243,5.243,0,0,0-1.29-.1H35.79a.365.365,0,0,0-.3.1.546.546,0,0,0-.3.5l-.794,5.161v.2a.851.851,0,0,1,.695-.6h1.489c2.878,0,5.062-1.191,5.757-4.466a.365.365,0,0,1,.1-.3c-.2-.1-.3-.2-.5-.2-.3-.1-.3-.1-.4-.1" transform="translate(-30.132 -212.126)" fill="#efefef"/>
    </g>
  </g>
</svg>
