<svg width="821" height="528" viewBox="0 0 821 528" fill="none" xmlns="http://www.w3.org/2000/svg">
<path d="M690.012 163.724C690.012 320.313 564.544 447.057 410.012 447.057C255.479 447.057 130.012 320.313 130.012 163.724C130.012 7.13524 255.479 -119.609 410.012 -119.609C564.544 -119.609 690.012 7.13524 690.012 163.724Z" stroke="#F4A71D" stroke-width="20"/>
<g filter="url(#filter0_d_206_438)">
<mask id="path-2-inside-1_206_438" fill="white">
<path d="M619.779 -38.8209C566.671 -95.0942 493.637 -127.723 416.745 -129.53C339.853 -131.336 265.401 -102.172 209.767 -48.4538C154.134 5.26459 121.876 79.1373 120.09 156.913C118.304 234.689 147.136 309.997 200.244 366.27L216.402 350.669C167.385 298.73 140.773 229.223 142.422 157.438C144.07 85.6529 173.843 17.4704 225.192 -32.1102C276.54 -81.6908 345.257 -108.608 416.227 -106.941C487.196 -105.273 554.604 -75.1579 603.621 -23.2193L619.779 -38.8209Z"/>
</mask>
<path d="M619.779 -38.8209C566.671 -95.0942 493.637 -127.723 416.745 -129.53C339.853 -131.336 265.401 -102.172 209.767 -48.4538C154.134 5.26459 121.876 79.1373 120.09 156.913C118.304 234.689 147.136 309.997 200.244 366.27L216.402 350.669C167.385 298.73 140.773 229.223 142.422 157.438C144.07 85.6529 173.843 17.4704 225.192 -32.1102C276.54 -81.6908 345.257 -108.608 416.227 -106.941C487.196 -105.273 554.604 -75.1579 603.621 -23.2193L619.779 -38.8209Z" fill="#090967"/>
<path d="M619.779 -38.8209C566.671 -95.0942 493.637 -127.723 416.745 -129.53C339.853 -131.336 265.401 -102.172 209.767 -48.4538C154.134 5.26459 121.876 79.1373 120.09 156.913C118.304 234.689 147.136 309.997 200.244 366.27L216.402 350.669C167.385 298.73 140.773 229.223 142.422 157.438C144.07 85.6529 173.843 17.4704 225.192 -32.1102C276.54 -81.6908 345.257 -108.608 416.227 -106.941C487.196 -105.273 554.604 -75.1579 603.621 -23.2193L619.779 -38.8209Z" stroke="#090968" stroke-width="20" mask="url(#path-2-inside-1_206_438)"/>
</g>
<g filter="url(#filter1_dddd_206_438)">
<g filter="url(#filter2_i_206_438)">
<rect x="199.899" y="35.7529" width="423.613" height="841.392" rx="54.8578" fill="black"/>
</g>
<rect x="202.053" y="37.9065" width="419.306" height="837.085" rx="52.7043" stroke="#989892" stroke-width="4.30709"/>
<g filter="url(#filter3_i_206_438)">
<rect x="198.742" y="35.0117" width="425.928" height="842.875" rx="56.986" fill="black" fill-opacity="0.01"/>
</g>
<rect x="199.074" y="35.343" width="425.265" height="842.213" rx="56.6547" stroke="#1B1C16" stroke-width="0.662629"/>
<g filter="url(#filter4_i_206_438)">
<path d="M199.899 99.534C199.899 64.3087 229.609 35.7529 266.258 35.7529H557.154C593.803 35.7529 623.512 64.3087 623.512 99.5341V813.364C623.512 848.589 593.803 877.145 557.154 877.145H266.258C229.609 877.145 199.899 848.589 199.899 813.364V99.534Z" fill="black" fill-opacity="0.01"/>
</g>
<path d="M200.396 99.534C200.396 64.6015 229.865 36.2499 266.258 36.2499H557.154C593.547 36.2499 623.015 64.6016 623.015 99.5341V813.364C623.015 848.296 593.547 876.648 557.154 876.648H266.258C229.865 876.648 200.396 848.296 200.396 813.364V99.534Z" stroke="url(#paint0_linear_206_438)" stroke-width="0.993943"/>
<mask id="mask0_206_438" style="mask-type:alpha" maskUnits="userSpaceOnUse" x="215" y="50" width="395" height="813">
<rect x="215.082" y="50.7441" width="394.637" height="811.874" rx="38.0984" fill="white"/>
</mask>
<g mask="url(#mask0_206_438)">
<rect x="206.013" y="46.001" width="415" height="762" fill="white"/>
</g>
<rect x="199.738" y="119.517" width="6.43173" height="6.86882" fill="#E4E4E3" fill-opacity="0.65"/>
<rect x="619.46" y="119.859" width="6.43173" height="6.52538" fill="#E4E4E3" fill-opacity="0.65"/>
<rect x="534.894" y="34" width="6.78904" height="5.72952" fill="#E4E4E3" fill-opacity="0.65"/>
<g filter="url(#filter5_iii_206_438)">
<rect x="381.174" y="41.5342" width="62.2362" height="5.76847" rx="2.88423" fill="#141414"/>
</g>
<rect x="381.334" y="41.6942" width="61.9163" height="5.44852" rx="2.72426" stroke="#0E0E0E" stroke-width="0.319951"/>
<g filter="url(#filter6_iiiiiii_206_438)">
<rect x="196.168" y="345.411" width="4.28782" height="66.2841" rx="1.33433" fill="#C8C9C4"/>
</g>
<rect x="196.418" y="345.661" width="3.78744" height="65.7837" rx="1.08414" stroke="url(#paint1_linear_206_438)" stroke-width="0.500373"/>
<g filter="url(#filter7_iiiiiii_206_438)">
<rect x="196.168" y="264.358" width="4.28782" height="66.971" rx="1.22741" fill="#C8C9C4"/>
</g>
<rect x="196.291" y="264.481" width="4.04234" height="66.7255" rx="1.10467" stroke="url(#paint2_linear_206_438)" stroke-width="0.245481"/>
<g filter="url(#filter8_iiiiiii_206_438)">
<rect x="195.811" y="201.853" width="4.28782" height="36.0613" rx="1.22741" fill="#C8C9C4"/>
</g>
<rect x="195.933" y="201.975" width="4.04234" height="35.8158" rx="1.10467" stroke="url(#paint3_linear_206_438)" stroke-width="0.245481"/>
<g filter="url(#filter9_diiii_206_438)">
<rect x="625.312" y="286.683" width="3.21586" height="100.972" rx="1.33433" fill="#C8C9C4"/>
<rect x="625.434" y="286.805" width="2.97038" height="100.726" rx="1.21159" stroke="url(#paint4_linear_206_438)" stroke-width="0.245481"/>
</g>
<rect x="337.004" y="60.082" width="91.9417" height="25.1618" rx="11.9412" fill="#0A0A0A"/>
<ellipse cx="416.164" cy="72.6629" rx="12.7813" ry="12.5809" fill="#0A0A0A"/>
<g opacity="0.7">
<path d="M452.725 84.4507C457.249 84.4507 460.937 80.9787 460.937 76.67C460.937 72.3612 457.249 68.8892 452.725 68.8892C448.202 68.8892 444.514 72.3612 444.514 76.67C444.514 80.9787 448.202 84.4507 452.725 84.4507Z" fill="url(#paint5_radial_206_438)"/>
<path d="M452.725 84.4507C457.249 84.4507 460.937 80.9787 460.937 76.67C460.937 72.3612 457.249 68.8892 452.725 68.8892C448.202 68.8892 444.514 72.3612 444.514 76.67C444.514 80.9787 448.202 84.4507 452.725 84.4507Z" fill="url(#paint6_angular_206_438)"/>
<path d="M452.725 84.4507C457.249 84.4507 460.937 80.9787 460.937 76.67C460.937 72.3612 457.249 68.8892 452.725 68.8892C448.202 68.8892 444.514 72.3612 444.514 76.67C444.514 80.9787 448.202 84.4507 452.725 84.4507Z" fill="url(#paint7_angular_206_438)"/>
<path d="M452.725 84.4507C457.249 84.4507 460.937 80.9787 460.937 76.67C460.937 72.3612 457.249 68.8892 452.725 68.8892C448.202 68.8892 444.514 72.3612 444.514 76.67C444.514 80.9787 448.202 84.4507 452.725 84.4507Z" stroke="#080F21" stroke-width="0.450049"/>
</g>
<line opacity="0.7" x1="452.623" y1="69.1143" x2="452.623" y2="84.2257" stroke="black" stroke-width="1.12512"/>
<path d="M366.264 349.192H376.12V355H358.74V324.112H366.264V349.192ZM389.564 355.352C387.159 355.352 384.988 354.839 383.052 353.812C381.146 352.785 379.635 351.319 378.52 349.412C377.435 347.505 376.892 345.276 376.892 342.724C376.892 340.201 377.45 337.987 378.564 336.08C379.679 334.144 381.204 332.663 383.14 331.636C385.076 330.609 387.247 330.096 389.652 330.096C392.058 330.096 394.228 330.609 396.164 331.636C398.1 332.663 399.626 334.144 400.74 336.08C401.855 337.987 402.412 340.201 402.412 342.724C402.412 345.247 401.84 347.476 400.696 349.412C399.582 351.319 398.042 352.785 396.076 353.812C394.14 354.839 391.97 355.352 389.564 355.352ZM389.564 348.84C391.002 348.84 392.219 348.312 393.216 347.256C394.243 346.2 394.756 344.689 394.756 342.724C394.756 340.759 394.258 339.248 393.26 338.192C392.292 337.136 391.09 336.608 389.652 336.608C388.186 336.608 386.968 337.136 386 338.192C385.032 339.219 384.548 340.729 384.548 342.724C384.548 344.689 385.018 346.2 385.956 347.256C386.924 348.312 388.127 348.84 389.564 348.84ZM414.412 330.096C416.143 330.096 417.653 330.448 418.944 331.152C420.264 331.856 421.276 332.78 421.98 333.924V330.448H429.504V354.956C429.504 357.215 429.049 359.253 428.14 361.072C427.26 362.92 425.896 364.387 424.048 365.472C422.229 366.557 419.956 367.1 417.228 367.1C413.591 367.1 410.643 366.235 408.384 364.504C406.125 362.803 404.835 360.485 404.512 357.552H411.948C412.183 358.491 412.74 359.224 413.62 359.752C414.5 360.309 415.585 360.588 416.876 360.588C418.431 360.588 419.663 360.133 420.572 359.224C421.511 358.344 421.98 356.921 421.98 354.956V351.48C421.247 352.624 420.235 353.563 418.944 354.296C417.653 355 416.143 355.352 414.412 355.352C412.388 355.352 410.555 354.839 408.912 353.812C407.269 352.756 405.964 351.275 404.996 349.368C404.057 347.432 403.588 345.203 403.588 342.68C403.588 340.157 404.057 337.943 404.996 336.036C405.964 334.129 407.269 332.663 408.912 331.636C410.555 330.609 412.388 330.096 414.412 330.096ZM421.98 342.724C421.98 340.847 421.452 339.365 420.396 338.28C419.369 337.195 418.108 336.652 416.612 336.652C415.116 336.652 413.84 337.195 412.784 338.28C411.757 339.336 411.244 340.803 411.244 342.68C411.244 344.557 411.757 346.053 412.784 347.168C413.84 348.253 415.116 348.796 416.612 348.796C418.108 348.796 419.369 348.253 420.396 347.168C421.452 346.083 421.98 344.601 421.98 342.724ZM444.803 355.352C442.398 355.352 440.227 354.839 438.291 353.812C436.385 352.785 434.874 351.319 433.759 349.412C432.674 347.505 432.131 345.276 432.131 342.724C432.131 340.201 432.689 337.987 433.803 336.08C434.918 334.144 436.443 332.663 438.379 331.636C440.315 330.609 442.486 330.096 444.891 330.096C447.297 330.096 449.467 330.609 451.403 331.636C453.339 332.663 454.865 334.144 455.979 336.08C457.094 337.987 457.651 340.201 457.651 342.724C457.651 345.247 457.079 347.476 455.935 349.412C454.821 351.319 453.281 352.785 451.315 353.812C449.379 354.839 447.209 355.352 444.803 355.352ZM444.803 348.84C446.241 348.84 447.458 348.312 448.455 347.256C449.482 346.2 449.995 344.689 449.995 342.724C449.995 340.759 449.497 339.248 448.499 338.192C447.531 337.136 446.329 336.608 444.891 336.608C443.425 336.608 442.207 337.136 441.239 338.192C440.271 339.219 439.787 340.729 439.787 342.724C439.787 344.689 440.257 346.2 441.195 347.256C442.163 348.312 443.366 348.84 444.803 348.84Z" fill="#F4A71D"/>
</g>
<defs>
<filter id="filter0_d_206_438" x="116.012" y="-129.608" width="507.767" height="503.879" filterUnits="userSpaceOnUse" color-interpolation-filters="sRGB">
<feFlood flood-opacity="0" result="BackgroundImageFix"/>
<feColorMatrix in="SourceAlpha" type="matrix" values="0 0 0 0 0 0 0 0 0 0 0 0 0 0 0 0 0 0 127 0" result="hardAlpha"/>
<feOffset dy="4"/>
<feGaussianBlur stdDeviation="2"/>
<feComposite in2="hardAlpha" operator="out"/>
<feColorMatrix type="matrix" values="0 0 0 0 0 0 0 0 0 0 0 0 0 0 0 0 0 0 0.25 0"/>
<feBlend mode="normal" in2="BackgroundImageFix" result="effect1_dropShadow_206_438"/>
<feBlend mode="normal" in="SourceGraphic" in2="effect1_dropShadow_206_438" result="shape"/>
</filter>
<filter id="filter1_dddd_206_438" x="108.88" y="-19.122" width="607.263" height="1042.74" filterUnits="userSpaceOnUse" color-interpolation-filters="sRGB">
<feFlood flood-opacity="0" result="BackgroundImageFix"/>
<feColorMatrix in="SourceAlpha" type="matrix" values="0 0 0 0 0 0 0 0 0 0 0 0 0 0 0 0 0 0 127 0" result="hardAlpha"/>
<feOffset dy="25.1989"/>
<feGaussianBlur stdDeviation="12.5994"/>
<feComposite in2="hardAlpha" operator="out"/>
<feColorMatrix type="matrix" values="0 0 0 0 0 0 0 0 0 0 0 0 0 0 0 0 0 0 0.25 0"/>
<feBlend mode="normal" in2="BackgroundImageFix" result="effect1_dropShadow_206_438"/>
<feColorMatrix in="SourceAlpha" type="matrix" values="0 0 0 0 0 0 0 0 0 0 0 0 0 0 0 0 0 0 127 0" result="hardAlpha"/>
<feOffset dy="55.8462"/>
<feGaussianBlur stdDeviation="42.5657"/>
<feComposite in2="hardAlpha" operator="out"/>
<feColorMatrix type="matrix" values="0 0 0 0 0 0 0 0 0 0 0 0 0 0 0 0 0 0 0.15 0"/>
<feBlend mode="normal" in2="effect1_dropShadow_206_438" result="effect2_dropShadow_206_438"/>
<feColorMatrix in="SourceAlpha" type="matrix" values="0 0 0 0 0 0 0 0 0 0 0 0 0 0 0 0 0 0 127 0" result="hardAlpha"/>
<feOffset dy="-25.8799"/>
<feGaussianBlur stdDeviation="13.621"/>
<feComposite in2="hardAlpha" operator="out"/>
<feColorMatrix type="matrix" values="0 0 0 0 1 0 0 0 0 1 0 0 0 0 1 0 0 0 0.1 0"/>
<feBlend mode="normal" in2="effect2_dropShadow_206_438" result="effect3_dropShadow_206_438"/>
<feColorMatrix in="SourceAlpha" type="matrix" values="0 0 0 0 0 0 0 0 0 0 0 0 0 0 0 0 0 0 127 0" result="hardAlpha"/>
<feOffset dy="-8.85366"/>
<feGaussianBlur stdDeviation="19.4099"/>
<feComposite in2="hardAlpha" operator="out"/>
<feColorMatrix type="matrix" values="0 0 0 0 0 0 0 0 0 0 0 0 0 0 0 0 0 0 0.1 0"/>
<feBlend mode="normal" in2="effect3_dropShadow_206_438" result="effect4_dropShadow_206_438"/>
<feBlend mode="normal" in="SourceGraphic" in2="effect4_dropShadow_206_438" result="shape"/>
</filter>
<filter id="filter2_i_206_438" x="199.899" y="35.7529" width="423.613" height="841.392" filterUnits="userSpaceOnUse" color-interpolation-filters="sRGB">
<feFlood flood-opacity="0" result="BackgroundImageFix"/>
<feBlend mode="normal" in="SourceGraphic" in2="BackgroundImageFix" result="shape"/>
<feColorMatrix in="SourceAlpha" type="matrix" values="0 0 0 0 0 0 0 0 0 0 0 0 0 0 0 0 0 0 127 0" result="hardAlpha"/>
<feMorphology radius="4.6384" operator="erode" in="SourceAlpha" result="effect1_innerShadow_206_438"/>
<feOffset/>
<feGaussianBlur stdDeviation="0.165657"/>
<feComposite in2="hardAlpha" operator="arithmetic" k2="-1" k3="1"/>
<feColorMatrix type="matrix" values="0 0 0 0 0.247059 0 0 0 0 0.247059 0 0 0 0 0.247059 0 0 0 1 0"/>
<feBlend mode="normal" in2="shape" result="effect1_innerShadow_206_438"/>
</filter>
<filter id="filter3_i_206_438" x="198.742" y="35.0117" width="425.928" height="842.875" filterUnits="userSpaceOnUse" color-interpolation-filters="sRGB">
<feFlood flood-opacity="0" result="BackgroundImageFix"/>
<feBlend mode="normal" in="SourceGraphic" in2="BackgroundImageFix" result="shape"/>
<feColorMatrix in="SourceAlpha" type="matrix" values="0 0 0 0 0 0 0 0 0 0 0 0 0 0 0 0 0 0 127 0" result="hardAlpha"/>
<feMorphology radius="1.65657" operator="erode" in="SourceAlpha" result="effect1_innerShadow_206_438"/>
<feOffset/>
<feGaussianBlur stdDeviation="0.165657"/>
<feComposite in2="hardAlpha" operator="arithmetic" k2="-1" k3="1"/>
<feColorMatrix type="matrix" values="0 0 0 0 0.466667 0 0 0 0 0.47451 0 0 0 0 0.419608 0 0 0 1 0"/>
<feBlend mode="normal" in2="shape" result="effect1_innerShadow_206_438"/>
</filter>
<filter id="filter4_i_206_438" x="199.899" y="35.7529" width="423.613" height="841.392" filterUnits="userSpaceOnUse" color-interpolation-filters="sRGB">
<feFlood flood-opacity="0" result="BackgroundImageFix"/>
<feBlend mode="normal" in="SourceGraphic" in2="BackgroundImageFix" result="shape"/>
<feColorMatrix in="SourceAlpha" type="matrix" values="0 0 0 0 0 0 0 0 0 0 0 0 0 0 0 0 0 0 127 0" result="hardAlpha"/>
<feMorphology radius="1.65657" operator="erode" in="SourceAlpha" result="effect1_innerShadow_206_438"/>
<feOffset/>
<feGaussianBlur stdDeviation="0.165657"/>
<feComposite in2="hardAlpha" operator="arithmetic" k2="-1" k3="1"/>
<feColorMatrix type="matrix" values="0 0 0 0 0.686275 0 0 0 0 0.690196 0 0 0 0 0.670588 0 0 0 1 0"/>
<feBlend mode="normal" in2="shape" result="effect1_innerShadow_206_438"/>
</filter>
<filter id="filter5_iii_206_438" x="381.174" y="41.5342" width="62.2363" height="5.76855" filterUnits="userSpaceOnUse" color-interpolation-filters="sRGB">
<feFlood flood-opacity="0" result="BackgroundImageFix"/>
<feBlend mode="normal" in="SourceGraphic" in2="BackgroundImageFix" result="shape"/>
<feColorMatrix in="SourceAlpha" type="matrix" values="0 0 0 0 0 0 0 0 0 0 0 0 0 0 0 0 0 0 127 0" result="hardAlpha"/>
<feMorphology radius="0.319951" operator="erode" in="SourceAlpha" result="effect1_innerShadow_206_438"/>
<feOffset/>
<feGaussianBlur stdDeviation="0.799878"/>
<feComposite in2="hardAlpha" operator="arithmetic" k2="-1" k3="1"/>
<feColorMatrix type="matrix" values="0 0 0 0 0 0 0 0 0 0 0 0 0 0 0 0 0 0 1 0"/>
<feBlend mode="normal" in2="shape" result="effect1_innerShadow_206_438"/>
<feColorMatrix in="SourceAlpha" type="matrix" values="0 0 0 0 0 0 0 0 0 0 0 0 0 0 0 0 0 0 127 0" result="hardAlpha"/>
<feOffset dx="0.959854"/>
<feComposite in2="hardAlpha" operator="arithmetic" k2="-1" k3="1"/>
<feColorMatrix type="matrix" values="0 0 0 0 0.164706 0 0 0 0 0.164706 0 0 0 0 0.164706 0 0 0 1 0"/>
<feBlend mode="normal" in2="effect1_innerShadow_206_438" result="effect2_innerShadow_206_438"/>
<feColorMatrix in="SourceAlpha" type="matrix" values="0 0 0 0 0 0 0 0 0 0 0 0 0 0 0 0 0 0 127 0" result="hardAlpha"/>
<feOffset dx="-0.959854"/>
<feComposite in2="hardAlpha" operator="arithmetic" k2="-1" k3="1"/>
<feColorMatrix type="matrix" values="0 0 0 0 0.164706 0 0 0 0 0.164706 0 0 0 0 0.164706 0 0 0 1 0"/>
<feBlend mode="normal" in2="effect2_innerShadow_206_438" result="effect3_innerShadow_206_438"/>
</filter>
<filter id="filter6_iiiiiii_206_438" x="195.501" y="344.744" width="6.28958" height="67.6185" filterUnits="userSpaceOnUse" color-interpolation-filters="sRGB">
<feFlood flood-opacity="0" result="BackgroundImageFix"/>
<feBlend mode="normal" in="SourceGraphic" in2="BackgroundImageFix" result="shape"/>
<feColorMatrix in="SourceAlpha" type="matrix" values="0 0 0 0 0 0 0 0 0 0 0 0 0 0 0 0 0 0 127 0" result="hardAlpha"/>
<feOffset dx="1.66791"/>
<feComposite in2="hardAlpha" operator="arithmetic" k2="-1" k3="1"/>
<feColorMatrix type="matrix" values="0 0 0 0 0.854902 0 0 0 0 0.858824 0 0 0 0 0.839216 0 0 0 1 0"/>
<feBlend mode="normal" in2="shape" result="effect1_innerShadow_206_438"/>
<feColorMatrix in="SourceAlpha" type="matrix" values="0 0 0 0 0 0 0 0 0 0 0 0 0 0 0 0 0 0 127 0" result="hardAlpha"/>
<feOffset dx="1.66791"/>
<feGaussianBlur stdDeviation="0.667163"/>
<feComposite in2="hardAlpha" operator="arithmetic" k2="-1" k3="1"/>
<feColorMatrix type="matrix" values="0 0 0 0 0.854902 0 0 0 0 0.858824 0 0 0 0 0.839216 0 0 0 0.66 0"/>
<feBlend mode="normal" in2="effect1_innerShadow_206_438" result="effect2_innerShadow_206_438"/>
<feColorMatrix in="SourceAlpha" type="matrix" values="0 0 0 0 0 0 0 0 0 0 0 0 0 0 0 0 0 0 127 0" result="hardAlpha"/>
<feOffset dx="1.00075"/>
<feComposite in2="hardAlpha" operator="arithmetic" k2="-1" k3="1"/>
<feColorMatrix type="matrix" values="0 0 0 0 0.254902 0 0 0 0 0.258824 0 0 0 0 0.235294 0 0 0 1 0"/>
<feBlend mode="normal" in2="effect2_innerShadow_206_438" result="effect3_innerShadow_206_438"/>
<feColorMatrix in="SourceAlpha" type="matrix" values="0 0 0 0 0 0 0 0 0 0 0 0 0 0 0 0 0 0 127 0" result="hardAlpha"/>
<feOffset dx="-1.00075" dy="-2.66865"/>
<feGaussianBlur stdDeviation="0.333582"/>
<feComposite in2="hardAlpha" operator="arithmetic" k2="-1" k3="1"/>
<feColorMatrix type="matrix" values="0 0 0 0 0.254902 0 0 0 0 0.258824 0 0 0 0 0.235294 0 0 0 1 0"/>
<feBlend mode="normal" in2="effect3_innerShadow_206_438" result="effect4_innerShadow_206_438"/>
<feColorMatrix in="SourceAlpha" type="matrix" values="0 0 0 0 0 0 0 0 0 0 0 0 0 0 0 0 0 0 127 0" result="hardAlpha"/>
<feOffset dx="-1.00075" dy="2.66865"/>
<feGaussianBlur stdDeviation="0.333582"/>
<feComposite in2="hardAlpha" operator="arithmetic" k2="-1" k3="1"/>
<feColorMatrix type="matrix" values="0 0 0 0 0.254902 0 0 0 0 0.258824 0 0 0 0 0.235294 0 0 0 1 0"/>
<feBlend mode="normal" in2="effect4_innerShadow_206_438" result="effect5_innerShadow_206_438"/>
<feColorMatrix in="SourceAlpha" type="matrix" values="0 0 0 0 0 0 0 0 0 0 0 0 0 0 0 0 0 0 127 0" result="hardAlpha"/>
<feOffset dy="1.00075"/>
<feComposite in2="hardAlpha" operator="arithmetic" k2="-1" k3="1"/>
<feColorMatrix type="matrix" values="0 0 0 0 0.94902 0 0 0 0 0.952941 0 0 0 0 0.929412 0 0 0 1 0"/>
<feBlend mode="normal" in2="effect5_innerShadow_206_438" result="effect6_innerShadow_206_438"/>
<feColorMatrix in="SourceAlpha" type="matrix" values="0 0 0 0 0 0 0 0 0 0 0 0 0 0 0 0 0 0 127 0" result="hardAlpha"/>
<feOffset dy="-1.00075"/>
<feComposite in2="hardAlpha" operator="arithmetic" k2="-1" k3="1"/>
<feColorMatrix type="matrix" values="0 0 0 0 0.94902 0 0 0 0 0.952941 0 0 0 0 0.929412 0 0 0 1 0"/>
<feBlend mode="normal" in2="effect6_innerShadow_206_438" result="effect7_innerShadow_206_438"/>
</filter>
<filter id="filter7_iiiiiii_206_438" x="194.941" y="263.438" width="5.51549" height="68.1981" filterUnits="userSpaceOnUse" color-interpolation-filters="sRGB">
<feFlood flood-opacity="0" result="BackgroundImageFix"/>
<feBlend mode="normal" in="SourceGraphic" in2="BackgroundImageFix" result="shape"/>
<feColorMatrix in="SourceAlpha" type="matrix" values="0 0 0 0 0 0 0 0 0 0 0 0 0 0 0 0 0 0 127 0" result="hardAlpha"/>
<feOffset dx="0.306852"/>
<feComposite in2="hardAlpha" operator="arithmetic" k2="-1" k3="1"/>
<feColorMatrix type="matrix" values="0 0 0 0 0.854902 0 0 0 0 0.858824 0 0 0 0 0.839216 0 0 0 1 0"/>
<feBlend mode="normal" in2="shape" result="effect1_innerShadow_206_438"/>
<feColorMatrix in="SourceAlpha" type="matrix" values="0 0 0 0 0 0 0 0 0 0 0 0 0 0 0 0 0 0 127 0" result="hardAlpha"/>
<feOffset dx="-0.920555" dy="-2.45481"/>
<feGaussianBlur stdDeviation="0.460277"/>
<feComposite in2="hardAlpha" operator="arithmetic" k2="-1" k3="1"/>
<feColorMatrix type="matrix" values="0 0 0 0 0.854902 0 0 0 0 0.858824 0 0 0 0 0.839216 0 0 0 0.2 0"/>
<feBlend mode="normal" in2="effect1_innerShadow_206_438" result="effect2_innerShadow_206_438"/>
<feColorMatrix in="SourceAlpha" type="matrix" values="0 0 0 0 0 0 0 0 0 0 0 0 0 0 0 0 0 0 127 0" result="hardAlpha"/>
<feOffset dy="2.45481"/>
<feGaussianBlur stdDeviation="0.153426"/>
<feComposite in2="hardAlpha" operator="arithmetic" k2="-1" k3="1"/>
<feColorMatrix type="matrix" values="0 0 0 0 0.254902 0 0 0 0 0.258824 0 0 0 0 0.235294 0 0 0 0.3 0"/>
<feBlend mode="normal" in2="effect2_innerShadow_206_438" result="effect3_innerShadow_206_438"/>
<feColorMatrix in="SourceAlpha" type="matrix" values="0 0 0 0 0 0 0 0 0 0 0 0 0 0 0 0 0 0 127 0" result="hardAlpha"/>
<feOffset dx="-1.22741"/>
<feGaussianBlur stdDeviation="0.613703"/>
<feComposite in2="hardAlpha" operator="arithmetic" k2="-1" k3="1"/>
<feColorMatrix type="matrix" values="0 0 0 0 0.254902 0 0 0 0 0.258824 0 0 0 0 0.235294 0 0 0 1 0"/>
<feBlend mode="normal" in2="effect3_innerShadow_206_438" result="effect4_innerShadow_206_438"/>
<feColorMatrix in="SourceAlpha" type="matrix" values="0 0 0 0 0 0 0 0 0 0 0 0 0 0 0 0 0 0 127 0" result="hardAlpha"/>
<feOffset dy="1.22741"/>
<feComposite in2="hardAlpha" operator="arithmetic" k2="-1" k3="1"/>
<feColorMatrix type="matrix" values="0 0 0 0 0.254902 0 0 0 0 0.258824 0 0 0 0 0.235294 0 0 0 1 0"/>
<feBlend mode="normal" in2="effect4_innerShadow_206_438" result="effect5_innerShadow_206_438"/>
<feColorMatrix in="SourceAlpha" type="matrix" values="0 0 0 0 0 0 0 0 0 0 0 0 0 0 0 0 0 0 127 0" result="hardAlpha"/>
<feOffset dy="-1.22741"/>
<feGaussianBlur stdDeviation="0.306852"/>
<feComposite in2="hardAlpha" operator="arithmetic" k2="-1" k3="1"/>
<feColorMatrix type="matrix" values="0 0 0 0 0.94902 0 0 0 0 0.952941 0 0 0 0 0.929412 0 0 0 1 0"/>
<feBlend mode="normal" in2="effect5_innerShadow_206_438" result="effect6_innerShadow_206_438"/>
<feColorMatrix in="SourceAlpha" type="matrix" values="0 0 0 0 0 0 0 0 0 0 0 0 0 0 0 0 0 0 127 0" result="hardAlpha"/>
<feOffset dx="-0.613703"/>
<feComposite in2="hardAlpha" operator="arithmetic" k2="-1" k3="1"/>
<feColorMatrix type="matrix" values="0 0 0 0 0.94902 0 0 0 0 0.952941 0 0 0 0 0.929412 0 0 0 1 0"/>
<feBlend mode="normal" in2="effect6_innerShadow_206_438" result="effect7_innerShadow_206_438"/>
</filter>
<filter id="filter8_iiiiiii_206_438" x="194.583" y="200.932" width="5.51549" height="37.2889" filterUnits="userSpaceOnUse" color-interpolation-filters="sRGB">
<feFlood flood-opacity="0" result="BackgroundImageFix"/>
<feBlend mode="normal" in="SourceGraphic" in2="BackgroundImageFix" result="shape"/>
<feColorMatrix in="SourceAlpha" type="matrix" values="0 0 0 0 0 0 0 0 0 0 0 0 0 0 0 0 0 0 127 0" result="hardAlpha"/>
<feOffset dx="0.306852"/>
<feComposite in2="hardAlpha" operator="arithmetic" k2="-1" k3="1"/>
<feColorMatrix type="matrix" values="0 0 0 0 0.854902 0 0 0 0 0.858824 0 0 0 0 0.839216 0 0 0 1 0"/>
<feBlend mode="normal" in2="shape" result="effect1_innerShadow_206_438"/>
<feColorMatrix in="SourceAlpha" type="matrix" values="0 0 0 0 0 0 0 0 0 0 0 0 0 0 0 0 0 0 127 0" result="hardAlpha"/>
<feOffset dx="-0.920555" dy="-2.45481"/>
<feGaussianBlur stdDeviation="0.460277"/>
<feComposite in2="hardAlpha" operator="arithmetic" k2="-1" k3="1"/>
<feColorMatrix type="matrix" values="0 0 0 0 0.854902 0 0 0 0 0.858824 0 0 0 0 0.839216 0 0 0 0.2 0"/>
<feBlend mode="normal" in2="effect1_innerShadow_206_438" result="effect2_innerShadow_206_438"/>
<feColorMatrix in="SourceAlpha" type="matrix" values="0 0 0 0 0 0 0 0 0 0 0 0 0 0 0 0 0 0 127 0" result="hardAlpha"/>
<feOffset dy="2.45481"/>
<feGaussianBlur stdDeviation="0.153426"/>
<feComposite in2="hardAlpha" operator="arithmetic" k2="-1" k3="1"/>
<feColorMatrix type="matrix" values="0 0 0 0 0.254902 0 0 0 0 0.258824 0 0 0 0 0.235294 0 0 0 0.3 0"/>
<feBlend mode="normal" in2="effect2_innerShadow_206_438" result="effect3_innerShadow_206_438"/>
<feColorMatrix in="SourceAlpha" type="matrix" values="0 0 0 0 0 0 0 0 0 0 0 0 0 0 0 0 0 0 127 0" result="hardAlpha"/>
<feOffset dx="-1.22741"/>
<feGaussianBlur stdDeviation="0.613703"/>
<feComposite in2="hardAlpha" operator="arithmetic" k2="-1" k3="1"/>
<feColorMatrix type="matrix" values="0 0 0 0 0.254902 0 0 0 0 0.258824 0 0 0 0 0.235294 0 0 0 1 0"/>
<feBlend mode="normal" in2="effect3_innerShadow_206_438" result="effect4_innerShadow_206_438"/>
<feColorMatrix in="SourceAlpha" type="matrix" values="0 0 0 0 0 0 0 0 0 0 0 0 0 0 0 0 0 0 127 0" result="hardAlpha"/>
<feOffset dy="1.22741"/>
<feComposite in2="hardAlpha" operator="arithmetic" k2="-1" k3="1"/>
<feColorMatrix type="matrix" values="0 0 0 0 0.254902 0 0 0 0 0.258824 0 0 0 0 0.235294 0 0 0 1 0"/>
<feBlend mode="normal" in2="effect4_innerShadow_206_438" result="effect5_innerShadow_206_438"/>
<feColorMatrix in="SourceAlpha" type="matrix" values="0 0 0 0 0 0 0 0 0 0 0 0 0 0 0 0 0 0 127 0" result="hardAlpha"/>
<feOffset dy="-1.22741"/>
<feGaussianBlur stdDeviation="0.306852"/>
<feComposite in2="hardAlpha" operator="arithmetic" k2="-1" k3="1"/>
<feColorMatrix type="matrix" values="0 0 0 0 0.94902 0 0 0 0 0.952941 0 0 0 0 0.929412 0 0 0 1 0"/>
<feBlend mode="normal" in2="effect5_innerShadow_206_438" result="effect6_innerShadow_206_438"/>
<feColorMatrix in="SourceAlpha" type="matrix" values="0 0 0 0 0 0 0 0 0 0 0 0 0 0 0 0 0 0 127 0" result="hardAlpha"/>
<feOffset dx="-0.613703"/>
<feComposite in2="hardAlpha" operator="arithmetic" k2="-1" k3="1"/>
<feColorMatrix type="matrix" values="0 0 0 0 0.94902 0 0 0 0 0.952941 0 0 0 0 0.929412 0 0 0 1 0"/>
<feBlend mode="normal" in2="effect6_innerShadow_206_438" result="effect7_innerShadow_206_438"/>
</filter>
<filter id="filter9_diiii_206_438" x="623.949" y="286.015" width="5.94002" height="104.363" filterUnits="userSpaceOnUse" color-interpolation-filters="sRGB">
<feFlood flood-opacity="0" result="BackgroundImageFix"/>
<feColorMatrix in="SourceAlpha" type="matrix" values="0 0 0 0 0 0 0 0 0 0 0 0 0 0 0 0 0 0 127 0" result="hardAlpha"/>
<feOffset dy="1.3621"/>
<feGaussianBlur stdDeviation="0.681051"/>
<feComposite in2="hardAlpha" operator="out"/>
<feColorMatrix type="matrix" values="0 0 0 0 0 0 0 0 0 0 0 0 0 0 0 0 0 0 0.25 0"/>
<feBlend mode="normal" in2="BackgroundImageFix" result="effect1_dropShadow_206_438"/>
<feBlend mode="normal" in="SourceGraphic" in2="effect1_dropShadow_206_438" result="shape"/>
<feColorMatrix in="SourceAlpha" type="matrix" values="0 0 0 0 0 0 0 0 0 0 0 0 0 0 0 0 0 0 127 0" result="hardAlpha"/>
<feOffset dx="-1.33433"/>
<feComposite in2="hardAlpha" operator="arithmetic" k2="-1" k3="1"/>
<feColorMatrix type="matrix" values="0 0 0 0 0.854902 0 0 0 0 0.858824 0 0 0 0 0.839216 0 0 0 1 0"/>
<feBlend mode="normal" in2="shape" result="effect2_innerShadow_206_438"/>
<feColorMatrix in="SourceAlpha" type="matrix" values="0 0 0 0 0 0 0 0 0 0 0 0 0 0 0 0 0 0 127 0" result="hardAlpha"/>
<feOffset dx="1.33433" dy="-2.66865"/>
<feGaussianBlur stdDeviation="0.333582"/>
<feComposite in2="hardAlpha" operator="arithmetic" k2="-1" k3="1"/>
<feColorMatrix type="matrix" values="0 0 0 0 0.854902 0 0 0 0 0.858824 0 0 0 0 0.839216 0 0 0 1 0"/>
<feBlend mode="normal" in2="effect2_innerShadow_206_438" result="effect3_innerShadow_206_438"/>
<feColorMatrix in="SourceAlpha" type="matrix" values="0 0 0 0 0 0 0 0 0 0 0 0 0 0 0 0 0 0 127 0" result="hardAlpha"/>
<feOffset dx="1.33433" dy="2.66865"/>
<feGaussianBlur stdDeviation="0.333582"/>
<feComposite in2="hardAlpha" operator="arithmetic" k2="-1" k3="1"/>
<feColorMatrix type="matrix" values="0 0 0 0 0.254902 0 0 0 0 0.258824 0 0 0 0 0.235294 0 0 0 1 0"/>
<feBlend mode="normal" in2="effect3_innerShadow_206_438" result="effect4_innerShadow_206_438"/>
<feColorMatrix in="SourceAlpha" type="matrix" values="0 0 0 0 0 0 0 0 0 0 0 0 0 0 0 0 0 0 127 0" result="hardAlpha"/>
<feOffset dx="-1.00075"/>
<feGaussianBlur stdDeviation="0.667163"/>
<feComposite in2="hardAlpha" operator="arithmetic" k2="-1" k3="1"/>
<feColorMatrix type="matrix" values="0 0 0 0 0.254902 0 0 0 0 0.258824 0 0 0 0 0.235294 0 0 0 0.66 0"/>
<feBlend mode="normal" in2="effect4_innerShadow_206_438" result="effect5_innerShadow_206_438"/>
</filter>
<linearGradient id="paint0_linear_206_438" x1="411.706" y1="35.7529" x2="411.706" y2="877.145" gradientUnits="userSpaceOnUse">
<stop stop-color="#F4F5F0"/>
<stop offset="1" stop-color="#FBFBFB"/>
</linearGradient>
<linearGradient id="paint1_linear_206_438" x1="193.829" y1="374.264" x2="202.795" y2="374.264" gradientUnits="userSpaceOnUse">
<stop stop-color="#7D7E79"/>
<stop offset="0.25" stop-color="#1B1C16"/>
<stop offset="0.5" stop-color="#43443E"/>
<stop offset="0.682292" stop-color="#7E817A"/>
<stop offset="0.937329" stop-color="#83847F"/>
</linearGradient>
<linearGradient id="paint2_linear_206_438" x1="193.829" y1="293.51" x2="202.795" y2="293.51" gradientUnits="userSpaceOnUse">
<stop stop-color="#7D7E79"/>
<stop offset="0.291667" stop-color="#1B1C16"/>
<stop offset="0.5" stop-color="#43443E"/>
<stop offset="0.776042" stop-color="#7E817A"/>
<stop offset="1" stop-color="#83847F"/>
</linearGradient>
<linearGradient id="paint3_linear_206_438" x1="193.472" y1="217.55" x2="202.437" y2="217.55" gradientUnits="userSpaceOnUse">
<stop stop-color="#7D7E79"/>
<stop offset="0.291667" stop-color="#1B1C16"/>
<stop offset="0.5" stop-color="#43443E"/>
<stop offset="0.755208" stop-color="#7E817A"/>
<stop offset="1" stop-color="#83847F"/>
</linearGradient>
<linearGradient id="paint4_linear_206_438" x1="623.557" y1="330.635" x2="630.281" y2="330.635" gradientUnits="userSpaceOnUse">
<stop stop-color="#7D7E79"/>
<stop offset="0.234375" stop-color="#1B1C16"/>
<stop offset="0.557292" stop-color="#43443E"/>
<stop offset="0.760417" stop-color="#7E817A"/>
<stop offset="0.932292" stop-color="#83847F"/>
</linearGradient>
<radialGradient id="paint5_radial_206_438" cx="0" cy="0" r="1" gradientUnits="userSpaceOnUse" gradientTransform="translate(452.725 76.67) rotate(90) scale(7.5557 7.98622)">
<stop offset="0.213542"/>
<stop offset="0.270833" stop-color="#081A32"/>
<stop offset="0.395833" stop-color="#1F3A58"/>
<stop offset="0.515625" stop-color="#375F90"/>
<stop offset="0.713542" stop-color="#274871"/>
<stop offset="0.916667" stop-color="#0D1528"/>
</radialGradient>
<radialGradient id="paint6_angular_206_438" cx="0" cy="0" r="1" gradientUnits="userSpaceOnUse" gradientTransform="translate(452.725 76.67) rotate(90) scale(7.5557 7.98622)">
<stop offset="0.411458" stop-opacity="0"/>
<stop offset="0.510417"/>
<stop offset="0.817708" stop-opacity="0"/>
</radialGradient>
<radialGradient id="paint7_angular_206_438" cx="0" cy="0" r="1" gradientUnits="userSpaceOnUse" gradientTransform="translate(452.725 76.67) rotate(90) scale(7.5557 7.98622)">
<stop/>
<stop offset="0.166667" stop-opacity="0"/>
<stop offset="0.885417" stop-opacity="0"/>
</radialGradient>
</defs>
</svg>
