<svg width="53" height="53" viewBox="0 0 53 53" fill="none" xmlns="http://www.w3.org/2000/svg">
<path d="M35.4832 5.05518H17.2567C9.33974 5.05518 4.62 9.77493 4.62 17.6919V35.8967C4.62 43.8354 9.33974 48.5552 17.2567 48.5552H35.4615C43.3785 48.5552 48.0982 43.8354 48.0982 35.9184V17.6919C48.12 9.77493 43.4002 5.05518 35.4832 5.05518ZM39.42 28.4364H28.0012V39.8552C28.0012 40.7469 27.2617 41.4864 26.37 41.4864C25.4782 41.4864 24.7387 40.7469 24.7387 39.8552V28.4364H13.32C12.4282 28.4364 11.6887 27.6969 11.6887 26.8052C11.6887 25.9134 12.4282 25.1739 13.32 25.1739H24.7387V13.7552C24.7387 12.8634 25.4782 12.1239 26.37 12.1239C27.2617 12.1239 28.0012 12.8634 28.0012 13.7552V25.1739H39.42C40.3117 25.1739 41.0512 25.9134 41.0512 26.8052C41.0512 27.6969 40.3117 28.4364 39.42 28.4364Z" fill="#094E81"/>
</svg>
