<svg width="53" height="53" viewBox="0 0 53 53" fill="none" xmlns="http://www.w3.org/2000/svg">
<g id="arrow-up">
<g id="vuesax/bold/arrow-up">
<g id="arrow-up_2">
<path id="Vector" d="M35.4824 5.05499H17.2559C9.33889 5.05499 4.61914 9.77474 4.61914 17.6917V35.8965C4.61914 43.8352 9.33889 48.555 17.2559 48.555H35.4606C43.3776 48.555 48.0974 43.8352 48.0974 35.9182V17.6917C48.1191 9.77474 43.3994 5.05499 35.4824 5.05499ZM36.8526 24.2385C36.2219 24.8692 35.1779 24.8692 34.5471 24.2385L28.0004 17.6917V39.855C28.0004 40.7467 27.2609 41.4862 26.3691 41.4862C25.4774 41.4862 24.7379 40.7467 24.7379 39.855V17.6917L18.1911 24.2385C17.5604 24.8692 16.5164 24.8692 15.8856 24.2385C15.5594 23.9122 15.4071 23.499 15.4071 23.0857C15.4071 22.6725 15.5811 22.2375 15.8856 21.933L25.2164 12.6022C25.5209 12.2977 25.9341 12.1237 26.3691 12.1237C26.8041 12.1237 27.2174 12.2977 27.5219 12.6022L36.8526 21.933C37.4834 22.5637 37.4834 23.586 36.8526 24.2385Z" fill="#094E81"/>
</g>
</g>
</g>
</svg>
