<svg width="20" height="20" viewBox="0 0 20 20" fill="none" xmlns="http://www.w3.org/2000/svg">
<g id="vuesax/outline/arrow-swap">
<g id="arrow-swap">
<path id="Vector" d="M7.51009 17.708C7.42795 17.7084 7.34656 17.6925 7.27066 17.661C7.19477 17.6296 7.12591 17.5834 7.06809 17.525L2.89109 13.35C2.77386 13.2328 2.70801 13.0738 2.70801 12.908C2.70801 12.7423 2.77386 12.5833 2.89109 12.466C3.00832 12.3488 3.16731 12.283 3.33309 12.283C3.49887 12.283 3.65786 12.3488 3.77509 12.466L7.95009 16.641C8.06606 16.7587 8.13107 16.9173 8.13107 17.0825C8.13107 17.2478 8.06606 17.4064 7.95009 17.524C7.83176 17.6385 7.67467 17.7042 7.51009 17.708Z" fill="#4D4D4D"/>
<path id="Vector_2" d="M7.50781 17.709C7.34246 17.7077 7.18424 17.6414 7.06732 17.5245C6.95039 17.4076 6.88412 17.2493 6.88281 17.084V2.91699C6.88412 2.75164 6.95039 2.59342 7.06732 2.4765C7.18424 2.35957 7.34246 2.2933 7.50781 2.29199C7.67317 2.2933 7.83138 2.35957 7.94831 2.4765C8.06524 2.59342 8.13151 2.75164 8.13281 2.91699V17.084C8.13151 17.2493 8.06524 17.4076 7.94831 17.5245C7.83138 17.6414 7.67317 17.7077 7.50781 17.709Z" fill="#4D4D4D"/>
<path id="Vector_3" d="M16.6771 7.71707C16.5949 7.71748 16.5135 7.7015 16.4377 7.67008C16.3618 7.63866 16.2929 7.59242 16.2351 7.53407L12.0581 3.35907C11.9409 3.24185 11.875 3.08286 11.875 2.91707C11.875 2.75129 11.9409 2.5923 12.0581 2.47507C12.1753 2.35785 12.3343 2.29199 12.5001 2.29199C12.6659 2.29199 12.8249 2.35785 12.9421 2.47507L17.1171 6.65007C17.2331 6.76776 17.2981 6.92635 17.2981 7.09157C17.2981 7.2568 17.2331 7.41539 17.1171 7.53307C17.0596 7.59136 16.9911 7.63764 16.9155 7.66923C16.84 7.70082 16.759 7.71708 16.6771 7.71707Z" fill="#4D4D4D"/>
<path id="Vector_4" d="M12.4922 17.709C12.3268 17.7077 12.1686 17.6414 12.0517 17.5245C11.9348 17.4076 11.8685 17.2493 11.8672 17.084V2.91699C11.8685 2.75164 11.9348 2.59342 12.0517 2.4765C12.1686 2.35957 12.3268 2.2933 12.4922 2.29199C12.6575 2.2933 12.8158 2.35957 12.9327 2.4765C13.0496 2.59342 13.1159 2.75164 13.1172 2.91699V17.084C13.1173 17.1661 13.1012 17.2474 13.0699 17.3233C13.0385 17.3992 12.9925 17.4682 12.9344 17.5262C12.8764 17.5843 12.8074 17.6303 12.7315 17.6617C12.6556 17.693 12.5743 17.7091 12.4922 17.709Z" fill="#4D4D4D"/>
</g>
</g>
</svg>
