<svg width="25" height="24" viewBox="0 0 25 24" fill="none" xmlns="http://www.w3.org/2000/svg">
<path d="M12.7 11.8002L11.29 13.2102C10.51 13.9902 10.51 15.2602 11.29 16.0402C12.07 16.8202 13.34 16.8202 14.12 16.0402L16.34 13.8202C17.9 12.2602 17.9 9.73023 16.34 8.16023C14.78 6.60023 12.25 6.60023 10.68 8.16023L8.26 10.5802C6.92 11.9202 6.92 14.0902 8.26 15.4302" stroke="white" stroke-width="1.5" stroke-linecap="round" stroke-linejoin="round"/>
<path d="M9.5 22H15.5C20.5 22 22.5 20 22.5 15V9C22.5 4 20.5 2 15.5 2H9.5C4.5 2 2.5 4 2.5 9V15C2.5 20 4.5 22 9.5 22Z" stroke="white" stroke-width="1.5" stroke-linecap="round" stroke-linejoin="round"/>
</svg>
