<svg width="87" height="87" viewBox="0 0 87 87" fill="none" xmlns="http://www.w3.org/2000/svg">
<path opacity="0.16" d="M80.04 0H6.96C3.1161 0 0 3.1161 0 6.96V80.04C0 83.8839 3.1161 87 6.96 87H80.04C83.8839 87 87 83.8839 87 80.04V6.96C87 3.1161 83.8839 0 80.04 0Z" fill="#094E81"/>
<path d="M52.5913 23.0552H36.1483C27.9268 23.0552 25.8823 25.2519 25.8823 34.0172V58.5077C25.8823 64.2932 29.0578 65.6634 32.9076 61.5309L32.9293 61.5092C34.7128 59.6169 37.4316 59.7692 38.9758 61.8354L41.1726 64.7717C42.9343 67.0989 45.7836 67.0989 47.5453 64.7717L49.7421 61.8354C51.3081 59.7474 54.0268 59.5952 55.8103 61.5092C59.6818 65.6417 62.8356 64.2714 62.8356 58.4859V34.0172C62.8573 25.2519 60.8128 23.0552 52.5913 23.0552ZM50.5468 40.4334L49.4593 41.5427H49.4376L42.8473 48.1329C42.5646 48.4157 41.9773 48.7202 41.5641 48.7637L38.6278 49.1987C37.5621 49.3509 36.8226 48.5897 36.9748 47.5457L37.3881 44.5877C37.4533 44.1744 37.7361 43.6089 38.0188 43.3044L44.6308 36.7142L45.7183 35.6049C46.4361 34.8872 47.2408 34.3652 48.1108 34.3652C48.8503 34.3652 49.6551 34.7132 50.5468 35.6049C52.5043 37.5624 51.8736 39.1067 50.5468 40.4334Z" fill="#094E81"/>
</svg>
