<svg width="53" height="53" viewBox="0 0 53 53" fill="none" xmlns="http://www.w3.org/2000/svg">
<path d="M38.5499 12.2544L26.2612 5.64236C24.9562 4.94636 23.4119 4.94636 22.1069 5.64236L9.83994 12.2544C8.94819 12.7546 8.38269 13.7116 8.38269 14.7556C8.38269 15.8214 8.92644 16.7784 9.83994 17.2569L22.1287 23.8689C22.7812 24.2169 23.4989 24.3909 24.1949 24.3909C24.8909 24.3909 25.6304 24.2169 26.2612 23.8689L38.5499 17.2569C39.4417 16.7784 40.0072 15.8214 40.0072 14.7556C40.0072 13.7116 39.4417 12.7546 38.5499 12.2544Z" fill="#094E81"/>
<path d="M20.106 26.1744L8.68724 20.4759C7.79549 20.0192 6.79499 20.0844 5.94674 20.5847C5.12024 21.1067 4.62 21.9984 4.62 22.9772V33.7652C4.62 35.6357 5.664 37.3104 7.33875 38.1587L18.7575 43.8572C19.149 44.0529 19.584 44.1617 20.019 44.1617C20.5192 44.1617 21.0412 44.0094 21.498 43.7484C22.3245 43.2264 22.8247 42.3347 22.8247 41.3559V30.5679C22.803 28.6974 21.759 27.0227 20.106 26.1744Z" fill="#094E81"/>
<path d="M43.77 22.9772V28.3277C42.726 28.0232 41.6168 27.8927 40.5075 27.8927C37.5495 27.8927 34.6568 28.9149 32.373 30.7419C29.241 33.1997 27.4575 36.9189 27.4575 40.9427C27.4575 42.0084 27.588 43.0742 27.8708 44.0964C27.5445 44.0529 27.2183 43.9224 26.9138 43.7267C26.0873 43.2264 25.587 42.3347 25.587 41.3559V30.5679C25.587 28.6974 26.631 27.0227 28.284 26.1744L39.7028 20.4759C40.5945 20.0192 41.595 20.0844 42.4433 20.5847C43.2698 21.1067 43.77 21.9984 43.77 22.9772Z" fill="#094E81"/>
<path d="M47.424 34.0262C45.4883 32.0904 42.9218 31.1117 40.377 31.1552C37.9193 31.1769 35.4615 32.1557 33.591 34.0262C32.286 35.3094 31.4378 36.9189 31.0245 38.5937C30.7853 39.5072 30.6983 40.4424 30.7635 41.3777V41.4864C30.7635 41.6387 30.7853 41.7692 30.807 41.9432C30.807 41.9432 30.807 41.9432 30.8288 41.9649V42.0302C31.0245 44.1617 31.938 46.2279 33.591 47.8592C36.114 50.3822 39.6593 51.2304 42.8565 50.4257C43.8135 50.1864 44.7488 49.7949 45.6188 49.2729C46.2713 48.9032 46.8803 48.4247 47.424 47.8592C49.0553 46.2279 49.9905 44.1617 50.1863 42.0084C50.208 42.0084 50.208 41.9649 50.208 41.9432C50.2515 41.7909 50.2515 41.6169 50.2515 41.4647C50.2515 41.4429 50.2733 41.3994 50.2733 41.3559C50.4038 38.7242 49.4468 36.0272 47.424 34.0262ZM44.2703 44.6619C43.6395 45.2927 42.6173 45.2927 41.9648 44.6619L40.5293 43.2264L39.0503 44.7054C38.3978 45.3579 37.3755 45.3579 36.7448 44.7054C36.0923 44.0747 36.0923 43.0524 36.7448 42.3999L38.2238 40.9209L36.7883 39.4854C36.1575 38.8329 36.1575 37.8107 36.7883 37.1799C37.4408 36.5274 38.463 36.5274 39.1155 37.1799L40.5293 38.6154L41.8995 37.2234C42.552 36.5927 43.5743 36.5927 44.2268 37.2234C44.8575 37.8759 44.8575 38.8982 44.2268 39.5507L42.8348 40.9209L44.2703 42.3347C44.9228 42.9872 44.9228 44.0094 44.2703 44.6619Z" fill="#094E81"/>
</svg>
