<svg width="53" height="53" viewBox="0 0 53 53" fill="none" xmlns="http://www.w3.org/2000/svg">
<path d="M38.5499 12.2542L26.2612 5.64224C24.9562 4.94624 23.4119 4.94624 22.1069 5.64224L9.83994 12.2542C8.94819 12.7545 8.38269 13.7115 8.38269 14.7555C8.38269 15.8212 8.92644 16.7782 9.83994 17.2567L22.1287 23.8687C22.7812 24.2167 23.4989 24.3907 24.1949 24.3907C24.8909 24.3907 25.6304 24.2167 26.2612 23.8687L38.5499 17.2567C39.4417 16.7782 40.0072 15.8212 40.0072 14.7555C40.0072 13.7115 39.4417 12.7545 38.5499 12.2542Z" fill="#094E81"/>
<path d="M20.106 26.1742L8.68724 20.4757C7.79549 20.019 6.79499 20.0842 5.94674 20.5845C5.12024 21.1065 4.62 21.9982 4.62 22.977V33.765C4.62 35.6355 5.664 37.3102 7.33875 38.1585L18.7575 43.857C19.149 44.0527 19.584 44.1615 20.019 44.1615C20.5192 44.1615 21.0412 44.0092 21.498 43.7482C22.3245 43.2262 22.8247 42.3345 22.8247 41.3557V30.5677C22.803 28.6972 21.759 27.0225 20.106 26.1742Z" fill="#094E81"/>
<path d="M43.77 22.977V28.3275C42.726 28.023 41.6168 27.8925 40.5075 27.8925C37.5495 27.8925 34.6568 28.9147 32.373 30.7417C29.241 33.1995 27.4575 36.9187 27.4575 40.9425C27.4575 42.0082 27.588 43.074 27.8708 44.0962C27.5445 44.0527 27.2183 43.9222 26.9138 43.7265C26.0873 43.2262 25.587 42.3345 25.587 41.3557V30.5677C25.587 28.6972 26.631 27.0225 28.284 26.1742L39.7028 20.4757C40.5945 20.019 41.595 20.0842 42.4433 20.5845C43.2698 21.1065 43.77 21.9982 43.77 22.977Z" fill="#094E81"/>
<path d="M48.0765 34.7873C46.293 32.5905 43.5742 31.1985 40.5075 31.1985C38.202 31.1985 36.0705 32.0033 34.3957 33.3518C32.1337 35.1353 30.72 37.8975 30.72 40.986C30.72 42.813 31.242 44.553 32.1337 46.032C32.721 47.0108 33.4605 47.859 34.3305 48.555H34.3522C36.027 49.947 38.1802 50.7735 40.5075 50.7735C42.987 50.7735 45.2272 49.86 46.9455 48.3375C47.7067 47.685 48.3592 46.902 48.8812 46.032C49.773 44.553 50.295 42.813 50.295 40.986C50.295 38.637 49.4685 36.462 48.0765 34.7873ZM45.423 39.768L40.203 44.5965C39.8985 44.8793 39.4852 45.0315 39.0937 45.0315C38.6805 45.0315 38.2672 44.8793 37.941 44.553L35.5267 42.1388C34.896 41.508 34.896 40.464 35.5267 39.8333C36.1575 39.2025 37.2015 39.2025 37.8322 39.8333L39.1372 41.1383L43.2045 37.3755C43.857 36.7665 44.901 36.81 45.51 37.4625C46.1407 38.1368 46.0972 39.159 45.423 39.768Z" fill="#094E81"/>
</svg>
