<svg width="53" height="53" viewBox="0 0 53 53" fill="none" xmlns="http://www.w3.org/2000/svg">
<path d="M38.5499 12.2544L26.2612 5.64236C24.9562 4.94636 23.4119 4.94636 22.1069 5.64236L9.83994 12.2544C8.94819 12.7546 8.38269 13.7116 8.38269 14.7556C8.38269 15.8214 8.92644 16.7784 9.83994 17.2569L22.1287 23.8689C22.7812 24.2169 23.4989 24.3909 24.1949 24.3909C24.8909 24.3909 25.6304 24.2169 26.2612 23.8689L38.5499 17.2569C39.4417 16.7784 40.0072 15.8214 40.0072 14.7556C40.0072 13.7116 39.4417 12.7546 38.5499 12.2544Z" fill="#094E81"/>
<path d="M20.106 26.1744L8.68724 20.4759C7.79549 20.0192 6.79499 20.0844 5.94674 20.5847C5.12024 21.1067 4.62 21.9984 4.62 22.9772V33.7652C4.62 35.6357 5.664 37.3104 7.33875 38.1587L18.7575 43.8572C19.149 44.0529 19.584 44.1617 20.019 44.1617C20.5192 44.1617 21.0412 44.0094 21.498 43.7484C22.3245 43.2264 22.8247 42.3347 22.8247 41.3559V30.5679C22.803 28.6974 21.759 27.0227 20.106 26.1744Z" fill="#094E81"/>
<path d="M43.77 22.9772V28.3277C42.726 28.0232 41.6168 27.8927 40.5075 27.8927C37.5495 27.8927 34.6568 28.9149 32.373 30.7419C29.241 33.1997 27.4575 36.9189 27.4575 40.9427C27.4575 42.0084 27.588 43.0742 27.8708 44.0964C27.5445 44.0529 27.2183 43.9224 26.9138 43.7267C26.0873 43.2264 25.587 42.3347 25.587 41.3559V30.5679C25.587 28.6974 26.631 27.0227 28.284 26.1744L39.7028 20.4759C40.5945 20.0192 41.595 20.0844 42.4433 20.5847C43.2698 21.1067 43.77 21.9984 43.77 22.9772Z" fill="#094E81"/>
<path d="M49.3815 47.4675L47.5545 45.6405C48.5115 44.205 49.077 42.465 49.077 40.6162C49.077 35.5485 44.9662 31.4377 39.8985 31.4377C34.8307 31.4377 30.72 35.5485 30.72 40.6162C30.72 45.684 34.8307 49.7947 39.8985 49.7947C41.7472 49.7947 43.4872 49.2292 44.9227 48.2722L46.7497 50.0992C47.1195 50.469 47.5762 50.643 48.0547 50.643C48.5332 50.643 49.0117 50.469 49.3597 50.0992C50.0992 49.3597 50.0992 48.1852 49.3815 47.4675Z" fill="#094E81"/>
</svg>
