<svg width="53" height="53" viewBox="0 0 53 53" fill="none" xmlns="http://www.w3.org/2000/svg">
<path d="M44.2258 17.7136L27.4783 27.4141C26.8041 27.8056 25.9558 27.8056 25.2598 27.4141L8.51232 17.7136C7.31607 17.0176 7.01157 15.3864 7.92507 14.3641C8.55582 13.6464 9.27357 13.0591 10.0348 12.6459L21.8233 6.12086C24.3463 4.70711 28.4353 4.70711 30.9583 6.12086L42.7468 12.6459C43.5081 13.0591 44.2258 13.6681 44.8566 14.3641C45.7266 15.3864 45.4221 17.0176 44.2258 17.7136Z" fill="#094E81"/>
<path d="M25.1291 31.4595V46.293C25.1291 47.946 23.4544 49.0335 21.9754 48.3157C17.4949 46.119 9.94764 42.0082 9.94764 42.0082C7.29414 40.5075 5.11914 36.723 5.11914 33.6127V22.3897C5.11914 20.6715 6.92439 19.584 8.40339 20.4322L24.0416 29.502C24.6941 29.9152 25.1291 30.6547 25.1291 31.4595Z" fill="#094E81"/>
<path d="M27.6094 31.4595V46.293C27.6094 47.946 29.2841 49.0335 30.7631 48.3157C35.2436 46.119 42.7909 42.0082 42.7909 42.0082C45.4444 40.5075 47.6194 36.723 47.6194 33.6127V22.3897C47.6194 20.6715 45.8141 19.584 44.3351 20.4322L28.6969 29.502C28.0444 29.9152 27.6094 30.6547 27.6094 31.4595Z" fill="#094E81"/>
</svg>
