<svg width="53" height="53" viewBox="0 0 53 53" fill="none" xmlns="http://www.w3.org/2000/svg">
<g id="briefcase">
<g id="vuesax/bold/briefcase">
<path id="Vector" d="M46.1395 15.8865C44.2907 13.842 41.2022 12.8197 36.7217 12.8197H36.1997V12.7327C36.1997 9.07875 36.1997 4.55475 28.0217 4.55475H24.7157C16.5377 4.55475 16.5377 9.1005 16.5377 12.7327V12.8415H16.0157C11.5135 12.8415 8.44671 13.8637 6.59796 15.9082C4.44471 18.3007 4.50996 21.5197 4.72746 23.7165L4.74921 23.8687L4.94416 25.9158C4.95843 26.0656 5.03926 26.2009 5.16486 26.2837C5.611 26.5779 6.70305 27.2911 7.31571 27.6315C7.62021 27.8272 7.94646 28.0012 8.27271 28.1752C11.992 30.2197 16.081 31.59 20.2352 32.2642C20.431 34.3087 21.3227 36.7012 26.086 36.7012C30.8492 36.7012 31.7845 34.3305 31.9367 32.2207C36.3737 31.503 40.6585 29.9587 44.53 27.6967C44.6605 27.6315 44.7475 27.5662 44.8562 27.501C45.793 26.9715 46.7678 26.3086 47.638 25.6729C47.7506 25.5907 47.823 25.4647 47.8384 25.3262L47.9012 24.7605L48.01 23.7382C48.0317 23.6077 48.0317 23.499 48.0535 23.3467C48.2275 21.15 48.184 18.1485 46.1395 15.8865ZM28.7395 30.7852C28.7395 33.0907 28.7395 33.4387 26.0642 33.4387C23.389 33.4387 23.389 33.0255 23.389 30.807V28.0665H28.7395V30.7852ZM19.648 12.8197V12.7327C19.648 9.03525 19.648 7.665 24.7157 7.665H28.0217C33.0895 7.665 33.0895 9.057 33.0895 12.7327V12.8415H19.648V12.8197Z" fill="#094E81"/>
<path id="Vector_2" d="M46.6206 30.12C46.9729 29.9491 47.3782 30.2293 47.3428 30.6193L46.4669 40.2683C46.0101 44.6183 44.2266 49.0552 34.6566 49.0552H18.0831C8.51312 49.0552 6.72963 44.6183 6.27288 40.29L5.43866 31.1137C5.40362 30.7282 5.80159 30.4492 6.15308 30.6112C8.26835 31.5864 14.0961 34.2056 17.2766 34.9666C17.4418 35.0061 17.5745 35.1232 17.6399 35.28C18.8961 38.2922 21.812 39.8985 26.0871 39.8985C30.3199 39.8985 33.2758 38.2305 34.5342 35.215C34.5997 35.0581 34.7323 34.941 34.8976 34.9015C38.2669 34.0951 44.4256 31.1849 46.6206 30.12Z" fill="#094E81"/>
</g>
</g>
</svg>
