<svg width="53" height="53" viewBox="0 0 53 53" fill="none" xmlns="http://www.w3.org/2000/svg">
<path d="M36.7012 8.44808V5.05508C36.7012 4.16333 35.9617 3.42383 35.0699 3.42383C34.1782 3.42383 33.4387 4.16333 33.4387 5.05508V8.31758H19.3012V5.05508C19.3012 4.16333 18.5617 3.42383 17.6699 3.42383C16.7782 3.42383 16.0387 4.16333 16.0387 5.05508V8.44808C10.1662 8.99183 7.31693 12.4936 6.88193 17.6918C6.83843 18.3226 7.36043 18.8446 7.96943 18.8446H44.7704C45.4012 18.8446 45.9232 18.3008 45.8579 17.6918C45.4229 12.4936 42.5737 8.99183 36.7012 8.44808Z" fill="#094E81"/>
<path d="M43.7699 22.1072H8.96992C7.77367 22.1072 6.79492 23.0859 6.79492 24.2822V37.6802C6.79492 44.2052 10.0574 48.5552 17.6699 48.5552H35.0699C42.6824 48.5552 45.9449 44.2052 45.9449 37.6802V24.2822C45.9449 23.0859 44.9662 22.1072 43.7699 22.1072ZM32.5469 33.3084L31.4594 34.4177H31.4377L24.8474 41.0079C24.5647 41.2907 23.9774 41.5952 23.5642 41.6387L20.6279 42.0737C19.5622 42.2259 18.8227 41.4647 18.9749 40.4207L19.3882 37.4627C19.4534 37.0494 19.7362 36.4839 20.0189 36.1794L26.6309 29.5892L27.7184 28.4799C28.4362 27.7622 29.2409 27.2402 30.1109 27.2402C30.8504 27.2402 31.6552 27.5882 32.5469 28.4799C34.5044 30.4374 33.8737 31.9817 32.5469 33.3084Z" fill="#094E81"/>
</svg>
