<svg width="20" height="20" viewBox="0 0 20 20" fill="none" xmlns="http://www.w3.org/2000/svg">
<path d="M10 0C8.02219 0 6.08879 0.58649 4.4443 1.6853C2.79981 2.78412 1.51809 4.3459 0.761209 6.17317C0.00433284 8.00043 -0.193701 10.0111 0.192152 11.9509C0.578004 13.8907 1.53041 15.6725 2.92894 17.0711C4.32746 18.4696 6.10929 19.422 8.0491 19.8079C9.98891 20.1937 11.9996 19.9957 13.8268 19.2388C15.6541 18.4819 17.2159 17.2002 18.3147 15.5557C19.4135 13.9112 20 11.9778 20 10C19.9958 7.34913 18.9408 4.80805 17.0664 2.93361C15.192 1.05916 12.6509 0.00423124 10 0ZM13.36 12.3C13.4995 12.4411 13.5777 12.6316 13.5777 12.83C13.5777 13.0284 13.4995 13.2189 13.36 13.36C13.2905 13.4298 13.2079 13.4852 13.117 13.5229C13.026 13.5607 12.9285 13.5802 12.83 13.5802C12.7315 13.5802 12.634 13.5607 12.543 13.5229C12.4521 13.4852 12.3695 13.4298 12.3 13.36L10 11.06L7.7 13.36C7.63051 13.4298 7.54791 13.4852 7.45696 13.5229C7.36601 13.5607 7.26849 13.5802 7.17 13.5802C7.07152 13.5802 6.974 13.5607 6.88305 13.5229C6.7921 13.4852 6.7095 13.4298 6.64 13.36C6.50052 13.2189 6.4223 13.0284 6.4223 12.83C6.4223 12.6316 6.50052 12.4411 6.64 12.3L8.94 10L6.64 7.7C6.50752 7.55783 6.4354 7.36978 6.43883 7.17548C6.44226 6.98118 6.52097 6.79579 6.65838 6.65838C6.7958 6.52097 6.98118 6.44225 7.17548 6.43883C7.36978 6.4354 7.55783 6.50752 7.7 6.64L10 8.94L12.3 6.64C12.4422 6.50752 12.6302 6.4354 12.8245 6.43883C13.0188 6.44225 13.2042 6.52097 13.3416 6.65838C13.479 6.79579 13.5578 6.98118 13.5612 7.17548C13.5646 7.36978 13.4925 7.55783 13.36 7.7L11.06 10L13.36 12.3Z" fill="white"/>
</svg>
