<svg width="24" height="24" viewBox="0 0 24 24" fill="none" xmlns="http://www.w3.org/2000/svg">
<path d="M20.5 10.19H17.61C16.47 10.1884 15.3772 9.73483 14.5712 8.92877C13.7651 8.1227 13.3115 7.0299 13.31 5.88996V2.99996C13.31 2.73474 13.2046 2.48039 13.0171 2.29285C12.8295 2.10532 12.5752 1.99996 12.31 1.99996H8.06996C7.32737 1.95745 6.58418 2.0724 5.88913 2.33728C5.19408 2.60216 4.56288 3.01098 4.03693 3.53693C3.51098 4.06288 3.10216 4.69408 2.83728 5.38913C2.5724 6.08418 2.45745 6.82737 2.49996 7.56996V16.43C2.45745 17.1726 2.5724 17.9157 2.83728 18.6108C3.10216 19.3058 3.51098 19.937 4.03693 20.463C4.56288 20.9889 5.19408 21.3978 5.88913 21.6626C6.58418 21.9275 7.32737 22.0425 8.06996 22H15.93C16.6726 22.0425 17.4157 21.9275 18.1108 21.6626C18.8058 21.3978 19.437 20.9889 19.963 20.463C20.4889 19.937 20.8978 19.3058 21.1626 18.6108C21.4275 17.9157 21.5425 17.1726 21.5 16.43V11.19C21.5 10.9247 21.3946 10.6704 21.2071 10.4829C21.0195 10.2953 20.7652 10.19 20.5 10.19Z" fill="white"/>
<path d="M15.7999 2.21005C15.71 2.11863 15.5952 2.05566 15.4698 2.02897C15.3444 2.00228 15.2139 2.01305 15.0945 2.05994C14.9752 2.10682 14.8723 2.18776 14.7985 2.29268C14.7248 2.3976 14.6836 2.52187 14.6799 2.65005V6.14005C14.6946 6.85745 14.9916 7.54013 15.5064 8.03997C16.0213 8.53982 16.7124 8.81652 17.4299 8.81005C18.3799 8.82005 19.6999 8.82005 20.8299 8.82005C20.9553 8.82342 21.0788 8.78936 21.1848 8.72221C21.2907 8.65506 21.3742 8.55787 21.4246 8.44304C21.4751 8.32822 21.4901 8.20097 21.4679 8.07754C21.4457 7.95411 21.3872 7.84009 21.2999 7.75005C19.8599 6.30005 17.2799 3.69005 15.7999 2.21005Z" fill="white"/>
</svg>
