<svg width="53" height="53" viewBox="0 0 53 53" fill="none" xmlns="http://www.w3.org/2000/svg">
<g id="document-text">
<g id="vuesax/bold/document-text">
<g id="document-text_2">
<path id="Vector" d="M35.0699 5.05499H17.6699C10.0574 5.05499 6.79492 9.40499 6.79492 15.93V37.68C6.79492 44.205 10.0574 48.555 17.6699 48.555H35.0699C42.6824 48.555 45.9449 44.205 45.9449 37.68V15.93C45.9449 9.40499 42.6824 5.05499 35.0699 5.05499ZM17.6699 27.3487H26.3699C27.2617 27.3487 28.0012 28.0882 28.0012 28.98C28.0012 29.8717 27.2617 30.6112 26.3699 30.6112H17.6699C16.7782 30.6112 16.0387 29.8717 16.0387 28.98C16.0387 28.0882 16.7782 27.3487 17.6699 27.3487ZM35.0699 39.3112H17.6699C16.7782 39.3112 16.0387 38.5717 16.0387 37.68C16.0387 36.7882 16.7782 36.0487 17.6699 36.0487H35.0699C35.9617 36.0487 36.7012 36.7882 36.7012 37.68C36.7012 38.5717 35.9617 39.3112 35.0699 39.3112ZM40.5074 20.8237H36.1574C32.8514 20.8237 30.1762 18.1485 30.1762 14.8425V10.4925C30.1762 9.60074 30.9157 8.86124 31.8074 8.86124C32.6992 8.86124 33.4387 9.60074 33.4387 10.4925V14.8425C33.4387 16.3432 34.6567 17.5612 36.1574 17.5612H40.5074C41.3992 17.5612 42.1387 18.3007 42.1387 19.1925C42.1387 20.0842 41.3992 20.8237 40.5074 20.8237Z" fill="#094E81"/>
</g>
</g>
</g>
</svg>
