<svg width="53" height="53" viewBox="0 0 53 53" fill="none" xmlns="http://www.w3.org/2000/svg">
<g id="document">
<g id="vuesax/bold/document">
<g id="document_2">
<path id="Vector" d="M35.4824 5.05499H17.2559C9.33889 5.05499 4.61914 9.77474 4.61914 17.6917V35.8965C4.61914 43.8352 9.33889 48.555 17.2559 48.555H35.4606C43.3776 48.555 48.0974 43.8352 48.0974 35.9182V17.6917C48.1191 9.77474 43.3994 5.05499 35.4824 5.05499ZM34.5254 34.9612H18.2129C17.3211 34.9612 16.5816 34.2217 16.5816 33.33C16.5816 32.4382 17.3211 31.6987 18.2129 31.6987H34.5254C35.4171 31.6987 36.1566 32.4382 36.1566 33.33C36.1566 34.2217 35.4171 34.9612 34.5254 34.9612ZM34.5254 21.9112H18.2129C17.3211 21.9112 16.5816 21.1717 16.5816 20.28C16.5816 19.3882 17.3211 18.6487 18.2129 18.6487H34.5254C35.4171 18.6487 36.1566 19.3882 36.1566 20.28C36.1566 21.1717 35.4171 21.9112 34.5254 21.9112Z" fill="#094E81"/>
</g>
</g>
</g>
</svg>
