<svg width="24" height="24" viewBox="0 0 24 24" fill="none" xmlns="http://www.w3.org/2000/svg">
<path d="M15.8001 2.21005C15.7101 2.11863 15.5953 2.05566 15.4699 2.02897C15.3445 2.00228 15.214 2.01305 15.0947 2.05994C14.9753 2.10682 14.8724 2.18776 14.7987 2.29268C14.7249 2.3976 14.6837 2.52187 14.6801 2.65005V6.14005C14.6948 6.85745 14.9917 7.54013 15.5066 8.03997C16.0214 8.53982 16.7125 8.81652 17.4301 8.81005C18.3801 8.82005 19.7001 8.82005 20.8301 8.82005C20.9554 8.82342 21.079 8.78936 21.1849 8.72221C21.2908 8.65506 21.3743 8.55787 21.4247 8.44304C21.4752 8.32822 21.4903 8.20097 21.468 8.07754C21.4458 7.95411 21.3874 7.84009 21.3001 7.75005C19.8601 6.30005 17.2801 3.69005 15.8001 2.21005Z" fill="white"/>
<path d="M20.5 10.19H17.61C16.47 10.1884 15.3772 9.73483 14.5712 8.92877C13.7651 8.1227 13.3115 7.0299 13.31 5.88996V2.99996C13.31 2.73474 13.2046 2.48039 13.0171 2.29285C12.8295 2.10532 12.5752 1.99996 12.31 1.99996H8.06996C7.32737 1.95745 6.58418 2.0724 5.88913 2.33728C5.19408 2.60216 4.56288 3.01098 4.03693 3.53693C3.51098 4.06288 3.10216 4.69408 2.83728 5.38913C2.5724 6.08418 2.45745 6.82737 2.49996 7.56996V16.43C2.45745 17.1726 2.5724 17.9157 2.83728 18.6108C3.10216 19.3058 3.51098 19.937 4.03693 20.463C4.56288 20.9889 5.19408 21.3978 5.88913 21.6626C6.58418 21.9275 7.32737 22.0425 8.06996 22H15.93C16.6726 22.0425 17.4157 21.9275 18.1108 21.6626C18.8058 21.3978 19.437 20.9889 19.963 20.463C20.4889 19.937 20.8978 19.3058 21.1626 18.6108C21.4275 17.9157 21.5425 17.1726 21.5 16.43V11.19C21.5 10.9247 21.3946 10.6704 21.2071 10.4829C21.0195 10.2953 20.7652 10.19 20.5 10.19ZM11.5 17.75H7.49996C7.30105 17.75 7.11028 17.6709 6.96963 17.5303C6.82898 17.3896 6.74996 17.1989 6.74996 17C6.74996 16.801 6.82898 16.6103 6.96963 16.4696C7.11028 16.329 7.30105 16.25 7.49996 16.25H11.5C11.6989 16.25 11.8896 16.329 12.0303 16.4696C12.1709 16.6103 12.25 16.801 12.25 17C12.25 17.1989 12.1709 17.3896 12.0303 17.5303C11.8896 17.6709 11.6989 17.75 11.5 17.75ZM13.5 13.75H7.49996C7.30105 13.75 7.11028 13.6709 6.96963 13.5303C6.82898 13.3896 6.74996 13.1989 6.74996 13C6.74996 12.801 6.82898 12.6103 6.96963 12.4696C7.11028 12.329 7.30105 12.25 7.49996 12.25H13.5C13.6989 12.25 13.8896 12.329 14.0303 12.4696C14.1709 12.6103 14.25 12.801 14.25 13C14.25 13.1989 14.1709 13.3896 14.0303 13.5303C13.8896 13.6709 13.6989 13.75 13.5 13.75Z" fill="white"/>
</svg>
