<svg width="24" height="24" viewBox="0 0 24 24" fill="none" xmlns="http://www.w3.org/2000/svg">
<path d="M21 22H3C2.80149 21.9987 2.61149 21.9193 2.47112 21.7789C2.33075 21.6385 2.25131 21.4485 2.25 21.25C2.25131 21.0515 2.33075 20.8615 2.47112 20.7211C2.61149 20.5807 2.80149 20.5013 3 20.5H21C21.1985 20.5013 21.3885 20.5807 21.5289 20.7211C21.6693 20.8615 21.7487 21.0515 21.75 21.25C21.7487 21.4485 21.6693 21.6385 21.5289 21.7789C21.3885 21.9193 21.1985 21.9987 21 22Z" fill="#094E81"/>
<path d="M19.0196 3.47991C17.0796 1.53991 15.1796 1.48991 13.1896 3.47991L11.9796 4.68991C11.9297 4.7422 11.8942 4.80656 11.8767 4.87669C11.8592 4.94681 11.8602 5.02029 11.8796 5.08991C12.2621 6.40229 12.9693 7.59703 13.9359 8.56363C14.9025 9.53022 16.0972 10.2375 17.4096 10.6199C17.4486 10.6314 17.4889 10.6382 17.5296 10.6399C17.5835 10.6405 17.637 10.6302 17.6869 10.6095C17.7367 10.5889 17.7819 10.5584 17.8196 10.5199L19.0196 9.30991C19.4468 8.95216 19.7972 8.51173 20.0498 8.01508C20.3025 7.51844 20.452 6.97584 20.4896 6.41991C20.4596 5.85518 20.3137 5.30267 20.0607 4.79684C19.8078 4.29102 19.4534 3.84272 19.0196 3.47991Z" fill="#094E81"/>
<path d="M15.6104 11.53C15.3204 11.39 15.0404 11.25 14.7704 11.09C14.5504 10.96 14.3404 10.82 14.1304 10.67C13.9355 10.5378 13.7485 10.3942 13.5704 10.24C13.5092 10.1954 13.4522 10.1452 13.4004 10.09C13.0276 9.7738 12.683 9.42583 12.3704 9.05005C12.3147 8.99501 12.2645 8.93473 12.2204 8.87005C12.0696 8.69521 11.9293 8.51156 11.8004 8.32005C11.6578 8.13197 11.5275 7.93489 11.4104 7.73005C11.2504 7.46005 11.1104 7.19005 10.9704 6.91005C10.8304 6.61005 10.7204 6.32005 10.6204 6.05005L4.34036 12.33C4.20067 12.4858 4.10414 12.6754 4.06036 12.88L3.52036 16.71C3.46464 17.0213 3.48168 17.3413 3.57016 17.6449C3.65863 17.9484 3.81614 18.2274 4.03036 18.46C4.40874 18.8157 4.91113 19.0095 5.43036 19C5.55098 19 5.67139 18.99 5.79036 18.97L9.63036 18.43C9.83642 18.3904 10.0271 18.2934 10.1804 18.15L16.4604 11.87C16.1804 11.77 15.9104 11.66 15.6104 11.53Z" fill="#094E81"/>
</svg>
