<svg width="87" height="87" viewBox="0 0 87 87" fill="none" xmlns="http://www.w3.org/2000/svg">
<path opacity="0.16" d="M80.04 0H6.96C3.1161 0 0 3.1161 0 6.96V80.04C0 83.8839 3.1161 87 6.96 87H80.04C83.8839 87 87 83.8839 87 80.04V6.96C87 3.1161 83.8839 0 80.04 0Z" fill="#094E81"/>
<path d="M33.4951 23.0552H31.3201C24.7951 23.0552 22.6201 26.9484 22.6201 31.7552V33.9302V64.3802C22.6201 66.1854 24.6646 67.2077 26.1001 66.1202L29.8194 63.3362C30.6894 62.6837 31.9074 62.7707 32.6904 63.5537L36.3009 67.1859C37.1491 68.0342 38.5411 68.0342 39.3894 67.1859L43.0434 63.5319C43.8046 62.7707 45.0226 62.6837 45.8709 63.3362L49.5901 66.1202C51.0256 67.1859 53.0701 66.1637 53.0701 64.3802V27.4052C53.0701 25.0127 55.0276 23.0552 57.4201 23.0552H33.4951ZM42.7389 48.6114H32.9514C32.0596 48.6114 31.3201 47.8719 31.3201 46.9802C31.3201 46.0884 32.0596 45.3489 32.9514 45.3489H42.7389C43.6306 45.3489 44.3701 46.0884 44.3701 46.9802C44.3701 47.8719 43.6306 48.6114 42.7389 48.6114ZM44.3701 39.9114H31.3201C30.4284 39.9114 29.6889 39.1719 29.6889 38.2802C29.6889 37.3884 30.4284 36.6489 31.3201 36.6489H44.3701C45.2619 36.6489 46.0014 37.3884 46.0014 38.2802C46.0014 39.1719 45.2619 39.9114 44.3701 39.9114Z" fill="#094E81"/>
<path d="M57.4416 23.0552V26.3177C58.8771 26.3177 60.2473 26.9049 61.2478 27.8837C62.2918 28.9494 62.8573 30.3197 62.8573 31.7552V37.0187C62.8573 38.6282 62.1396 39.3677 60.5083 39.3677H56.3323V27.4269C56.3323 26.8179 56.8326 26.3177 57.4416 26.3177V23.0552ZM57.4416 23.0552C55.0273 23.0552 53.0698 25.0127 53.0698 27.4269V42.6302H60.5083C63.9448 42.6302 66.1198 40.4552 66.1198 37.0187V31.7552C66.1198 29.3627 65.1411 27.1877 63.5751 25.5999C61.9873 24.0339 59.8341 23.0769 57.4416 23.0552C57.4633 23.0552 57.4416 23.0552 57.4416 23.0552Z" fill="#094E81"/>
</svg>
