<svg width="53" height="53" viewBox="0 0 53 53" fill="none" xmlns="http://www.w3.org/2000/svg">
<path d="M46.8404 19.5187C47.1528 20.1365 46.6729 20.8239 45.9806 20.8239H5.62012C5.06783 20.8239 4.62012 20.3762 4.62012 19.8239V14.6687C4.62012 9.36168 8.92662 5.05518 14.2336 5.05518H19.2796C22.8249 5.05518 23.9341 6.20793 25.3479 8.10018L28.3929 12.1457C29.0671 13.0374 29.1541 13.1462 30.4156 13.1462H36.4839C41.0051 13.1462 44.9275 15.7353 46.8404 19.5187Z" fill="#094E81"/>
<path d="M48.08 25.0821C48.0781 24.5311 47.631 24.0855 47.08 24.0855L5.6201 24.0862C5.06782 24.0862 4.62012 24.5339 4.62012 25.0862V36.9187C4.62012 43.335 9.84012 48.555 16.2564 48.555H36.4839C42.9001 48.555 48.1201 43.335 48.1201 36.9187L48.08 25.0821ZM31.8076 37.1362H28.1319V40.9425C28.1319 41.8342 27.3924 42.5737 26.5006 42.5737C25.5871 42.5737 24.8694 41.8342 24.8694 40.9425V37.1362H20.9326C20.0409 37.1362 19.3014 36.3967 19.3014 35.505C19.3014 34.6132 20.0409 33.8737 20.9326 33.8737H24.8694V30.0675C24.8694 29.1757 25.5871 28.4362 26.5006 28.4362C27.3924 28.4362 28.1319 29.1757 28.1319 30.0675V33.8737H31.8076C32.6994 33.8737 33.4389 34.6132 33.4389 35.505C33.4389 36.3967 32.6994 37.1362 31.8076 37.1362Z" fill="#094E81"/>
</svg>
