<svg width="45" height="42" viewBox="0 0 45 42" fill="none" xmlns="http://www.w3.org/2000/svg">
<path d="M39.9866 14.7585C36.0499 14.7585 34.4404 11.9745 36.3979 8.55975C37.5289 6.5805 36.8546 4.0575 34.8754 2.9265L31.1126 0.773251C29.3944 -0.248999 27.1759 0.360001 26.1536 2.07825L25.9144 2.4915C23.9569 5.90625 20.7379 5.90625 18.7586 2.4915L18.5194 2.07825C17.5406 0.360001 15.3221 -0.248999 13.6039 0.773251L9.84114 2.9265C7.86189 4.0575 7.18764 6.60225 8.31864 8.5815C10.2979 11.9745 8.68839 14.7585 4.75164 14.7585C2.48964 14.7585 0.619141 16.6073 0.619141 18.891V22.719C0.619141 24.981 2.46789 26.8515 4.75164 26.8515C8.68839 26.8515 10.2979 29.6355 8.31864 33.0502C7.18764 35.0295 7.86189 37.5525 9.84114 38.6835L13.6039 40.8368C15.3221 41.859 17.5406 41.25 18.5629 39.5318L18.8021 39.1185C20.7596 35.7038 23.9786 35.7038 25.9579 39.1185L26.1971 39.5318C27.2194 41.25 29.4379 41.859 31.1561 40.8368L34.9189 38.6835C36.8981 37.5525 37.5724 35.0077 36.4414 33.0502C34.4621 29.6355 36.0716 26.8515 40.0084 26.8515C42.2704 26.8515 44.1409 25.0028 44.1409 22.719V18.891C44.1191 16.629 42.2704 14.7585 39.9866 14.7585ZM22.3691 27.8737C18.4759 27.8737 15.3004 24.6982 15.3004 20.805C15.3004 16.9118 18.4759 13.7363 22.3691 13.7363C26.2624 13.7363 29.4379 16.9118 29.4379 20.805C29.4379 24.6982 26.2624 27.8737 22.3691 27.8737Z" fill="#094E81"/>
</svg>
