<svg width="53" height="53" viewBox="0 0 53 53" fill="none" xmlns="http://www.w3.org/2000/svg">
<g id="language-circle">
<g id="vuesax/bold/language-circle">
<g id="language-circle_2">
<path id="Vector" d="M26.3691 5.05499C14.3631 5.05499 4.61914 14.799 4.61914 26.805C4.61914 38.811 14.3631 48.555 26.3691 48.555C38.3751 48.555 48.1191 38.811 48.1191 26.805C48.1191 14.799 38.3751 5.05499 26.3691 5.05499ZM37.2441 38.7022C33.5249 38.7022 30.0449 37.0927 27.2609 34.113C24.1071 36.9622 19.9964 38.7022 15.4941 38.7022C14.6024 38.7022 13.8629 37.9627 13.8629 37.071C13.8629 36.1792 14.6024 35.4397 15.4941 35.4397C23.0414 35.4397 29.2836 29.4585 30.0884 21.8025H26.3691H15.5159C14.6241 21.8025 13.8846 21.063 13.8846 20.1712C13.8846 19.2795 14.6241 18.5617 15.5159 18.5617H24.7379V16.539C24.7379 15.6472 25.4774 14.9077 26.3691 14.9077C27.2609 14.9077 28.0004 15.6472 28.0004 16.539V18.5617H31.6761C31.7196 18.5617 31.7631 18.54 31.8066 18.54C31.8501 18.54 31.8936 18.5617 31.9371 18.5617H37.2224C38.1141 18.5617 38.8536 19.3012 38.8536 20.193C38.8536 21.0847 38.1141 21.8242 37.2224 21.8242H33.3509C33.0246 25.5435 31.6326 28.9582 29.5011 31.7422C31.6761 34.1565 34.3949 35.4615 37.2441 35.4615C38.1359 35.4615 38.8754 36.201 38.8754 37.0927C38.8754 37.9845 38.1359 38.7022 37.2441 38.7022Z" fill="#094E81"/>
</g>
</g>
</g>
</svg>
