<svg width="53" height="53" viewBox="0 0 53 53" fill="none" xmlns="http://www.w3.org/2000/svg">
<path d="M41.9648 15.1471C41.0295 10.4273 37.5278 8.36108 32.6558 8.36108H13.5593C7.81726 8.36108 3.98926 11.2321 3.98926 17.9311V29.1323C3.98926 33.9608 5.96851 36.7883 9.23101 38.0063C9.70951 38.1803 10.2315 38.3326 10.7753 38.4196C11.6453 38.6153 12.5805 38.7023 13.5593 38.7023H32.6775C38.4195 38.7023 42.2475 35.8313 42.2475 29.1323V17.9311C42.2475 16.9088 42.1605 15.9953 41.9648 15.1471ZM12.2978 26.8051C12.2978 27.6968 11.5583 28.4363 10.6665 28.4363C9.77476 28.4363 9.03526 27.6968 9.03526 26.8051V20.2801C9.03526 19.3883 9.77476 18.6488 10.6665 18.6488C11.5583 18.6488 12.2978 19.3883 12.2978 20.2801V26.8051ZM23.1075 29.2846C19.932 29.2846 17.3655 26.7181 17.3655 23.5426C17.3655 20.3671 19.932 17.8006 23.1075 17.8006C26.283 17.8006 28.8495 20.3671 28.8495 23.5426C28.8495 26.7181 26.283 29.2846 23.1075 29.2846ZM37.158 26.8051C37.158 27.6968 36.4185 28.4363 35.5268 28.4363C34.635 28.4363 33.8955 27.6968 33.8955 26.8051V20.2801C33.8955 19.3883 34.635 18.6488 35.5268 18.6488C36.4185 18.6488 37.158 19.3883 37.158 20.2801V26.8051Z" fill="#094E81"/>
<path d="M48.7726 24.456V35.6572C48.7726 42.3562 44.9446 45.249 39.1808 45.249H20.0844C18.4531 45.249 16.9959 45.0098 15.7344 44.5312C14.7121 44.1615 13.8204 43.6178 13.1026 42.9217C12.7111 42.552 13.0156 41.9647 13.5594 41.9647H32.6559C40.7034 41.9647 45.4884 37.1797 45.4884 29.154V17.931C45.4884 17.409 46.0756 17.0827 46.4454 17.4742C47.9244 19.0402 48.7726 21.324 48.7726 24.456Z" fill="#094E81"/>
</svg>
