<svg width="87" height="87" viewBox="0 0 87 87" fill="none" xmlns="http://www.w3.org/2000/svg">
<path opacity="0.16" d="M80.04 0H6.96C3.1161 0 0 3.1161 0 6.96V80.04C0 83.8839 3.1161 87 6.96 87H80.04C83.8839 87 87 83.8839 87 80.04V6.96C87 3.1161 83.8839 0 80.04 0Z" fill="#094E81"/>
<path d="M59.5948 36.1052C63.1985 36.1052 66.1198 33.1838 66.1198 29.5802C66.1198 25.9765 63.1985 23.0552 59.5948 23.0552C55.9912 23.0552 53.0698 25.9765 53.0698 29.5802C53.0698 33.1838 55.9912 36.1052 59.5948 36.1052Z" fill="#094E81"/>
<path d="M61.3351 39.1935C61.2916 39.1935 61.2481 39.2152 61.2046 39.2152C60.9871 39.2587 60.7696 39.2805 60.5304 39.324C59.6169 39.411 58.6381 39.3675 57.6376 39.1717C57.3766 39.1065 57.1591 39.063 56.9199 38.976C56.2021 38.802 55.5279 38.5192 54.8971 38.1495C54.6361 38.019 54.3751 37.845 54.1359 37.6927C53.0919 36.975 52.2001 36.0832 51.4824 35.0392C51.3301 34.8 51.1561 34.539 51.0256 34.278C50.6559 33.6472 50.3731 32.973 50.1991 32.2552C50.1121 32.016 50.0686 31.7985 50.0034 31.5375C49.8076 30.537 49.7641 29.5582 49.8511 28.6447C49.8946 28.4055 49.9164 28.188 49.9599 27.9705C49.9599 27.927 49.9816 27.8835 49.9816 27.84C50.2426 26.4915 49.2421 25.23 47.8501 25.23H34.6261C34.3216 25.23 34.0171 25.2517 33.7344 25.2735C33.4734 25.2952 33.2341 25.317 32.9731 25.3605C32.7121 25.3822 32.4511 25.4257 32.2119 25.4692C26.9701 26.2305 23.6206 29.5582 22.8594 34.8217C22.8159 35.061 22.7724 35.322 22.7506 35.583C22.7071 35.844 22.6854 36.0832 22.6636 36.3442C22.6419 36.627 22.6201 36.9315 22.6201 37.236V54.549C22.6201 54.8535 22.6419 55.158 22.6636 55.4407C22.6854 55.7017 22.7071 55.941 22.7506 56.202C22.7724 56.463 22.8159 56.724 22.8594 56.9632C23.6206 62.2267 26.9701 65.5545 32.2119 66.3157C32.4511 66.3592 32.7121 66.4027 32.9731 66.4245C33.2341 66.468 33.4734 66.4897 33.7344 66.5115C34.0171 66.5332 34.3216 66.555 34.6261 66.555H51.9391C52.2436 66.555 52.5481 66.5332 52.8309 66.5115C53.0919 66.4897 53.3311 66.468 53.5921 66.4245C53.8531 66.4027 54.1141 66.3592 54.3534 66.3157C59.5951 65.5545 62.9446 62.2267 63.7059 56.9632C63.7494 56.724 63.7929 56.463 63.8146 56.202C63.8581 55.941 63.8799 55.7017 63.9016 55.4407C63.9234 55.158 63.9451 54.8535 63.9451 54.549V41.325C63.9451 39.933 62.6836 38.9325 61.3351 39.1935ZM32.9514 45.8925H43.8264C44.7181 45.8925 45.4576 46.632 45.4576 47.5237C45.4576 48.4155 44.7181 49.155 43.8264 49.155H32.9514C32.0596 49.155 31.3201 48.4155 31.3201 47.5237C31.3201 46.632 32.0596 45.8925 32.9514 45.8925ZM52.5264 57.855H32.9514C32.0596 57.855 31.3201 57.1155 31.3201 56.2237C31.3201 55.332 32.0596 54.5925 32.9514 54.5925H52.5264C53.4181 54.5925 54.1576 55.332 54.1576 56.2237C54.1576 57.1155 53.4181 57.855 52.5264 57.855Z" fill="#094E81"/>
</svg>
