<svg width="53" height="53" viewBox="0 0 53 53" fill="none" xmlns="http://www.w3.org/2000/svg">
<path d="M41.5951 18.1052C45.1987 18.1052 48.1201 15.1838 48.1201 11.5802C48.1201 7.97652 45.1987 5.05518 41.5951 5.05518C37.9914 5.05518 35.0701 7.97652 35.0701 11.5802C35.0701 15.1838 37.9914 18.1052 41.5951 18.1052Z" fill="#094E81"/>
<path d="M43.335 21.1935C43.2915 21.1935 43.248 21.2152 43.2045 21.2152C42.987 21.2587 42.7695 21.2805 42.5302 21.324C41.6167 21.411 40.638 21.3675 39.6375 21.1717C39.3765 21.1065 39.159 21.063 38.9197 20.976C38.202 20.802 37.5277 20.5192 36.897 20.1495C36.636 20.019 36.375 19.845 36.1357 19.6927C35.0917 18.975 34.2 18.0832 33.4822 17.0392C33.33 16.8 33.156 16.539 33.0255 16.278C32.6557 15.6472 32.373 14.973 32.199 14.2552C32.112 14.016 32.0685 13.7985 32.0032 13.5375C31.8075 12.537 31.764 11.5582 31.851 10.6447C31.8945 10.4055 31.9162 10.188 31.9597 9.97048C31.9597 9.92698 31.9815 9.88348 31.9815 9.83998C32.2425 8.49148 31.242 7.22998 29.85 7.22998H16.626C16.3215 7.22998 16.017 7.25173 15.7342 7.27348C15.4732 7.29523 15.234 7.31698 14.973 7.36048C14.712 7.38223 14.451 7.42573 14.2117 7.46923C8.96999 8.23048 5.62049 11.5582 4.85924 16.8217C4.81574 17.061 4.77224 17.322 4.75049 17.583C4.70699 17.844 4.68525 18.0832 4.6635 18.3442C4.64175 18.627 4.62 18.9315 4.62 19.236V36.549C4.62 36.8535 4.64175 37.158 4.6635 37.4407C4.68525 37.7017 4.70699 37.941 4.75049 38.202C4.77224 38.463 4.81574 38.724 4.85924 38.9632C5.62049 44.2267 8.96999 47.5545 14.2117 48.3157C14.451 48.3592 14.712 48.4027 14.973 48.4245C15.234 48.468 15.4732 48.4897 15.7342 48.5115C16.017 48.5332 16.3215 48.555 16.626 48.555H33.939C34.2435 48.555 34.548 48.5332 34.8307 48.5115C35.0917 48.4897 35.331 48.468 35.592 48.4245C35.853 48.4027 36.114 48.3592 36.3532 48.3157C41.595 47.5545 44.9445 44.2267 45.7057 38.9632C45.7492 38.724 45.7927 38.463 45.8145 38.202C45.858 37.941 45.8797 37.7017 45.9015 37.4407C45.9232 37.158 45.945 36.8535 45.945 36.549V23.325C45.945 21.933 44.6835 20.9325 43.335 21.1935ZM14.9512 27.8925H25.8262C26.718 27.8925 27.4575 28.632 27.4575 29.5237C27.4575 30.4155 26.718 31.155 25.8262 31.155H14.9512C14.0595 31.155 13.32 30.4155 13.32 29.5237C13.32 28.632 14.0595 27.8925 14.9512 27.8925ZM34.5262 39.855H14.9512C14.0595 39.855 13.32 39.1155 13.32 38.2237C13.32 37.332 14.0595 36.5925 14.9512 36.5925H34.5262C35.418 36.5925 36.1575 37.332 36.1575 38.2237C36.1575 39.1155 35.418 39.855 34.5262 39.855Z" fill="#094E81"/>
</svg>
