<svg width="24" height="24" viewBox="0 0 24 24" fill="none" xmlns="http://www.w3.org/2000/svg">
<path d="M14.85 3.9498V7.7498H13.35V3.9498C13.3499 3.88437 13.3337 3.81997 13.3029 3.76225C13.2721 3.70453 13.2276 3.65525 13.1733 3.61873C13.119 3.5822 13.0566 3.55956 12.9915 3.55277C12.9264 3.54599 12.8607 3.55527 12.8 3.5798L4.87001 6.5698C4.61229 6.66677 4.3906 6.84061 4.23498 7.06778C4.07937 7.29495 3.99734 7.56446 4.00001 7.8398V8.5098C3.53346 8.85835 3.15486 9.31113 2.89442 9.83201C2.63398 10.3529 2.49892 10.9274 2.50001 11.5098V7.8398C2.49872 7.26043 2.67416 6.69444 3.00292 6.21738C3.33169 5.74031 3.79813 5.37486 4.34001 5.1698L12.28 2.1698C12.4947 2.09133 12.7214 2.05073 12.95 2.0498C13.4535 2.05112 13.936 2.25173 14.2921 2.60776C14.6481 2.96379 14.8487 3.4463 14.85 3.9498Z" fill="#6A6E83"/>
<path d="M21.4944 14.5002V15.5002C21.4945 15.6311 21.4432 15.7568 21.3515 15.8503C21.2599 15.9438 21.1353 15.9976 21.0044 16.0002H19.5494C19.2919 16.0071 19.041 15.9176 18.8459 15.7493C18.6508 15.581 18.5255 15.346 18.4944 15.0902C18.481 14.9438 18.5 14.7961 18.5501 14.6578C18.6002 14.5196 18.6802 14.394 18.7844 14.2902C18.8756 14.1959 18.9853 14.1214 19.1066 14.0715C19.2279 14.0216 19.3583 13.9973 19.4894 14.0002H20.9944C21.127 14.0002 21.2542 14.0529 21.348 14.1467C21.4418 14.2404 21.4944 14.3676 21.4944 14.5002Z" fill="#6A6E83"/>
<path d="M19.48 12.95H20.5C20.7652 12.95 21.0196 12.8447 21.2071 12.6571C21.3946 12.4696 21.5 12.2152 21.5 11.95V11.51C21.4979 10.5135 21.1011 9.55831 20.3964 8.85363C19.6917 8.14895 18.7366 7.75213 17.74 7.75002H6.26001C5.44352 7.74748 4.64905 8.01465 4.00001 8.51002C3.53346 8.85856 3.15486 9.31134 2.89442 9.83222C2.63398 10.3531 2.49891 10.9277 2.50001 11.51V18.24C2.50212 19.2366 2.89894 20.1917 3.60362 20.8964C4.3083 21.6011 5.26344 21.9979 6.26001 22H17.74C18.7366 21.9979 19.6917 21.6011 20.3964 20.8964C21.1011 20.1917 21.4979 19.2366 21.5 18.24V18.05C21.5 17.7848 21.3946 17.5304 21.2071 17.3429C21.0196 17.1554 20.7652 17.05 20.5 17.05H19.63C19.158 17.0628 18.6946 16.9213 18.3103 16.647C17.9259 16.3727 17.6414 15.9806 17.5 15.53C17.4208 15.2265 17.412 14.9088 17.4742 14.6014C17.5364 14.2939 17.6681 14.0047 17.8591 13.7558C18.0501 13.5069 18.2954 13.305 18.5763 13.1653C18.8572 13.0257 19.1663 12.952 19.48 12.95ZM14 12.75H7.00001C6.80109 12.75 6.61033 12.671 6.46968 12.5303C6.32902 12.3897 6.25001 12.1989 6.25001 12C6.25001 11.8011 6.32902 11.6103 6.46968 11.4697C6.61033 11.329 6.80109 11.25 7.00001 11.25H14C14.1989 11.25 14.3897 11.329 14.5303 11.4697C14.671 11.6103 14.75 11.8011 14.75 12C14.75 12.1989 14.671 12.3897 14.5303 12.5303C14.3897 12.671 14.1989 12.75 14 12.75Z" fill="#6A6E83"/>
</svg>
