<svg width="53" height="53" viewBox="0 0 53 53" fill="none" xmlns="http://www.w3.org/2000/svg">
<path d="M34.5916 5.05499H18.1486C9.92707 5.05499 7.88257 7.25174 7.88257 16.017V40.5075C7.88257 46.293 11.0581 47.6632 14.9078 43.5307L14.9296 43.509C16.7131 41.6167 19.4318 41.769 20.9761 43.8352L23.1728 46.7715C24.9346 49.0987 27.7838 49.0987 29.5456 46.7715L31.7423 43.8352C33.3083 41.7472 36.0271 41.595 37.8106 43.509C41.6821 47.6415 44.8358 46.2712 44.8358 40.4857V16.017C44.8576 7.25174 42.8131 5.05499 34.5916 5.05499ZM32.5471 22.4332L31.4596 23.5425H31.4378L24.8476 30.1327C24.5648 30.4155 23.9776 30.72 23.5643 30.7635L20.6281 31.1985C19.5623 31.3507 18.8228 30.5895 18.9751 29.5455L19.3883 26.5875C19.4536 26.1742 19.7363 25.6087 20.0191 25.3042L26.6311 18.714L27.7186 17.6047C28.4363 16.887 29.2411 16.365 30.1111 16.365C30.8506 16.365 31.6553 16.713 32.5471 17.6047C34.5046 19.5622 33.8738 21.1065 32.5471 22.4332Z" fill="#094E81"/>
</svg>
