<svg width="53" height="53" viewBox="0 0 53 53" fill="none" xmlns="http://www.w3.org/2000/svg">
<path d="M35.4832 5.05518H17.2567C9.33974 5.05518 4.62 9.77493 4.62 17.6919V35.8967C4.62 43.8354 9.33974 48.5552 17.2567 48.5552H35.4615C43.3785 48.5552 48.0982 43.8354 48.0982 35.9184V17.6919C48.12 9.77493 43.4002 5.05518 35.4832 5.05518ZM19.062 16.2564C19.6927 15.6257 20.7367 15.6257 21.3675 16.2564L30.894 25.7829V20.4977C30.894 19.6059 31.6335 18.8664 32.5252 18.8664C33.417 18.8664 34.1565 19.6059 34.1565 20.4977V29.7197C34.1565 29.9372 34.113 30.1329 34.026 30.3504C33.852 30.7419 33.5475 31.0682 33.1342 31.2422C32.9385 31.3292 32.721 31.3727 32.5035 31.3727H23.2815C22.3897 31.3727 21.6502 30.6332 21.6502 29.7414C21.6502 28.8497 22.3897 28.1102 23.2815 28.1102H28.5667L19.062 18.5619C18.4312 17.9312 18.4312 16.9089 19.062 16.2564ZM39.942 38.1587C35.5702 39.6159 30.981 40.3554 26.37 40.3554C21.759 40.3554 17.1697 39.6159 12.798 38.1587C11.9497 37.8759 11.493 36.9407 11.7757 36.0924C12.0585 35.2442 12.972 34.7657 13.842 35.0702C21.933 37.7672 30.8287 37.7672 38.9197 35.0702C39.768 34.7874 40.7032 35.2442 40.986 36.0924C41.247 36.9624 40.7902 37.8759 39.942 38.1587Z" fill="#094E81"/>
</svg>
