<svg width="37" height="37" viewBox="0 0 37 37" fill="none" xmlns="http://www.w3.org/2000/svg">
<path d="M24.2701 3.3999H12.9301C7.2601 3.3999 5.8501 4.9149 5.8501 10.9599V27.8499C5.8501 31.8399 8.0401 32.7849 10.6951 29.9349L10.7101 29.9199C11.9401 28.6149 13.8151 28.7199 14.8801 30.1449L16.3951 32.1699C17.6101 33.7749 19.5751 33.7749 20.7901 32.1699L22.3051 30.1449C23.3851 28.7049 25.2601 28.5999 26.4901 29.9199C29.1601 32.7699 31.3351 31.8249 31.3351 27.8349V10.9599C31.3501 4.9149 29.9401 3.3999 24.2701 3.3999ZM22.8601 15.3849L22.1101 16.1499H22.0951L17.5501 20.6949C17.3551 20.8899 16.9501 21.0999 16.6651 21.1299L14.6401 21.4299C13.9051 21.5349 13.3951 21.0099 13.5001 20.2899L13.7851 18.2499C13.8301 17.9649 14.0251 17.5749 14.2201 17.3649L18.7801 12.8199L19.5301 12.0549C20.0251 11.5599 20.5801 11.1999 21.1801 11.1999C21.6901 11.1999 22.2451 11.4399 22.8601 12.0549C24.2101 13.4049 23.7751 14.4699 22.8601 15.3849Z" fill="#094E81"/>
</svg>
