<svg width="37" height="37" viewBox="0 0 37 37" fill="none" xmlns="http://www.w3.org/2000/svg">
<path d="M8.1001 21.3999C4.7851 21.3999 2.1001 24.0849 2.1001 27.3999C2.1001 30.7149 4.7851 33.3999 8.1001 33.3999C11.4151 33.3999 14.1001 30.7149 14.1001 27.3999C14.1001 24.0849 11.4151 21.3999 8.1001 21.3999ZM9.6001 26.9199C9.6001 27.8349 9.1051 28.7049 8.3251 29.1699L7.1851 29.8599C7.0051 29.9799 6.7951 30.0249 6.6001 30.0249C6.2251 30.0249 5.8501 29.8299 5.6401 29.4849C5.3251 28.9599 5.4901 28.2549 6.0301 27.9399L7.1701 27.2499C7.2751 27.1899 7.3501 27.0549 7.3501 26.9349V25.5399C7.3501 24.9099 7.8601 24.3999 8.4751 24.3999C9.0901 24.3999 9.6001 24.9099 9.6001 25.5249V26.9199Z" fill="#094E81"/>
<path d="M26.1001 6.3999H11.1001C6.6001 6.3999 3.6001 8.6499 3.6001 13.8999V19.2399C3.6001 19.7949 4.1701 20.1399 4.6651 19.9149C6.1351 19.2399 7.8301 18.9849 9.6151 19.2999C13.5601 20.0049 16.4551 23.6649 16.3501 27.6699C16.3351 28.2999 16.2451 28.9149 16.0801 29.5149C15.9601 29.9799 16.3351 30.4149 16.8151 30.4149H26.1001C30.6001 30.4149 33.6001 28.1649 33.6001 22.9149V13.8999C33.6001 8.6499 30.6001 6.3999 26.1001 6.3999ZM18.6001 22.1499C16.5301 22.1499 14.8501 20.4699 14.8501 18.3999C14.8501 16.3299 16.5301 14.6499 18.6001 14.6499C20.6701 14.6499 22.3501 16.3299 22.3501 18.3999C22.3501 20.4699 20.6701 22.1499 18.6001 22.1499ZM29.4751 21.3999C29.4751 22.0149 28.9651 22.5249 28.3501 22.5249C27.7351 22.5249 27.2251 22.0149 27.2251 21.3999V15.3999C27.2251 14.7849 27.7351 14.2749 28.3501 14.2749C28.9651 14.2749 29.4751 14.7849 29.4751 15.3999V21.3999Z" fill="#094E81"/>
</svg>
