<svg width="37" height="37" viewBox="0 0 37 37" fill="none" xmlns="http://www.w3.org/2000/svg">
<path d="M29.1001 12.3999C31.5854 12.3999 33.6001 10.3852 33.6001 7.8999C33.6001 5.41462 31.5854 3.3999 29.1001 3.3999C26.6148 3.3999 24.6001 5.41462 24.6001 7.8999C24.6001 10.3852 26.6148 12.3999 29.1001 12.3999Z" fill="#094E81"/>
<path d="M30.3001 14.5299C30.2701 14.5299 30.2401 14.5449 30.2101 14.5449C30.0601 14.5749 29.9101 14.5899 29.7451 14.6199C29.1151 14.6799 28.4401 14.6499 27.7501 14.5149C27.5701 14.4699 27.4201 14.4399 27.2551 14.3799C26.7601 14.2599 26.2951 14.0649 25.8601 13.8099C25.6801 13.7199 25.5001 13.5999 25.3351 13.4949C24.6151 12.9999 24.0001 12.3849 23.5051 11.6649C23.4001 11.4999 23.2801 11.3199 23.1901 11.1399C22.9351 10.7049 22.7401 10.2399 22.6201 9.7449C22.5601 9.5799 22.5301 9.4299 22.4851 9.2499C22.3501 8.5599 22.3201 7.8849 22.3801 7.2549C22.4101 7.0899 22.4251 6.9399 22.4551 6.7899C22.4551 6.7599 22.4701 6.7299 22.4701 6.6999C22.6501 5.7699 21.9601 4.8999 21.0001 4.8999H11.8801C11.6701 4.8999 11.4601 4.9149 11.2651 4.9299C11.0851 4.9449 10.9201 4.9599 10.7401 4.9899C10.5601 5.0049 10.3801 5.0349 10.2151 5.0649C6.6001 5.5899 4.2901 7.8849 3.7651 11.5149C3.7351 11.6799 3.7051 11.8599 3.6901 12.0399C3.6601 12.2199 3.6451 12.3849 3.6301 12.5649C3.6151 12.7599 3.6001 12.9699 3.6001 13.1799V25.1199C3.6001 25.3299 3.6151 25.5399 3.6301 25.7349C3.6451 25.9149 3.6601 26.0799 3.6901 26.2599C3.7051 26.4399 3.7351 26.6199 3.7651 26.7849C4.2901 30.4149 6.6001 32.7099 10.2151 33.2349C10.3801 33.2649 10.5601 33.2949 10.7401 33.3099C10.9201 33.3399 11.0851 33.3549 11.2651 33.3699C11.4601 33.3849 11.6701 33.3999 11.8801 33.3999H23.8201C24.0301 33.3999 24.2401 33.3849 24.4351 33.3699C24.6151 33.3549 24.7801 33.3399 24.9601 33.3099C25.1401 33.2949 25.3201 33.2649 25.4851 33.2349C29.1001 32.7099 31.4101 30.4149 31.9351 26.7849C31.9651 26.6199 31.9951 26.4399 32.0101 26.2599C32.0401 26.0799 32.0551 25.9149 32.0701 25.7349C32.0851 25.5399 32.1001 25.3299 32.1001 25.1199V15.9999C32.1001 15.0399 31.2301 14.3499 30.3001 14.5299ZM10.7251 19.1499H18.2251C18.8401 19.1499 19.3501 19.6599 19.3501 20.2749C19.3501 20.8899 18.8401 21.3999 18.2251 21.3999H10.7251C10.1101 21.3999 9.6001 20.8899 9.6001 20.2749C9.6001 19.6599 10.1101 19.1499 10.7251 19.1499ZM24.2251 27.3999H10.7251C10.1101 27.3999 9.6001 26.8899 9.6001 26.2749C9.6001 25.6599 10.1101 25.1499 10.7251 25.1499H24.2251C24.8401 25.1499 25.3501 25.6599 25.3501 26.2749C25.3501 26.8899 24.8401 27.3999 24.2251 27.3999Z" fill="#094E81"/>
</svg>
