<svg width="53" height="53" viewBox="0 0 53 53" fill="none" xmlns="http://www.w3.org/2000/svg">
<g id="setting-2">
<g id="vuesax/bold/setting-2">
<g id="setting-2_2">
<path id="Vector" d="M43.9866 20.7585C40.0499 20.7585 38.4404 17.9745 40.3979 14.5598C41.5289 12.5805 40.8546 10.0575 38.8754 8.9265L35.1126 6.77325C33.3944 5.751 31.1759 6.36 30.1536 8.07825L29.9144 8.4915C27.9569 11.9063 24.7379 11.9063 22.7586 8.4915L22.5194 8.07825C21.5406 6.36 19.3221 5.751 17.6039 6.77325L13.8411 8.9265C11.8619 10.0575 11.1876 12.6023 12.3186 14.5815C14.2979 17.9745 12.6884 20.7585 8.75164 20.7585C6.48964 20.7585 4.61914 22.6073 4.61914 24.891V28.719C4.61914 30.981 6.46789 32.8515 8.75164 32.8515C12.6884 32.8515 14.2979 35.6355 12.3186 39.0502C11.1876 41.0295 11.8619 43.5525 13.8411 44.6835L17.6039 46.8368C19.3221 47.859 21.5406 47.25 22.5629 45.5318L22.8021 45.1185C24.7596 41.7038 27.9786 41.7038 29.9579 45.1185L30.1971 45.5318C31.2194 47.25 33.4379 47.859 35.1561 46.8368L38.9189 44.6835C40.8981 43.5525 41.5724 41.0077 40.4414 39.0502C38.4621 35.6355 40.0716 32.8515 44.0084 32.8515C46.2704 32.8515 48.1409 31.0028 48.1409 28.719V24.891C48.1191 22.629 46.2704 20.7585 43.9866 20.7585ZM26.3691 33.8737C22.4759 33.8737 19.3004 30.6982 19.3004 26.805C19.3004 22.9118 22.4759 19.7363 26.3691 19.7363C30.2624 19.7363 33.4379 22.9118 33.4379 26.805C33.4379 30.6982 30.2624 33.8737 26.3691 33.8737Z" fill="#094E81"/>
</g>
</g>
</g>
</svg>
