<svg width="53" height="53" viewBox="0 0 53 53" fill="none" xmlns="http://www.w3.org/2000/svg">
<g id="setting">
<g id="vuesax/bold/setting">
<g id="setting_2">
<path id="Vector" d="M41.4631 12.4935L30.2183 5.99024C28.0651 4.75049 24.6938 4.75049 22.5406 5.99024L11.1871 12.537C6.68483 15.582 6.42383 16.0387 6.42383 20.889V32.6992C6.42383 37.5495 6.68483 38.028 11.2741 41.1165L22.5188 47.6197C23.6063 48.2505 24.9983 48.555 26.3686 48.555C27.7388 48.555 29.1308 48.2505 30.1966 47.6197L41.5501 41.073C46.0523 38.028 46.3133 37.5712 46.3133 32.721V20.889C46.3133 16.0387 46.0523 15.582 41.4631 12.4935ZM26.3686 33.8737C22.4753 33.8737 19.2998 30.6982 19.2998 26.805C19.2998 22.9117 22.4753 19.7362 26.3686 19.7362C30.2618 19.7362 33.4373 22.9117 33.4373 26.805C33.4373 30.6982 30.2618 33.8737 26.3686 33.8737Z" fill="#094E81"/>
</g>
</g>
</g>
</svg>
