<svg width="87" height="87" viewBox="0 0 87 87" fill="none" xmlns="http://www.w3.org/2000/svg">
<path opacity="0.16" d="M80.04 0H6.96C3.1161 0 0 3.1161 0 6.96V80.04C0 83.8839 3.1161 87 6.96 87H80.04C83.8839 87 87 83.8839 87 80.04V6.96C87 3.1161 83.8839 0 80.04 0Z" fill="#094E81"/>
<path d="M66.1198 37.2359V27.3614C66.1198 24.2947 64.7278 23.0549 61.2696 23.0549H52.4826C49.0243 23.0549 47.6323 24.2947 47.6323 27.3614V37.2142C47.6323 40.3027 49.0243 41.5207 52.4826 41.5207H61.2696C64.7278 41.5424 66.1198 40.3027 66.1198 37.2359Z" fill="#094E81"/>
<path d="M66.1198 61.7048V52.9178C66.1198 49.4595 64.7278 48.0675 61.2696 48.0675H52.4826C49.0243 48.0675 47.6323 49.4595 47.6323 52.9178V61.7048C47.6323 65.163 49.0243 66.555 52.4826 66.555H61.2696C64.7278 66.555 66.1198 65.163 66.1198 61.7048Z" fill="#094E81"/>
<path d="M41.1076 37.2359V27.3614C41.1076 24.2947 39.7156 23.0549 36.2574 23.0549H27.4704C24.0121 23.0549 22.6201 24.2947 22.6201 27.3614V37.2142C22.6201 40.3027 24.0121 41.5207 27.4704 41.5207H36.2574C39.7156 41.5424 41.1076 40.3027 41.1076 37.2359Z" fill="#094E81"/>
<path d="M41.1076 61.7048V52.9178C41.1076 49.4595 39.7156 48.0675 36.2574 48.0675H27.4704C24.0121 48.0675 22.6201 49.4595 22.6201 52.9178V61.7048C22.6201 65.163 24.0121 66.555 27.4704 66.555H36.2574C39.7156 66.555 41.1076 65.163 41.1076 61.7048Z" fill="#094E81"/>
</svg>
