<svg width="87" height="87" viewBox="0 0 87 87" fill="none" xmlns="http://www.w3.org/2000/svg">
<path opacity="0.16" d="M80.04 0H6.96C3.1161 0 0 3.1161 0 6.96V80.04C0 83.8839 3.1161 87 6.96 87H80.04C83.8839 87 87 83.8839 87 80.04V6.96C87 3.1161 83.8839 0 80.04 0Z" fill="#094E81"/>
<path d="M59.9648 33.147C59.0295 28.4272 55.5278 26.361 50.6558 26.361H31.5593C25.8173 26.361 21.9893 29.232 21.9893 35.931V47.1322C21.9893 51.9607 23.9685 54.7882 27.231 56.0062C27.7095 56.1802 28.2315 56.3325 28.7753 56.4195C29.6453 56.6152 30.5805 56.7022 31.5593 56.7022H50.6775C56.4195 56.7022 60.2475 53.8312 60.2475 47.1322V35.931C60.2475 34.9087 60.1605 33.9952 59.9648 33.147ZM30.2978 44.805C30.2978 45.6967 29.5583 46.4362 28.6665 46.4362C27.7748 46.4362 27.0353 45.6967 27.0353 44.805V38.28C27.0353 37.3882 27.7748 36.6487 28.6665 36.6487C29.5583 36.6487 30.2978 37.3882 30.2978 38.28V44.805ZM41.1075 47.2845C37.932 47.2845 35.3655 44.718 35.3655 41.5425C35.3655 38.367 37.932 35.8005 41.1075 35.8005C44.283 35.8005 46.8495 38.367 46.8495 41.5425C46.8495 44.718 44.283 47.2845 41.1075 47.2845ZM55.158 44.805C55.158 45.6967 54.4185 46.4362 53.5268 46.4362C52.635 46.4362 51.8955 45.6967 51.8955 44.805V38.28C51.8955 37.3882 52.635 36.6487 53.5268 36.6487C54.4185 36.6487 55.158 37.3882 55.158 38.28V44.805Z" fill="#094E81"/>
<path d="M66.7724 42.456V53.6572C66.7724 60.3562 62.9444 63.249 57.1806 63.249H38.0841C36.4529 63.249 34.9956 63.0098 33.7341 62.5312C32.7119 62.1615 31.8201 61.6178 31.1024 60.9217C30.7109 60.552 31.0154 59.9647 31.5591 59.9647H50.6556C58.7031 59.9647 63.4881 55.1797 63.4881 47.154V35.931C63.4881 35.409 64.0754 35.0827 64.4451 35.4742C65.9241 37.0402 66.7724 39.324 66.7724 42.456Z" fill="#094E81"/>
</svg>
