<svg width="87" height="87" viewBox="0 0 87 87" fill="none" xmlns="http://www.w3.org/2000/svg">
<path opacity="0.16" d="M80.04 0H6.96C3.1161 0 0 3.1161 0 6.96V80.04C0 83.8839 3.1161 87 6.96 87H80.04C83.8839 87 87 83.8839 87 80.04V6.96C87 3.1161 83.8839 0 80.04 0Z" fill="#094E81"/>
<path d="M36.3007 32.3857C35.3872 32.3857 34.6694 31.6462 34.6694 30.7544V24.6862C34.6694 23.7944 35.3872 23.0549 36.3007 23.0549C37.2142 23.0549 37.9319 23.7944 37.9319 24.6862V30.7327C37.9319 31.6462 37.2142 32.3857 36.3007 32.3857Z" fill="#094E81"/>
<path d="M52.4394 32.3857C51.5259 32.3857 50.8081 31.6462 50.8081 30.7544V24.6862C50.8081 23.7727 51.5476 23.0549 52.4394 23.0549C53.3529 23.0549 54.0706 23.7944 54.0706 24.6862V30.7327C54.0706 31.6462 53.3529 32.3857 52.4394 32.3857Z" fill="#094E81"/>
<path d="M60.8348 28.4925C59.3993 27.4268 57.333 28.449 57.333 30.2543V30.4718C57.333 33.0165 55.506 35.3655 52.9613 35.6265C50.025 35.931 47.5455 33.6255 47.5455 30.7545V28.4925C47.5455 27.2963 46.5668 26.3175 45.3705 26.3175H43.3695C42.1733 26.3175 41.1945 27.2963 41.1945 28.4925V30.7545C41.1945 32.4728 40.3028 33.9953 38.9543 34.8435C38.7585 34.974 38.541 35.0828 38.3235 35.1915C38.1278 35.3003 37.9103 35.3873 37.671 35.4525C37.41 35.5395 37.1273 35.6048 36.8228 35.6265C36.4748 35.67 36.1268 35.67 35.7788 35.6265C35.4743 35.6048 35.1915 35.5395 34.9305 35.4525C34.713 35.3873 34.4955 35.3003 34.278 35.1915C34.0605 35.0828 33.843 34.974 33.6473 34.8435C32.277 33.8865 31.407 32.2335 31.407 30.4718V30.2543C31.407 28.5795 29.6235 27.579 28.2098 28.2968C28.188 28.3185 28.1663 28.3185 28.1445 28.3403C28.0575 28.3838 27.9923 28.4273 27.9053 28.4925C27.84 28.5578 27.753 28.6013 27.6878 28.6665C27.0788 29.145 26.535 29.6888 26.0783 30.276C25.839 30.537 25.6433 30.8198 25.4693 31.1025C25.4475 31.1243 25.4258 31.146 25.404 31.1895C25.2083 31.4723 25.0343 31.7985 24.882 32.103C24.8385 32.1465 24.8168 32.1683 24.8168 32.2118C24.6863 32.4728 24.5558 32.7338 24.4688 33.0165C24.4035 33.1253 24.3818 33.2123 24.3383 33.321C24.2078 33.6473 24.1208 33.9735 24.0338 34.2998C23.9468 34.6043 23.8815 34.9305 23.838 35.2568C23.7945 35.496 23.7728 35.7353 23.751 35.9963C23.7293 36.3008 23.7075 36.6053 23.7075 36.9098V55.9628C23.7075 61.8135 28.449 66.555 34.2998 66.555H54.4403C60.291 66.555 65.0325 61.8135 65.0325 55.9628V36.9098C65.0325 33.4515 63.3795 30.4283 60.8348 28.4925ZM44.37 56.5935H34.278C33.3863 56.5935 32.6468 55.854 32.6468 54.9623C32.6468 54.0488 33.3863 53.3093 34.278 53.3093H44.37C45.2835 53.3093 46.0013 54.0488 46.0013 54.9623C46.0013 55.854 45.2835 56.5935 44.37 56.5935ZM50.4165 48.5243H34.278C33.3863 48.5243 32.6468 47.7848 32.6468 46.893C32.6468 45.9795 33.3863 45.24 34.278 45.24H50.4165C51.33 45.24 52.0695 45.9795 52.0695 46.893C52.0695 47.7848 51.33 48.5243 50.4165 48.5243Z" fill="#094E81"/>
</svg>
