<svg width="24" height="24" viewBox="0 0 24 24" fill="none" xmlns="http://www.w3.org/2000/svg">
<path d="M21.07 5.23C19.46 5.07 17.85 4.95 16.23 4.86V4.85L16.01 3.55C15.86 2.63 15.64 1.25 13.3 1.25H10.68C8.34599 1.25 8.12999 2.57 7.96999 3.54L7.75999 4.82C6.82999 4.88 5.89999 4.94 4.96999 5.03L2.92999 5.23C2.73241 5.24857 2.55029 5.34486 2.4237 5.4977C2.29711 5.65055 2.23643 5.84741 2.25499 6.045C2.27356 6.24259 2.36985 6.42471 2.5227 6.55129C2.67554 6.67788 2.87241 6.73856 3.06999 6.72L5.10999 6.52C10.3772 6.06531 15.6767 6.13566 20.93 6.73H21.01C21.1969 6.72924 21.3769 6.65936 21.5154 6.53382C21.6539 6.40827 21.741 6.23594 21.76 6.05C21.775 5.85024 21.7112 5.65253 21.5823 5.49925C21.4533 5.34596 21.2694 5.24931 21.07 5.23Z" fill="#EC4646"/>
<path d="M19.2284 8.14001C19.1107 8.01711 18.9695 7.91922 18.8131 7.8522C18.6568 7.78519 18.4885 7.75043 18.3184 7.75001H5.68036C5.51009 7.7495 5.34153 7.78384 5.18503 7.85091C5.02853 7.91798 4.88741 8.01636 4.77036 8.14001C4.65355 8.26596 4.56311 8.41402 4.50438 8.57545C4.44565 8.73688 4.4198 8.90843 4.42836 9.08001L5.04836 19.34C5.15836 20.86 5.29836 22.76 8.78836 22.76H15.2084C18.6984 22.76 18.8384 20.87 18.9484 19.34L19.5684 9.09001C19.5779 8.91699 19.5527 8.74382 19.4943 8.58067C19.4359 8.41753 19.3455 8.2677 19.2284 8.14001ZM13.6604 17.75H10.3284C10.1294 17.75 9.93868 17.671 9.79803 17.5303C9.65738 17.3897 9.57836 17.1989 9.57836 17C9.57836 16.8011 9.65738 16.6103 9.79803 16.4697C9.93868 16.329 10.1294 16.25 10.3284 16.25H13.6584C13.8573 16.25 14.048 16.329 14.1887 16.4697C14.3293 16.6103 14.4084 16.8011 14.4084 17C14.4084 17.1989 14.3293 17.3897 14.1887 17.5303C14.048 17.671 13.8573 17.75 13.6584 17.75H13.6604ZM14.5004 13.75H9.50036C9.30145 13.75 9.11068 13.671 8.97003 13.5303C8.82938 13.3897 8.75036 13.1989 8.75036 13C8.75036 12.8011 8.82938 12.6103 8.97003 12.4697C9.11068 12.329 9.30145 12.25 9.50036 12.25H14.5004C14.6993 12.25 14.89 12.329 15.0307 12.4697C15.1713 12.6103 15.2504 12.8011 15.2504 13C15.2504 13.1989 15.1713 13.3897 15.0307 13.5303C14.89 13.671 14.6993 13.75 14.5004 13.75Z" fill="#EC4646"/>
</svg>
