<svg id="vuesax_bold_box" data-name="vuesax/bold/box" xmlns="http://www.w3.org/2000/svg" width="60" height="60" viewBox="0 0 60 60">
  <path id="Vector" d="M42.337,14.544l-19.25,11.15a2.577,2.577,0,0,1-2.55,0L1.287,14.544a2.536,2.536,0,0,1-.675-3.85A8.969,8.969,0,0,1,3.037,8.719l13.55-7.5a11.917,11.917,0,0,1,10.5,0l13.55,7.5a9.464,9.464,0,0,1,2.425,1.975A2.579,2.579,0,0,1,42.337,14.544Z" transform="translate(8.188 5.006)" fill="#094e81"/>
  <path id="Vector-2" data-name="Vector" d="M23,13.013v17.05a2.527,2.527,0,0,1-3.625,2.325c-5.15-2.525-13.825-7.25-13.825-7.25A12.251,12.251,0,0,1,0,15.488V2.588A2.529,2.529,0,0,1,3.775.338L21.75,10.763A2.69,2.69,0,0,1,23,13.013Z" transform="translate(5.575 22.337)" fill="#094e81"/>
  <path id="Vector-3" data-name="Vector" d="M0,13.013v17.05a2.527,2.527,0,0,0,3.625,2.325c5.15-2.525,13.825-7.25,13.825-7.25A12.251,12.251,0,0,0,23,15.488V2.588A2.529,2.529,0,0,0,19.225.338L1.25,10.763A2.69,2.69,0,0,0,0,13.013Z" transform="translate(31.425 22.337)" fill="#094e81"/>
  <path id="Vector-4" data-name="Vector" d="M0,0H60V60H0Z" transform="translate(60 60) rotate(180)" fill="none" opacity="0"/>
</svg>
