<svg id="vuesax_bold_money" data-name="vuesax/bold/money" xmlns="http://www.w3.org/2000/svg" width="60" height="60" viewBox="0 0 60 60">
  <g id="money">
    <path id="Vector" d="M0,0H60V60H0Z" fill="none" opacity="0"/>
    <path id="Vector-2" data-name="Vector" d="M37.5,0h-25C5,0,0,3.75,0,12.5V30c0,8.75,5,12.5,12.5,12.5h25C45,42.5,50,38.75,50,30V12.5C50,3.75,45,0,37.5,0ZM10.625,27.5a1.875,1.875,0,0,1-3.75,0V15a1.875,1.875,0,0,1,3.75,0ZM25,28.75a7.5,7.5,0,1,1,7.5-7.5A7.49,7.49,0,0,1,25,28.75ZM43.125,27.5a1.875,1.875,0,0,1-3.75,0V15a1.875,1.875,0,0,1,3.75,0Z" transform="translate(5 8.75)" fill="#094e81"/>
  </g>
</svg>
