<svg id="vuesax_bold_danger" data-name="vuesax/bold/danger" xmlns="http://www.w3.org/2000/svg" width="20" height="20" viewBox="0 0 20 20">
  <g id="danger">
    <path id="Vector" d="M16.33,11.084,11.156,1.911A3.223,3.223,0,0,0,8.44,0,3.223,3.223,0,0,0,5.724,1.911L.55,11.084a3.112,3.112,0,0,0-.2,3.177,3.2,3.2,0,0,0,2.918,1.37H13.614a3.2,3.2,0,0,0,2.918-1.37A3.112,3.112,0,0,0,16.33,11.084Zm-8.5-5.51a.606.606,0,0,1,1.213,0V9.555a.606.606,0,0,1-1.213,0Zm1.18,6.935-.121.1a.616.616,0,0,1-.146.072.493.493,0,0,1-.154.048,1,1,0,0,1-.154.016,1.233,1.233,0,0,1-.162-.016.519.519,0,0,1-.146-.048.616.616,0,0,1-.146-.072l-.121-.1a.8.8,0,0,1,0-1.131l.121-.1a.616.616,0,0,1,.146-.072.519.519,0,0,1,.146-.048.7.7,0,0,1,.315,0,.493.493,0,0,1,.154.048.616.616,0,0,1,.146.072l.121.1a.8.8,0,0,1,0,1.131Z" transform="translate(1.56 2)" fill="#9ea4b2"/>
    <path id="Vector-2" data-name="Vector" d="M0,0H20V20H0Z" transform="translate(20 20) rotate(180)" fill="none" opacity="0"/>
  </g>
</svg>
