<svg id="vuesax_bold_gift" data-name="vuesax/bold/gift" xmlns="http://www.w3.org/2000/svg" width="60" height="60" viewBox="0 0 60 60">
  <path id="Vector" d="M40,2.5v15a10,10,0,0,1-10,10H10a10,10,0,0,1-10-10V2.5A2.507,2.507,0,0,1,2.5,0H7.425a2.507,2.507,0,0,1,2.5,2.5v7.85a5.035,5.035,0,0,0,2.65,4.425,4.833,4.833,0,0,0,2.35.6,4.908,4.908,0,0,0,2.725-.825L20.025,13l2.2,1.475a4.927,4.927,0,0,0,5.1.275A4.981,4.981,0,0,0,30,10.325V2.5A2.507,2.507,0,0,1,32.5,0h5A2.507,2.507,0,0,1,40,2.5Z" transform="translate(10 27.5)" fill="#094e81"/>
  <path id="Vector-2" data-name="Vector" d="M47.5,5V7.5c0,2.75-1.325,5-5,5H5c-3.825,0-5-2.25-5-5V5C0,2.25,1.175,0,5,0H42.5C46.175,0,47.5,2.25,47.5,5Z" transform="translate(6.25 12.5)" fill="#094e81"/>
  <path id="Vector-3" data-name="Vector" d="M14.419,7.494H.619a2.341,2.341,0,0,1,.075-3.25L4.244.694a2.4,2.4,0,0,1,3.375,0Z" transform="translate(14.681 5.006)" fill="#094e81"/>
  <path id="Vector-4" data-name="Vector" d="M13.8,7.494H0L6.8.694a2.4,2.4,0,0,1,3.375,0l3.55,3.55A2.341,2.341,0,0,1,13.8,7.494Z" transform="translate(30.875 5.006)" fill="#094e81"/>
  <path id="Vector-5" data-name="Vector" d="M12.575,0a2.507,2.507,0,0,1,2.5,2.5v7.825A2.485,2.485,0,0,1,11.2,12.4L8.95,10.9a2.5,2.5,0,0,0-2.75,0L3.85,12.45A2.481,2.481,0,0,1,0,10.375V2.5A2.507,2.507,0,0,1,2.5,0Z" transform="translate(22.35 27.5)" fill="#094e81"/>
  <path id="Vector-6" data-name="Vector" d="M0,0H60V60H0Z" transform="translate(60 60) rotate(180)" fill="none" opacity="0"/>
</svg>
