<svg xmlns="http://www.w3.org/2000/svg" width="40" height="40" viewBox="0 0 40 40">
  <g id="vuesax_bold_status-up" data-name="vuesax/bold/status-up" transform="translate(0 19)">
    <g id="status-up" transform="translate(0 -19)">
      <path id="Vector" d="M26.022,0H10.655C3.979,0,0,3.978,0,10.652V26c0,6.692,3.979,10.67,10.655,10.67H26c6.675,0,10.655-3.978,10.655-10.652V10.652C36.677,3.978,32.7,0,26.022,0Zm-15.7,29.608a1.375,1.375,0,0,1-2.751,0V25.813a1.375,1.375,0,0,1,2.751,0Zm9.389,0a1.375,1.375,0,0,1-2.751,0V22a1.375,1.375,0,0,1,2.751,0Zm9.389,0a1.375,1.375,0,0,1-2.751,0V18.2a1.375,1.375,0,0,1,2.751,0Zm0-17.2a1.375,1.375,0,0,1-2.751,0V10.633A35.821,35.821,0,0,1,9.279,20.46a1.016,1.016,0,0,1-.33.037A1.388,1.388,0,0,1,7.61,19.452a1.371,1.371,0,0,1,1.009-1.668A33.14,33.14,0,0,0,24.665,8.415H22.373a1.375,1.375,0,1,1,0-2.75h5.373c.073,0,.128.037.2.037a1.462,1.462,0,0,1,.275.055,1.833,1.833,0,0,1,.257.147c.055.037.11.055.165.092.018.018.018.037.037.037a1.941,1.941,0,0,1,.183.22.619.619,0,0,1,.128.2.91.91,0,0,1,.055.238,1.389,1.389,0,0,1,.055.293c0,.018.018.037.018.055v5.372Z" transform="translate(1.667 1.667)" fill="#e86c2b"/>
      <path id="Vector-2" data-name="Vector" d="M0,0H40V40H0Z" transform="translate(40 40) rotate(180)" fill="none" opacity="0"/>
    </g>
  </g>
</svg>
