<svg xmlns="http://www.w3.org/2000/svg" width="40" height="40" viewBox="0 0 40 40">
  <g id="vuesax_bold_repeat-circle" data-name="vuesax/bold/repeat-circle" transform="translate(0 0)">
    <g id="repeat-circle" transform="translate(0 0)">
      <path id="Vector" d="M0,0H40V40H0Z" transform="translate(40 40) rotate(180)" fill="none" opacity="0"/>
      <path id="Vector-2" data-name="Vector" d="M16.666,0A16.666,16.666,0,1,0,33.332,16.666,16.672,16.672,0,0,0,16.666,0Zm8.65,23.232a1.293,1.293,0,0,1-.267.4l-2.817,2.817a1.247,1.247,0,0,1-1.767,0,1.257,1.257,0,0,1,0-1.767L21.149,24H11.833a3.923,3.923,0,0,1-3.916-3.916v-2.95a1.25,1.25,0,1,1,2.5,0v2.95A1.415,1.415,0,0,0,11.833,21.5h9.316l-.683-.683a1.249,1.249,0,0,1,1.767-1.767l2.817,2.817a1.293,1.293,0,0,1,.267.4A1.218,1.218,0,0,1,25.315,23.232Zm.1-7.033a1.25,1.25,0,1,1-2.5,0v-2.95A1.415,1.415,0,0,0,21.5,11.833H12.183l.683.667a1.257,1.257,0,0,1,0,1.767,1.247,1.247,0,0,1-1.767,0L8.283,11.449a1.293,1.293,0,0,1-.267-.4,1.178,1.178,0,0,1,0-.95,1.369,1.369,0,0,1,.267-.417L11.1,6.866a1.249,1.249,0,0,1,1.767,1.767l-.683.683H21.5a3.923,3.923,0,0,1,3.916,3.916Z" transform="translate(3.334 3.334)" fill="#094e81"/>
    </g>
  </g>
</svg>
