<svg id="vuesax_bold_moneys" data-name="vuesax/bold/moneys" xmlns="http://www.w3.org/2000/svg" width="60" height="60" viewBox="0 0 60 60">
  <g id="moneys">
    <path id="Vector" d="M0,0H60V60H0Z" fill="none" opacity="0"/>
    <path id="Vector-2" data-name="Vector" d="M44.093,7.879C43.007,2.4,38.941,0,33.284,0H11.112C4.445,0,0,3.333,0,11.112V24.117c0,5.606,2.3,8.889,6.086,10.3a9.82,9.82,0,0,0,1.793.48,14.767,14.767,0,0,0,3.232.328h22.2c6.667,0,11.112-3.333,11.112-11.112V11.112A14.3,14.3,0,0,0,44.093,7.879ZM9.647,21.415a1.894,1.894,0,1,1-3.788,0V13.839a1.894,1.894,0,1,1,3.788,0ZM22.2,24.294a6.667,6.667,0,1,1,6.667-6.667A6.661,6.661,0,0,1,22.2,24.294Zm16.314-2.879a1.894,1.894,0,1,1-3.788,0V13.839a1.894,1.894,0,1,1,3.788,0Z" transform="translate(4.318 8.889)" fill="#094e81"/>
    <path id="Vector-3" data-name="Vector" d="M41.621,8.307V21.313c0,7.778-4.445,11.137-11.137,11.137H8.312a14.215,14.215,0,0,1-5.051-.833A8.516,8.516,0,0,1,.206,29.747a.652.652,0,0,1,.53-1.111H22.909c9.344,0,14.9-5.556,14.9-14.874V.731A.656.656,0,0,1,38.919.2C40.637,2.019,41.621,4.67,41.621,8.307Z" transform="translate(14.085 18.661)" fill="#094e81"/>
  </g>
</svg>
