<svg id="vuesax_bold_profile-2user" data-name="vuesax/bold/profile-2user" xmlns="http://www.w3.org/2000/svg" width="60" height="60" viewBox="0 0 60 60">
  <g id="profile-2user">
    <path id="Vector" d="M11.875,0a11.864,11.864,0,0,0-.3,23.725,2.017,2.017,0,0,1,.55,0H12.3A11.866,11.866,0,0,0,11.875,0Z" transform="translate(10.625 5)" fill="#094e81"/>
    <path id="Vector-2" data-name="Vector" d="M30.3,3.487c-6.975-4.65-18.35-4.65-25.375,0C1.75,5.612,0,8.487,0,11.562s1.75,5.925,4.9,8.025a23.1,23.1,0,0,0,12.7,3.525,23.1,23.1,0,0,0,12.7-3.525c3.15-2.125,4.9-4.975,4.9-8.075C35.175,8.438,33.45,5.587,30.3,3.487Z" transform="translate(4.9 31.887)" fill="#094e81"/>
    <path id="Vector-3" data-name="Vector" d="M14.7,8.209a8.948,8.948,0,0,1-7.825,9.675H6.75a1.17,1.17,0,0,0-.425.05A8.97,8.97,0,0,1,0,15.859a11.44,11.44,0,0,0,3.75-9.5A11.6,11.6,0,0,0,1.825.909,8.976,8.976,0,0,1,14.7,8.209Z" transform="translate(35.275 10.141)" fill="#094e81"/>
    <path id="Vector-4" data-name="Vector" d="M20,10.226c-.2,2.425-1.75,4.525-4.35,5.95a17.646,17.646,0,0,1-8.775,1.95,8.924,8.924,0,0,0,3.05-5.8c.25-3.1-1.225-6.075-4.175-8.45A20.638,20.638,0,0,0,0,.726C5.525-.874,12.475.2,16.75,3.651,19.05,5.5,20.225,7.826,20,10.226Z" transform="translate(34.975 31.249)" fill="#094e81"/>
    <path id="Vector-5" data-name="Vector" d="M0,0H60V60H0Z" transform="translate(60 60) rotate(180)" fill="none" opacity="0"/>
  </g>
</svg>
