<svg id="vuesax_bold_money-time" data-name="vuesax/bold/money-time" xmlns="http://www.w3.org/2000/svg" width="60" height="60" viewBox="0 0 60 60">
  <g id="money-time">
    <path id="Vector" d="M0,0H60V60H0Z" fill="none" opacity="0"/>
    <path id="Vector-2" data-name="Vector" d="M10.1,0A10.1,10.1,0,1,0,20.2,10.1,10.1,10.1,0,0,0,10.1,0Zm2.525,9.291a4.451,4.451,0,0,1-2.146,3.787L8.559,14.24a1.771,1.771,0,0,1-.985.278,1.885,1.885,0,0,1-.959-3.51L8.534,9.847a.649.649,0,0,0,.3-.53V6.969a1.894,1.894,0,1,1,3.787-.025Z" transform="translate(2.525 34.752)" fill="#094e81"/>
    <path id="Vector-3" data-name="Vector" d="M37.425,0H12.475C4.99,0,0,3.731,0,12.438v8.856a1.242,1.242,0,0,0,1.771,1.119,13.853,13.853,0,0,1,8.234-1.02,13.847,13.847,0,0,1,11.2,13.881,12.594,12.594,0,0,1-.449,3.06,1.22,1.22,0,0,0,1.223,1.493H37.425c7.485,0,12.475-3.731,12.475-12.438V12.438C49.9,3.731,44.911,0,37.425,0ZM24.95,26.12A6.219,6.219,0,1,1,31.188,19.9,6.231,6.231,0,0,1,24.95,26.12Zm18.089-1.244a1.871,1.871,0,0,1-3.743,0v-9.95a1.871,1.871,0,0,1,3.743,0Z" transform="translate(5.05 10.099)" fill="#094e81"/>
  </g>
</svg>
