<svg id="vuesax_bold_close-circle" data-name="vuesax/bold/close-circle" xmlns="http://www.w3.org/2000/svg" width="36" height="36" viewBox="0 0 36 36">
  <g id="close-circle">
    <path id="Vector" d="M15,0A15,15,0,1,0,30,15,15.025,15.025,0,0,0,15,0Zm5.04,18.45a1.132,1.132,0,0,1,0,1.59,1.123,1.123,0,0,1-1.59,0L15,16.59l-3.45,3.45a1.123,1.123,0,0,1-1.59,0,1.132,1.132,0,0,1,0-1.59L13.41,15,9.96,11.55a1.124,1.124,0,0,1,1.59-1.59L15,13.41l3.45-3.45a1.124,1.124,0,1,1,1.59,1.59L16.59,15Z" transform="translate(3 3)" fill="#292d32"/>
    <path id="Vector-2" data-name="Vector" d="M0,0H36V36H0Z" transform="translate(36 36) rotate(180)" fill="none" opacity="0"/>
  </g>
</svg>
