<svg width="53" height="53" viewBox="0 0 53 53" fill="none" xmlns="http://www.w3.org/2000/svg">
<path d="M11.1451 33.3301C6.33832 33.3301 2.44507 37.2233 2.44507 42.0301C2.44507 43.6613 2.90182 45.2056 3.70657 46.5106C5.20732 49.0336 7.96957 50.7301 11.1451 50.7301C14.3206 50.7301 17.0828 49.0336 18.5836 46.5106C19.3883 45.2056 19.8451 43.6613 19.8451 42.0301C19.8451 37.2233 15.9518 33.3301 11.1451 33.3301ZM14.3858 43.6178H12.7763V45.3143C12.7763 46.2061 12.0368 46.9456 11.1451 46.9456C10.2533 46.9456 9.51382 46.2061 9.51382 45.3143V43.6178H7.90432C7.01257 43.6178 6.27307 42.8783 6.27307 41.9866C6.27307 41.0948 7.01257 40.3553 7.90432 40.3553H9.51382V38.8111C9.51382 37.9193 10.2533 37.1798 11.1451 37.1798C12.0368 37.1798 12.7763 37.9193 12.7763 38.8111V40.3553H14.3858C15.2776 40.3553 16.0171 41.0948 16.0171 41.9866C16.0171 42.8783 15.2993 43.6178 14.3858 43.6178Z" fill="#094E81"/>
<path d="M47.0326 27.8926H41.5951C39.2026 27.8926 37.2451 29.8501 37.2451 32.2426C37.2451 34.6351 39.2026 36.5926 41.5951 36.5926H47.0326C47.6416 36.5926 48.1201 36.1141 48.1201 35.5051V28.9801C48.1201 28.3711 47.6416 27.8926 47.0326 27.8926Z" fill="#094E81"/>
<path d="M36.2228 12.45C36.8753 13.0807 36.3315 14.0595 35.418 14.0595L17.409 14.0377C16.365 14.0377 15.843 12.7762 16.5825 12.0367L20.3888 8.20873C23.6078 5.01148 28.806 5.01148 32.025 8.20873L36.1358 12.363C36.1575 12.3847 36.201 12.4282 36.2228 12.45Z" fill="#094E81"/>
<path d="M47.8374 41.2907C46.5106 45.7712 42.6826 48.5552 37.4626 48.5552H23.3251C22.4769 48.5552 21.9331 47.6199 22.2811 46.8369C22.9336 45.3144 23.3469 43.5962 23.3469 42.0302C23.3469 35.4399 17.9746 30.0677 11.3844 30.0677C9.73138 30.0677 8.12188 30.4157 6.64288 31.0682C5.83813 31.4162 4.85938 30.8724 4.85938 30.0024V26.8052C4.85938 20.8892 8.42638 16.7567 13.9726 16.0607C14.5164 15.9737 15.1036 15.9302 15.7126 15.9302H37.4626C38.0281 15.9302 38.5719 15.9519 39.0939 16.0389C43.4874 16.5392 46.6629 19.2144 47.8374 23.1947C48.0549 23.9124 47.5329 24.6302 46.7934 24.6302H41.8126C37.0929 24.6302 33.3519 28.9367 34.3741 33.8304C35.0919 37.3974 38.3979 39.8552 42.0301 39.8552H46.7934C47.5546 39.8552 48.0549 40.5947 47.8374 41.2907Z" fill="#094E81"/>
</svg>
