<svg xmlns="http://www.w3.org/2000/svg" width="537.424" height="79.561" viewBox="0 0 537.424 79.561">
  <g id="Group_11738" data-name="Group 11738" transform="translate(-3280.523 -3108.241)">
    <g id="Group_11737" data-name="Group 11737">
      <g id="g4429" transform="translate(3589.001 3118.631)">
        <path id="path4431" d="M0,0C0-2.823,2.35-4.954,6.016-4.954h.835v-.913H8.31V3.484h2.276V4.943H6.016C2.805,4.943,0,3.449,0,0M6.851,3.484V-3.5H5.411A3.748,3.748,0,0,0,1.457,0c0,2.2,1.767,3.484,3.955,3.484ZM3.024-8.672a.968.968,0,0,1,1-.95.963.963,0,0,1,1,.95.954.954,0,0,1-1,.965.956.956,0,0,1-1-.965m3.519,0a.965.965,0,0,1,1-.95.973.973,0,0,1,1.023.95.963.963,0,0,1-1.023.965.954.954,0,0,1-1-.965" fill="#fff"/>
      </g>
      <path id="path4433" d="M358.173,91.412h3.957V89.957h-3.957Z" transform="translate(3241.069 3032.159)" fill="#fff"/>
      <path id="path4435" d="M361.763,91.412h3.957V89.957h-3.957Z" transform="translate(3241.069 3032.159)" fill="#fff"/>
      <path id="path4437" d="M365.358,91.412h3.952V89.957h-3.952Z" transform="translate(3241.069 3032.159)" fill="#fff"/>
      <path id="path4439" d="M368.946,91.412H372.9V89.957h-3.955Z" transform="translate(3241.069 3032.159)" fill="#fff"/>
      <path id="path4441" d="M372.536,91.412h3.957V89.957h-3.957Z" transform="translate(3241.069 3032.159)" fill="#fff"/>
      <path id="path4443" d="M376.129,91.412h3.957V89.957h-3.957Z" transform="translate(3241.069 3032.159)" fill="#fff"/>
      <path id="path4445" d="M379.717,91.412h3.952V89.957h-3.952Z" transform="translate(3241.069 3032.159)" fill="#fff"/>
      <path id="path4447" d="M383.311,91.412h3.952V89.957h-3.952Z" transform="translate(3241.069 3032.159)" fill="#fff"/>
      <path id="path4449" d="M386.9,91.412h3.957V89.957H386.9Z" transform="translate(3241.069 3032.159)" fill="#fff"/>
      <g id="g4459" transform="translate(3631.556 3122.117)">
        <path id="path4461" d="M0,0H2.263a5.565,5.565,0,0,1-.438-2.153,5.22,5.22,0,0,1,5.2-5.32,5.215,5.215,0,0,1,5.32,5.32,5.214,5.214,0,0,1-5.32,5.268A5.142,5.142,0,0,1,3.211,1.459H0ZM10.884-2.17A3.741,3.741,0,0,0,7.022-6.016,3.744,3.744,0,0,0,3.285-2.17,3.747,3.747,0,0,0,7.022,1.641,3.744,3.744,0,0,0,10.884-2.17" fill="#fff"/>
      </g>
      <g id="g4463" transform="translate(3647.235 3108.79)">
        <path id="path4465" d="M0,0H1.459V13.325h3.1v1.461H0Z" fill="#fff"/>
      </g>
      <path id="path4467" d="M410.358,91.412h3.957V89.957h-3.957Z" transform="translate(3241.069 3032.159)" fill="#fff"/>
      <path id="path4469" d="M413.946,91.412H417.9V89.957h-3.955Z" transform="translate(3241.069 3032.159)" fill="#fff"/>
      <path id="path4471" d="M417.536,91.412h3.959V89.957h-3.959Z" transform="translate(3241.069 3032.159)" fill="#fff"/>
      <path id="path4473" d="M421.131,91.412h3.952V89.957h-3.952Z" transform="translate(3241.069 3032.159)" fill="#fff"/>
      <path id="path4475" d="M424.717,91.412h3.957V89.957h-3.957Z" transform="translate(3241.069 3032.159)" fill="#fff"/>
      <path id="path4477" d="M428.307,91.412h3.957V89.957h-3.957Z" transform="translate(3241.069 3032.159)" fill="#fff"/>
      <g id="g4487" transform="translate(3672.972 3122.118)">
        <path id="path4489" d="M0,0H3.5L.926-6.11a8.572,8.572,0,0,1,5.4-2.456,8.8,8.8,0,0,1,5.4,2.456L9.167,0h3.811V1.457H0ZM2.749-5.6,5.03,0h2.6L9.917-5.6A5.781,5.781,0,0,0,6.322-6.966,5.349,5.349,0,0,0,2.749-5.6" fill="#fff"/>
      </g>
      <path id="path4491" d="M444.516,91.412h3.955V89.957h-3.955Z" transform="translate(3241.069 3032.159)" fill="#fff"/>
      <path id="path4493" d="M448.106,91.412h3.957V89.957h-3.957Z" transform="translate(3241.069 3032.159)" fill="#fff"/>
      <path id="path4495" d="M451.7,91.412h3.952V89.957H451.7Z" transform="translate(3241.069 3032.159)" fill="#fff"/>
      <path id="path4497" d="M455.289,91.412h3.952V89.957h-3.952Z" transform="translate(3241.069 3032.159)" fill="#fff"/>
      <path id="path4499" d="M458.879,91.412h3.957V89.957h-3.957Z" transform="translate(3241.069 3032.159)" fill="#fff"/>
      <g id="g4501" transform="translate(3703.539 3122.116)">
        <path id="path4503" d="M0,0H2.751V-13.325H5.724v1.459H4.208V1.461H0Z" fill="#fff"/>
      </g>
      <path id="path4505" d="M470.927,91.412h1.459V76.628h-1.459V91.412Z" transform="translate(3241.069 3032.159)" fill="#fff"/>
      <g id="g4515" transform="translate(3723.314 3118.631)">
        <path id="path4517" d="M0,0C0-2.823,2.35-4.954,6.012-4.954h.839v-.913H8.31V3.484h2.276V4.943H6.012C2.805,4.943,0,3.449,0,0M6.851,3.484V-3.5H5.411A3.75,3.75,0,0,0,1.455,0c0,2.2,1.769,3.484,3.957,3.484ZM3.024-8.672a.968.968,0,0,1,1-.95.967.967,0,0,1,1,.95.955.955,0,0,1-1,.965.956.956,0,0,1-1-.965m3.517,0a.967.967,0,0,1,1-.95.974.974,0,0,1,1.023.95.961.961,0,0,1-1.023.965.955.955,0,0,1-1-.965" fill="#fff"/>
      </g>
      <path id="path4519" d="M492.486,91.412h3.957V89.957h-3.957Z" transform="translate(3241.069 3032.159)" fill="#fff"/>
      <path id="path4521" d="M496.076,91.412h3.957V89.957h-3.957Z" transform="translate(3241.069 3032.159)" fill="#fff"/>
      <path id="path4523" d="M499.667,91.412h3.961V89.957h-3.961Z" transform="translate(3241.069 3032.159)" fill="#fff"/>
      <path id="path4525" d="M503.259,91.412h3.955V89.957h-3.955Z" transform="translate(3241.069 3032.159)" fill="#fff"/>
      <path id="path4527" d="M506.854,91.412h3.952V89.957h-3.952Z" transform="translate(3241.069 3032.159)" fill="#fff"/>
      <g id="g4537" transform="translate(3751.509 3122.118)">
        <path id="path4539" d="M0,0H2.153V-8.442H3.608V0H5.884V1.457H0ZM.947-11.666c0-1.57.711-2.2,2.06-2.2H4.119v.82H3.044c-.8,0-1.038.379-1.038,1.023v.724H4.7v.965H.947v-1.327Z" fill="#fff"/>
      </g>
      <path id="path4541" d="M515.966,91.412h3.952V89.957h-3.952Z" transform="translate(3241.069 3032.159)" fill="#fff"/>
      <path id="path4543" d="M519.556,91.412h3.957V89.957h-3.957Z" transform="translate(3241.069 3032.159)" fill="#fff"/>
      <path id="path4545" d="M523.144,91.412H527.1V89.957h-3.955Z" transform="translate(3241.069 3032.159)" fill="#fff"/>
      <g id="g4555" transform="translate(3767.804 3122.116)">
        <path id="path4557" d="M0,0H3.868V-8.438H5.323V0h3.7V1.461H0ZM1.7,4.319a.97.97,0,0,1,1-.965.971.971,0,0,1,1,.965.943.943,0,0,1-1,.95.943.943,0,0,1-1-.95m3.517,0a.973.973,0,0,1,1-.965.975.975,0,0,1,1.021.965.948.948,0,0,1-1.021.95.944.944,0,0,1-1-.95" fill="#fff"/>
      </g>
      <path id="path4559" d="M535.411,91.412h3.957V89.957h-3.957Z" transform="translate(3241.069 3032.159)" fill="#fff"/>
      <path id="path4561" d="M539,91.412h3.957V89.957H539Z" transform="translate(3241.069 3032.159)" fill="#fff"/>
      <g id="g4571" transform="translate(3784.025 3122.116)">
        <path id="path4573" d="M0,0H2.409a8.984,8.984,0,0,1-.256-1.949c0-2.589,1.457-4.486,3.79-4.486,2.355,0,3.775,1.878,3.775,4.464A10.589,10.589,0,0,1,9.479,0h2.3a13,13,0,0,0,.273-2.478,7.932,7.932,0,0,0-.837-3.866c-.861-1.622-2.63-2.513-5-2.513A8.842,8.842,0,0,0,2.281-7.621l-.6-1.346a11.012,11.012,0,0,1,5.067-1.372,6.509,6.509,0,0,1,5.63,3.122,9.324,9.324,0,0,1,1.132,4.757A13.1,13.1,0,0,1,13.268,0h1.884V1.461H0ZM3.829,0H8.02a9.616,9.616,0,0,0,.238-1.988c0-1.747-.8-2.992-2.315-2.992C4.451-4.98,3.61-3.757,3.61-1.988A10.392,10.392,0,0,0,3.829,0" fill="#fff"/>
      </g>
      <path id="path4575" d="M557.744,91.412H561.7V89.957h-3.955Z" transform="translate(3241.069 3032.159)" fill="#fff"/>
      <path id="path4577" d="M561.335,91.412h3.959V89.957h-3.959Z" transform="translate(3241.069 3032.159)" fill="#fff"/>
      <g id="g4579" transform="translate(3805.993 3122.116)">
        <path id="path4581" d="M0,0H2.751V-13.325H5.724v1.459H4.208V1.461H0Z" fill="#fff"/>
      </g>
      <path id="path4583" d="M573.383,91.412h1.455V76.628h-1.455V91.412Z" transform="translate(3241.069 3032.159)" fill="#fff"/>
      <g id="g4593" transform="translate(3598.513 3142.977)">
        <path id="path4595" d="M0,0H-8.1V.327c0,3.027,3.109,4.08,3.109,4.08l-1.006.919S-9.55,4.512-9.55-.145a7.353,7.353,0,0,1,.128-1.314h1.6a8.253,8.253,0,0,1-1.095-3.7A4.711,4.711,0,0,1-7.163-8.95,4.927,4.927,0,0,1-4.121-9.99,7.257,7.257,0,0,1-.455-9l-.64,1.294a6.1,6.1,0,0,0-2.9-.822,3.448,3.448,0,0,0-2.281.711A3.207,3.207,0,0,0-7.456-5.249a6.424,6.424,0,0,0,1.223,3.79H0Z" fill="#fff"/>
      </g>
      <g id="g4597" transform="translate(3601.902 3146.368)">
        <path id="path4599" d="M0,0,.455-1.4A5.493,5.493,0,0,0,2.9-.839c1.565,0,2.5-.6,2.5-2.131v-.421H4.52c-3.241,0-6.034-1.44-6.034-4.887,0-2.86,2.426-5.013,6.034-5.013H6.853v8.442h2.87v1.457H6.853v.273C6.853-.839,5.633.618,2.788.618A7.639,7.639,0,0,1,0,0M3.92-4.848H5.4v-6.964H3.92A3.769,3.769,0,0,0-.054-8.278c0,2.207,1.786,3.43,3.974,3.43" fill="#fff"/>
      </g>
      <g id="g4601" transform="translate(3610.306 3141.52)">
        <path id="path4603" d="M0,0H3.233a5.646,5.646,0,0,1-.438-2.153,5.223,5.223,0,0,1,5.2-5.32,5.215,5.215,0,0,1,5.323,5.32A5.124,5.124,0,0,1,12.857,0h1.654V1.459h-2.6a5.319,5.319,0,0,1-3.92,1.656A5.161,5.161,0,0,1,4.18,1.459H0ZM11.857-2.17A3.743,3.743,0,0,0,7.991-6.016,3.743,3.743,0,0,0,4.256-2.17,3.748,3.748,0,0,0,7.991,1.641,3.745,3.745,0,0,0,11.857-2.17" fill="#fff"/>
      </g>
      <g id="g4605" transform="translate(3624.451 3141.519)">
        <path id="path4607" d="M0,0H4.208V-7.53H5.665V0H8.492a2.268,2.268,0,0,0,2.461-2.478V-7.53h1.459v5.158A2.716,2.716,0,0,0,15.328.182a2.506,2.506,0,0,0,2.717-2.771v-6.89H19.5v6.652a6.1,6.1,0,0,1-.128,1.368C19.937-.494,20.833,0,22.53,0V1.459c-2.209,0-3.083-.837-3.556-1.68a3.765,3.765,0,0,1-3.647,1.862A4.009,4.009,0,0,1,11.72-.221a3.819,3.819,0,0,1-3.228,1.68H0Z" fill="#fff"/>
      </g>
      <g id="g4609" transform="translate(3646.616 3141.52)">
        <path id="path4611" d="M0,0H2.259a5.6,5.6,0,0,1-.436-2.153,5.221,5.221,0,0,1,5.195-5.32,5.213,5.213,0,0,1,5.32,5.32A5.125,5.125,0,0,1,11.879,0h2.63V1.459H10.936A5.318,5.318,0,0,1,7.018,3.115,5.161,5.161,0,0,1,3.207,1.459H0ZM10.884-2.17A3.742,3.742,0,0,0,7.018-6.016,3.745,3.745,0,0,0,3.282-2.17,3.745,3.745,0,0,0,7.018,1.641,3.745,3.745,0,0,0,10.884-2.17" fill="#fff"/>
      </g>
      <g id="g4613" transform="translate(3660.76 3141.519)">
        <path id="path4615" d="M0,0H2.751V-13.325H5.724v1.459H4.21V1.459H0Z" fill="#fff"/>
      </g>
      <path id="path4617" d="M428.151,110.816h1.455V96.034h-1.455Z" transform="translate(3241.069 3032.159)" fill="#fff"/>
      <g id="g4627" transform="translate(3675.048 3146.368)">
        <path id="path4629" d="M0,0,.457-1.4A5.469,5.469,0,0,0,2.9-.839c1.57,0,2.5-.6,2.5-2.131v-.421H4.52c-3.241,0-6.029-1.44-6.029-4.887,0-2.86,2.422-5.013,6.029-5.013H6.858V-3.118C6.858-.839,5.633.618,2.79.618A7.63,7.63,0,0,1,0,0M3.922-4.848H5.4v-6.964H3.922A3.773,3.773,0,0,0-.054-8.278c0,2.207,1.786,3.43,3.976,3.43" fill="#fff"/>
      </g>
      <g id="g4631" transform="translate(3693.236 3143.599)">
        <path id="path4633" d="M0,0A4.638,4.638,0,0,1-1.292-3.3V-7.239H.167v3.723a3.012,3.012,0,0,0,.963,2.5,4.453,4.453,0,0,0,2.792.767H7.384V-6.528A3.775,3.775,0,0,1,8.659-9.661a4.285,4.285,0,0,1,2.84-.859h3.25v8.438h3.493V-.622H13.29V-9.06H11.525a2.734,2.734,0,0,0-1.865.546,2.216,2.216,0,0,0-.822,1.752v7.97H4.213C2.136,1.208,1.006.9,0,0M2.645,3.334a.969.969,0,0,1,1-.965.967.967,0,0,1,1,.965.943.943,0,0,1-1,.95.945.945,0,0,1-1-.95m3.517,0a.968.968,0,0,1,1-.965.977.977,0,0,1,1.028.965.953.953,0,0,1-1.028.95.943.943,0,0,1-1-.95" fill="#fff"/>
      </g>
      <g id="g4635" transform="translate(3711.111 3141.521)">
        <path id="path4637" d="M0,0H2.149V-8.442H3.608v9.9H0ZM1-11.666c0-1.568.707-2.207,2.06-2.207H4.173v.822H3.1c-.8,0-1.038.384-1.038,1.019v.728h2.7v.969H1Z" fill="#fff"/>
      </g>
      <g id="g4639" transform="translate(3716.707 3146.823)">
        <path id="path4641" d="M0,0,.384-1.4a2.528,2.528,0,0,0,.746.111c1.112,0,1.383-.585,1.383-2.242V-13.745H3.974V-5.3h2.3v1.457h-2.3v.312c0,2.276-.679,3.7-2.792,3.7A4.352,4.352,0,0,1,0,0" fill="#fff"/>
      </g>
      <g id="g4643" transform="translate(3722.611 3141.52)">
        <path id="path4645" d="M0,0H2.263a5.567,5.567,0,0,1-.44-2.153,5.221,5.221,0,0,1,5.195-5.32,5.213,5.213,0,0,1,5.32,5.32A5.122,5.122,0,0,1,11.885,0h2.623V1.459H10.94A5.331,5.331,0,0,1,7.018,3.115,5.157,5.157,0,0,1,3.207,1.459H0ZM10.884-2.17A3.744,3.744,0,0,0,7.018-6.016,3.745,3.745,0,0,0,3.282-2.17,3.745,3.745,0,0,0,7.018,1.641,3.745,3.745,0,0,0,10.884-2.17" fill="#fff"/>
      </g>
      <g id="g4647" transform="translate(3736.759 3141.519)">
        <path id="path4649" d="M0,0H2.751V-13.325h2.97v1.459H4.213V1.459H0Z" fill="#fff"/>
      </g>
      <path id="path4651" d="M504.146,110.816H505.6V96.034h-1.457Z" transform="translate(3241.069 3032.159)" fill="#fff"/>
      <g id="g4661" transform="translate(3757.706 3146.987)">
        <path id="path4663" d="M0,0V-2.532A5.821,5.821,0,0,1,1.2-6.617,4.045,4.045,0,0,1,4.336-7.948h.128a5.186,5.186,0,0,1,5.16-4.685,5.219,5.219,0,0,1,5.325,5.325A5.216,5.216,0,0,1,9.624-2.042,5.186,5.186,0,0,1,4.486-6.489H4.41A2.865,2.865,0,0,0,2.136-5.5a4.119,4.119,0,0,0-.676,2.682V0ZM13.49-7.326a3.742,3.742,0,0,0-3.866-3.848A3.743,3.743,0,0,0,5.888-7.326,3.746,3.746,0,0,0,9.624-3.517,3.743,3.743,0,0,0,13.49-7.326" fill="#fff"/>
      </g>
      <g id="g4665" transform="translate(3774.423 3141.52)">
        <path id="path4667" d="M0,0H5.03A3.953,3.953,0,0,0,7.56-.746a2.9,2.9,0,0,0,.971-2.391V-13.368h2.805v1.459H9.986v8.772a5.413,5.413,0,0,1-.234,1.552C10.313-.529,11.226,0,12.978,0V1.459c-2.426,0-3.243-1.041-3.7-1.953a3.04,3.04,0,0,1-.622.733A6.3,6.3,0,0,1,4.481,1.459H.18ZM2.951-11.248H4.41V-.986H2.951Z" fill="#fff"/>
      </g>
      <g id="g4669" transform="translate(3787.034 3141.519)">
        <path id="path4671" d="M0,0H2.443A8.226,8.226,0,0,1,1.349-3.7,4.709,4.709,0,0,1,3.1-7.493,4.9,4.9,0,0,1,6.144-8.531a7.257,7.257,0,0,1,3.662.984L9.169-6.255a6.139,6.139,0,0,0-2.9-.82A3.413,3.413,0,0,0,4-6.361a3.206,3.206,0,0,0-1.19,2.569A6.431,6.431,0,0,0,4.03,0h6.229V1.459H0Z" fill="#fff"/>
      </g>
      <g id="g4673" transform="translate(3799.01 3141.52)">
        <path id="path4675" d="M0,0H5.032A3.966,3.966,0,0,0,7.566-.746a2.912,2.912,0,0,0,.965-2.391V-13.368h2.805v1.459H9.99v8.772a5.338,5.338,0,0,1-.236,1.552C10.318-.529,11.23,0,12.978,0V1.459c-2.422,0-3.246-1.041-3.7-1.953a3.14,3.14,0,0,1-.622.733A6.312,6.312,0,0,1,4.486,1.459H.184ZM1.951,3.991v-.6H5.342v.965H3c0,.64.295,1.023,1.134,1.023h.618V6.2H4.011c-1.351,0-2.06-.731-2.06-2.2m1-15.239H4.41V-.986H2.951V-11.248Z" fill="#fff"/>
      </g>
      <g id="g4677" transform="translate(3811.625 3141.519)">
        <path id="path4679" d="M0,0H2.751V-13.325h2.97v1.459H4.213V1.459H0Z" fill="#fff"/>
      </g>
      <g id="g4689" transform="translate(3594.886 3170.823)">
        <path id="path4691" d="M0,0A9.352,9.352,0,0,0,4.486-1.069L4.529-1.1V-6.443h-4.8v1.407H3.068v3.02a6.6,6.6,0,0,1-3.04.642,4.736,4.736,0,0,1-4.863-5A4.676,4.676,0,0,1,.028-11.387,7,7,0,0,1,3.6-10.48l.089.052.594-1.266-.072-.043A8.381,8.381,0,0,0,0-12.757,6.1,6.1,0,0,0-6.383-6.378,6.1,6.1,0,0,0,0,0" fill="#fff"/>
      </g>
      <g id="g4693" transform="translate(3605.559 3164.926)">
        <path id="path4695" d="M0,0H5.5V-1.392H0V-5.31H6.062V-6.68H-1.457V5.728H6.127V4.358H0Z" fill="#fff"/>
      </g>
      <g id="g4697" transform="translate(3623.964 3169.043)">
        <path id="path4699" d="M0,0-6.092-10.754l-.024-.048H-8.2V1.613h1.455v-10.8L-.657,1.565l.024.048H1.459V-10.8H0Z" fill="#fff"/>
      </g>
      <g id="g4701" transform="translate(3637.69 3169.283)">
        <path id="path4703" d="M0,0H-6.123V-4.358h5.5v-1.39h-5.5v-3.92H-.061v-1.375H-7.582V1.375H0Z" fill="#fff"/>
      </g>
      <g id="g4713" transform="translate(3643.225 3165.422)">
        <path id="path4715" d="M0,0H2.884l3.3,5.192.024.043H7.9L4.431-.21A3.291,3.291,0,0,0,7.217-3.634c0-2.22-1.656-3.547-4.423-3.547H-1.459V5.236H0ZM0-5.806H2.474c2.157,0,3.209.713,3.209,2.188,0,1.585-.989,2.289-3.209,2.289H0Z" fill="#fff"/>
      </g>
      <g id="g4717" transform="translate(3662.936 3170.654)">
        <path id="path4719" d="M0,0H1.535L-3.332-12.354l-.022-.059h-1.6L-9.774-.121-9.823,0h1.531l1.4-3.569h5.5ZM-1.938-4.963H-6.355l2.207-5.661,2.209,5.661Z" fill="#fff"/>
      </g>
      <g id="g4721" transform="translate(3669.052 3158.243)">
        <path id="path4723" d="M0,0H-1.457V12.412H6.077v-1.37H0Z" fill="#fff"/>
      </g>
      <g id="g4733" transform="translate(3696.65 3170.823)">
        <path id="path4735" d="M0,0A7.929,7.929,0,0,0,4.041-1.036l.072-.043-.6-1.268-.087.054a6.48,6.48,0,0,1-3.4.919,4.733,4.733,0,0,1-4.861-5A4.675,4.675,0,0,1,.03-11.387a6.471,6.471,0,0,1,3.4.906l.087.052.6-1.266-.072-.043A7.939,7.939,0,0,0,0-12.757,6.1,6.1,0,0,0-6.383-6.378,6.1,6.1,0,0,0,0,0" fill="#fff"/>
      </g>
      <g id="g4737" transform="translate(3709.54 3170.823)">
        <path id="path4739" d="M0,0A6.248,6.248,0,0,0,6.4-6.378,6.248,6.248,0,0,0,0-12.761,6.247,6.247,0,0,0-6.394-6.378,6.248,6.248,0,0,0,0,0M0-11.387A4.767,4.767,0,0,1,4.848-6.378,4.767,4.767,0,0,1,0-1.375a4.765,4.765,0,0,1-4.843-5A4.765,4.765,0,0,1,0-11.387" fill="#fff"/>
      </g>
      <g id="g4741" transform="translate(3732.203 3170.656)">
        <path id="path4743" d="M0,0V-12.412H-2.326l-3.922,10.8L-10.14-12.351l-.022-.061h-2.326V0h1.457V-10.723l3.9,10.667L-7.113,0h1.737l3.915-10.723V0Z" fill="#fff"/>
      </g>
      <g id="g4745" transform="translate(3747.922 3170.656)">
        <path id="path4747" d="M0,0H1.459V-12.412H-.872l-3.913,10.8-3.9-10.743-.02-.061h-2.331V0h1.461V-10.723l3.9,10.667L-5.659,0h1.741L0-10.723Z" fill="#fff"/>
      </g>
      <path id="path4749" d="M513,138.5h1.455V126.082H513Z" transform="translate(3241.069 3032.159)" fill="#fff"/>
      <g id="g4759" transform="translate(3768.335 3167.247)">
        <path id="path4761" d="M0,0C0-1.765-1.24-3-3.684-3.675L-4.7-3.963C-6.318-4.429-7-5.075-7-6.123c0-1.242,1.318-1.687,2.552-1.687a6.677,6.677,0,0,1,3.521.98l.087.054L-.2-8.054-.273-8.1a8.224,8.224,0,0,0-4.15-1.082c-2.042,0-4.1.963-4.1,3.1,0,1.7,1.112,2.875,3.3,3.5l.941.256C-2.331-1.791-1.535-1.1-1.535.046-1.535,1.418-2.654,2.2-4.6,2.2a7.063,7.063,0,0,1-3.569-1l-.082-.052-.661,1.3.072.043A8.692,8.692,0,0,0-4.59,3.577C-1.715,3.577,0,2.237,0,0" fill="#fff"/>
      </g>
      <g id="g4763" transform="translate(3780.77 3167.247)">
        <path id="path4765" d="M0,0C0-1.765-1.24-3-3.684-3.675L-4.7-3.963C-6.318-4.429-7-5.075-7-6.123c0-1.242,1.318-1.687,2.552-1.687a6.677,6.677,0,0,1,3.521.98l.085.054L-.2-8.054-.273-8.1a8.224,8.224,0,0,0-4.15-1.082c-2.042,0-4.1.963-4.1,3.1,0,1.7,1.112,2.875,3.3,3.5l.941.256C-2.331-1.791-1.535-1.1-1.535.046-1.535,1.418-2.654,2.2-4.6,2.2a7.069,7.069,0,0,1-3.569-1l-.082-.052-.661,1.3.072.043A8.692,8.692,0,0,0-4.59,3.577C-1.715,3.577,0,2.237,0,0" fill="#fff"/>
      </g>
      <path id="path4767" d="M543.854,138.5h1.459V126.082h-1.459Z" transform="translate(3241.069 3032.159)" fill="#fff"/>
      <g id="g4777" transform="translate(3796.55 3158.061)">
        <path id="path4779" d="M0,0A6.247,6.247,0,0,0-6.4,6.383,6.246,6.246,0,0,0,0,12.761,6.248,6.248,0,0,0,6.4,6.383,6.249,6.249,0,0,0,0,0M0,11.389A4.77,4.77,0,0,1-4.852,6.383,4.771,4.771,0,0,1,0,1.375,4.765,4.765,0,0,1,4.843,6.383,4.764,4.764,0,0,1,0,11.389" fill="#fff"/>
      </g>
      <g id="g4781" transform="translate(3808.181 3159.854)">
        <path id="path4783" d="M0,0,6.09,10.756l.026.046H8.2V-1.613H6.745v10.8L.657-1.565l-.03-.048H-1.461V10.8H0Z" fill="#fff"/>
      </g>
      <g id="g4785" transform="translate(3589.417 3187.637)">
        <path id="path4787" d="M0,0H1.459V-5.732H6.834V-7.12H1.459v-3.922H7.443v-1.375H0Z" fill="#fff"/>
      </g>
      <g id="g4797" transform="translate(3604.751 3175.042)">
        <path id="path4799" d="M0,0A6.246,6.246,0,0,0-6.4,6.378,6.247,6.247,0,0,0,0,12.761,6.249,6.249,0,0,0,6.4,6.378,6.248,6.248,0,0,0,0,0M0,11.387A4.767,4.767,0,0,1-4.848,6.378,4.766,4.766,0,0,1,0,1.375a4.765,4.765,0,0,1,4.843,5A4.766,4.766,0,0,1,0,11.387" fill="#fff"/>
      </g>
      <g id="g4801" transform="translate(3622.685 3178.765)">
        <path id="path4803" d="M0,0C0-2.216-1.652-3.545-4.423-3.545H-8.674V8.872h1.457V3.636h2.884l3.3,5.192.028.043H.685L-2.788,3.423A3.288,3.288,0,0,0,0,0M-7.217-2.17h2.476c2.155,0,3.207.718,3.207,2.188,0,1.585-.986,2.292-3.207,2.292H-7.217Z" fill="#fff"/>
      </g>
      <g id="g4805" transform="translate(3638.635 3175.221)">
        <path id="path4807" d="M0,0H-1.6L-6.42,12.293l-.048.124h1.531l1.4-3.573h5.5l1.4,3.573H4.887L.022.061ZM1.414,7.452H-3L-.791,1.791l2.2,5.661Z" fill="#fff"/>
      </g>
      <g id="g4817" transform="translate(3654.073 3182.508)">
        <path id="path4819" d="M0,0C0,2.673-1.188,3.92-3.736,3.92c-2.6,0-3.751-1.21-3.751-3.92V-7.287H-8.95V.284c0,3.233,1.849,5.008,5.214,5.008,3.347,0,5.195-1.776,5.195-5.008V-7.287H0Z" fill="#fff"/>
      </g>
      <g id="g4821" transform="translate(3662.132 3175.22)">
        <path id="path4823" d="M0,0H-2.977V12.416H.046c4.3,0,7.079-2.443,7.079-6.231C7.124,2.37,4.392,0,0,0M5.576,6.185c0,3.131-1.986,4.856-5.591,4.856h-1.5V1.375H.013c3.432,0,5.563,1.843,5.563,4.811" fill="#fff"/>
      </g>
      <path id="path4825" d="M431.056,155.478h1.455V143.059h-1.455Z" transform="translate(3241.069 3032.159)" fill="#fff"/>
      <g id="g4835" transform="translate(3682.834 3175.042)">
        <path id="path4837" d="M0,0A6.247,6.247,0,0,0-6.4,6.378,6.248,6.248,0,0,0,0,12.761,6.248,6.248,0,0,0,6.4,6.378,6.247,6.247,0,0,0,0,0M0,11.387A4.77,4.77,0,0,1-4.848,6.378,4.768,4.768,0,0,1,0,1.375a4.767,4.767,0,0,1,4.848,5A4.768,4.768,0,0,1,0,11.387" fill="#fff"/>
      </g>
      <g id="g4839" transform="translate(3695.713 3185.806)">
        <path id="path4841" d="M0,0-3.911-10.526l-.022-.059H-5.481L-.863,1.773l.024.061H.837L5.429-10.459l.052-.126H3.948Z" fill="#fff"/>
      </g>
      <path id="path4843" d="M462.487,155.478h1.455V143.059h-1.455Z" transform="translate(3241.069 3032.159)" fill="#fff"/>
      <g id="g4853" transform="translate(3713.23 3180.549)">
        <path id="path4855" d="M0,0-1.019-.286c-1.613-.466-2.3-1.112-2.3-2.162C-3.321-3.69-2-4.134-.772-4.134a6.7,6.7,0,0,1,3.523.98l.087.054L3.48-4.379l-.067-.046A8.217,8.217,0,0,0-.739-5.509c-2.042,0-4.1.963-4.1,3.109,0,1.7,1.112,2.873,3.3,3.5l.941.256c1.947.533,2.743,1.218,2.743,2.374,0,1.366-1.114,2.151-3.063,2.151a7.02,7.02,0,0,1-3.566-1l-.087-.05-.663,1.3.076.043A8.692,8.692,0,0,0-.906,7.252c2.873,0,4.588-1.338,4.588-3.575C3.681,1.91,2.443.679,0,0" fill="#fff"/>
      </g>
      <g id="g4857" transform="translate(3728.952 3182.508)">
        <path id="path4859" d="M0,0C0,2.673-1.188,3.92-3.736,3.92c-2.6,0-3.755-1.21-3.755-3.92V-7.287H-8.95V.284c0,3.233,1.849,5.008,5.214,5.008,3.347,0,5.195-1.776,5.195-5.008V-7.287H0Z" fill="#fff"/>
      </g>
      <g id="g4861" transform="translate(3738.487 3175.221)">
        <path id="path4863" d="M0,0H-1.6L-6.42,12.293l-.052.124h1.535l1.4-3.573h5.5l1.4,3.573H4.887L.022.061ZM1.414,7.452H-3L-.791,1.791l2.2,5.661Z" fill="#fff"/>
      </g>
      <g id="g4865" transform="translate(3747.047 3175.221)">
        <path id="path4867" d="M0,0H-1.461V12.416H6.077V11.042H0Z" fill="#fff"/>
      </g>
      <g id="g4869" transform="translate(3769.341 3186.025)">
        <path id="path4871" d="M0,0-3.9-10.743l-.022-.061H-6.248V1.613h1.463V-9.112L-.893,1.548l.022.065H.865L4.783-9.112V1.613H6.244V-10.8H3.918Z" fill="#fff"/>
      </g>
      <g id="g4873" transform="translate(3780.821 3181.906)">
        <path id="path4875" d="M0,0H5.5V-1.392H0V-5.31H6.062V-6.684H-1.461V5.732H6.123V4.358H0Z" fill="#fff"/>
      </g>
      <g id="g4885" transform="translate(3793.083 3175.22)">
        <path id="path4887" d="M0,0H-2.977V12.416H.05c4.3,0,7.077-2.443,7.077-6.231C7.126,2.37,4.4,0,0,0M5.576,6.185c0,3.131-1.986,4.856-5.591,4.856h-1.5V1.375H.017c3.43,0,5.559,1.843,5.559,4.811" fill="#fff"/>
      </g>
      <path id="path4889" d="M562,155.478h1.455V143.059H562Z" transform="translate(3241.069 3032.159)" fill="#fff"/>
      <g id="g4891" transform="translate(3813.083 3175.281)">
        <path id="path4893" d="M0,0-.026-.061H-1.62L-6.443,12.232l-.05.124h1.535l1.4-3.573h5.5L3.33,12.356H4.865ZM1.392,7.391H-3.02L-.813,1.73l2.2,5.661Z" fill="#fff"/>
      </g>
    </g>
    <g id="g4903" transform="translate(3357.474 3140.51)">
      <path id="path4905" d="M0,0A16.18,16.18,0,0,1,3.168-4.23,15.932,15.932,0,0,1,15-9.134a16.1,16.1,0,0,1,11.835,4.9l.212.212,12.9-19.4C35.465-26.83,26.192-32.265,15-32.265A38.235,38.235,0,0,0-13.034-20.644,38.072,38.072,0,0,0-24.009,0H0Z" fill="#fff"/>
    </g>
    <g id="g4907" transform="translate(3359.362 3140.509)">
      <path id="path4909" d="M0,0H-35.122V0a7.3,7.3,0,0,0-7.3,7.3,7.3,7.3,0,0,0,7.3,7.3H-2.411l-23.25,3.213a16.852,16.852,0,0,1-13.4,6.621A16.929,16.929,0,0,1-55.988,7.514,16.928,16.928,0,0,1-39.06-9.412,16.78,16.78,0,0,1-28.822-5.943,39.773,39.773,0,0,1-16.75-25.394,39.551,39.551,0,0,0-39.06-32.267,39.781,39.781,0,0,0-78.839,7.514,39.777,39.777,0,0,0-39.06,47.294,39.78,39.78,0,0,0,.074,14.608,39.858,39.858,0,0,0,.718,7.514,39.888,39.888,0,0,0,0,0" fill="#41c2ca"/>
    </g>
    <g id="g4911" transform="translate(3334.083 3158.275)">
      <path id="path4913" d="M0,0V0L0,0Z" fill="#3f3072"/>
    </g>
    <g id="g4915" transform="translate(3324.227 3155.116)">
      <path id="path4917" d="M0,0H0Z" fill="#fff"/>
    </g>
    <g id="g4927" transform="translate(3425.896 3153.17)">
      <path id="path4929" d="M0,0C0-1.78,1.136-2.322,2.526-1.212l8.2,6.587a2.488,2.488,0,0,1,0,4.048l-8.2,6.584C1.136,17.123,0,16.575,0,14.795Z" fill="#fff"/>
    </g>
    <g id="g4931" transform="translate(3531.01 3108.244)">
      <path id="path4933" d="M0,0A12.042,12.042,0,0,0-8.62,3.484l-10,10a3.064,3.064,0,0,1-2.387,1.01,3.076,3.076,0,0,1-2.387-1.01l-10-10A12.042,12.042,0,0,0-42.012,0H-59.795V44.6C-60.929,42.867-75.142,21.154-80.12,13.78-83.6,8.622-89.426.319-101.057.319S-118.534,8.609-122,13.78c-5.919,8.848-23.144,35.736-23.144,35.736l-.02-.011s-4.009,6.337-13.375,6.35c-4.581.007-9.273-1.279-12.473-4.581a15.756,15.756,0,0,1-1.108-1.2,12.761,12.761,0,0,1-1.94-3.2l-23.25,3.213c1.7,6.617,5.526,12.5,10.736,17.713q1.047,1.047,2.14,2a38.042,38.042,0,0,0,25.9,9.613,40.838,40.838,0,0,0,33.193-16.59h0l15.874-24.31c2.938-4.026,4.15-6.545,8.414-6.684,4.265.139,5.476,2.658,8.414,6.684,0,0,14.743,22.986,20.041,30.387,3.328,4.648,8.1,10.452,20.349,10.452h15.376V39.693S-28,48.553-25.045,51.5a5.631,5.631,0,0,0,4.037,1.607A5.633,5.633,0,0,0-16.967,51.5L-5.136,39.693v39.66H17.782V0Z" fill="#fff"/>
    </g>
    <g id="g4935" transform="translate(3334.039 3158.441)">
      <path id="path4937" d="M0,0V0A0,0,0,0,1,0,0Z" fill="#3f3072"/>
    </g>
    <g id="g4939" transform="translate(3324.192 3155.284)">
      <path id="path4941" d="M0,0H0Z" fill="#fff"/>
    </g>
  </g>
</svg>